<svg preserveAspectRatio="none" width="100%" height="100%" overflow="visible" style="display: block;" viewBox="0 0 32 32" fill="none" xmlns="http://www.w3.org/2000/svg">
<g id="Group">
<path id="Vector" d="M27.3655 4.63448C33.5448 10.9241 33.5448 21.0759 27.3655 27.3655C21.0759 33.5448 10.9241 33.5448 4.63448 27.3655C-1.54483 21.0759 -1.54483 10.9241 4.63448 4.63448C10.9241 -1.54483 21.0759 -1.54483 27.3655 4.63448ZM26.2621 5.73793C20.6345 0.110345 11.3655 0.110345 5.73793 5.73793C0.110345 11.3655 0.110345 20.6345 5.73793 26.2621C11.3655 32 20.6345 32 26.2621 26.2621C32 20.6345 32 11.3655 26.2621 5.73793Z" fill="#B63AB4"/>
<path id="Vector_2" d="M16 20.6222C9.95556 20.6222 9.95556 25.2444 9.95556 25.2444H22.0444C22.0444 25.2444 22.0444 20.6222 16 20.6222Z" fill="#B63AB4"/>
<path id="Vector_3" d="M26.8729 12.0178C25.8898 10.7072 24.3879 9.95556 22.752 9.95556C21.1161 9.95556 19.6142 10.7072 18.6311 12.0178C18.3954 12.3321 18.459 12.7776 18.773 13.0133C19.0884 13.2491 19.5335 13.1851 19.7685 12.8711C20.4807 11.9221 21.568 11.3778 22.752 11.3778C23.936 11.3778 25.0233 11.9221 25.7355 12.8711C25.8752 13.0574 26.0885 13.1556 26.3051 13.1556C26.4533 13.1556 26.603 13.1093 26.731 13.0133C27.045 12.7776 27.1086 12.3321 26.8729 12.0178Z" fill="#B63AB4"/>
<path id="Vector_4" d="M12.224 12.8711C12.3637 13.0574 12.5774 13.1556 12.7936 13.1556C12.9419 13.1556 13.0919 13.1093 13.2199 13.0133C13.5339 12.7776 13.5979 12.3317 13.3621 12.0178C12.379 10.7072 10.8772 9.95556 9.24125 9.95556C7.60534 9.95556 6.10347 10.7072 5.12036 12.0178C4.88463 12.3321 4.94863 12.7776 5.26258 13.0133C5.57654 13.2487 6.0224 13.1851 6.25814 12.8711C6.96996 11.9221 8.05725 11.3778 9.24125 11.3778C10.4252 11.3778 11.5122 11.9221 12.224 12.8711Z" fill="#B63AB4"/>
<path id="Vector_5" d="M11.0222 16.7111C11.0222 17.3003 11.4997 17.7778 12.0889 17.7778C12.678 17.7778 13.1556 17.3003 13.1556 16.7111C13.1556 16.122 12.0889 14.5778 12.0889 14.5778C12.0889 14.5778 11.0222 16.122 11.0222 16.7111Z" fill="#B63AB4"/>
</g>
</svg>
