<svg width="32" height="32" viewBox="2 2 28 28" fill="none" xmlns="http://www.w3.org/2000/svg">
<path d="M20.8996 20.76V21.97H19.8496V23.2H20.8996V24.41H22.1196V23.2H23.1596V21.97H22.1196V20.76H20.8996Z" fill="#5C4A3B" stroke="#5C4A3B" stroke-width="0.4"/>
<path d="M26.9703 13.2199C26.8403 12.2399 26.5503 11.5799 26.1103 11.2299C26.4003 8.84994 25.3903 5.92994 25.3403 5.80995C25.3403 5.80995 25.3403 5.79995 25.3303 5.77995C23.8503 2.40995 21.4003 1.03995 19.6103 0.489945C17.6703 -0.110055 16.1003 0.0899451 16.0303 0.0999451C15.9603 0.0999451 14.3903 -0.110055 12.4503 0.489945C10.6603 1.03995 8.21025 2.40995 6.73025 5.77995V5.78995C6.68025 5.90995 5.62025 8.73994 5.98025 11.1499C5.48025 11.4699 5.15025 12.1599 5.01025 13.2099C4.59025 16.4299 8.35025 18.3799 8.51025 18.4599C8.55025 18.4799 8.59025 18.4899 8.63025 18.4899C9.23025 19.9999 10.0103 21.2499 10.9403 22.1999C10.9403 22.2399 10.9403 22.2799 10.9403 22.3199C10.9403 22.3399 11.3703 23.9799 11.1903 25.8699C10.9503 28.3399 9.82025 30.0399 7.84025 30.9199C7.67025 30.9999 7.59025 31.1899 7.67025 31.3699C7.73025 31.4999 7.85025 31.5699 7.98025 31.5699C8.03025 31.5699 8.07025 31.5599 8.12025 31.5399C10.3103 30.5599 11.6103 28.6199 11.8703 25.9199C11.9803 24.7299 11.8703 23.6499 11.7603 22.9499C12.9803 23.8999 14.4003 24.4099 15.9503 24.4299H16.0203C16.6103 24.4299 17.1803 24.3499 17.7203 24.2099C17.7803 24.1999 17.8303 24.1699 17.8703 24.1299C18.2803 25.2999 19.1603 26.2199 20.2603 26.6199C20.1903 26.6899 20.1503 26.7999 20.1603 26.9099C20.5103 29.3199 21.7503 31.0099 23.8603 31.9499C23.9003 31.9699 23.9503 31.9799 24.0003 31.9799C24.1303 31.9799 24.2503 31.8999 24.3103 31.7799C24.3903 31.6099 24.3103 31.4099 24.1403 31.3299C22.2603 30.4899 21.1503 28.9699 20.8403 26.8099C20.8403 26.7999 20.8403 26.7899 20.8403 26.7799C21.0603 26.8199 21.3003 26.8499 21.5303 26.8499C23.6803 26.8499 25.4303 24.9499 25.4303 22.6099C25.4303 21.5199 24.6103 19.8299 23.7503 18.3499C24.1703 18.1099 27.4003 16.2799 26.9903 13.2099L26.9703 13.2199ZM7.35025 6.04995C8.45025 3.53995 10.2203 1.89995 12.6203 1.14995C14.4203 0.589945 15.9203 0.769945 15.9403 0.769945C15.9703 0.769945 16.0003 0.769945 16.0303 0.769945C16.0603 0.769945 16.0903 0.769945 16.1203 0.769945C16.1803 0.769945 22.0802 0.0599456 24.7103 6.04995C24.7803 6.24995 25.6503 8.84995 25.4603 10.9699C25.0303 10.9299 24.6303 11.1099 24.4203 11.2299C19.7903 9.71994 18.4303 6.66995 18.4203 6.63995C18.3803 6.53995 18.2803 6.45995 18.1703 6.43995C18.0603 6.41995 17.9403 6.45995 17.8603 6.53995C17.8203 6.57995 14.1903 10.2799 7.61025 11.2499C7.59025 11.2499 7.57025 11.2399 7.55025 11.2399C7.36025 11.1299 7.01025 10.9699 6.62025 10.9699C6.34025 8.81994 7.29025 6.20995 7.35025 6.05995V6.04995ZM5.67025 13.3099C5.79025 12.4099 6.05025 11.8399 6.41025 11.6899C6.69025 11.5699 7.00025 11.7099 7.17025 11.7999C7.32025 13.5599 7.55025 15.1499 8.12025 17.0899C8.17025 17.2499 8.21025 17.3999 8.26025 17.5499C7.29025 16.9099 5.39025 15.3799 5.66025 13.3099H5.67025ZM17.5503 23.5699C17.0503 23.6999 16.5303 23.7699 15.9903 23.7699C11.3303 23.7599 9.39025 18.9599 8.78025 16.8999C8.23025 15.0699 8.01025 13.5599 7.87025 11.8999C13.5103 11.0299 16.9603 8.27995 18.0203 7.33995C18.5703 8.27995 20.2403 10.5699 24.1203 11.8599C23.9503 13.6999 23.6003 15.5799 23.0903 17.3099C22.4203 16.2499 21.8603 15.4699 21.8003 15.3899C21.7303 15.2999 21.6303 15.2499 21.5303 15.2499C21.4303 15.2499 21.3203 15.2999 21.2603 15.3899C21.1103 15.5899 17.6303 20.3999 17.6303 22.6399C17.6303 22.9699 17.6703 23.2799 17.7303 23.5799C17.6803 23.5699 17.6303 23.5699 17.5703 23.5799L17.5503 23.5699ZM21.5103 26.1899C19.7303 26.1899 18.2803 24.5899 18.2803 22.6299C18.2803 20.9499 20.6803 17.3499 21.5103 16.1599C22.3303 17.3499 24.7403 20.9399 24.7403 22.6299C24.7403 24.5899 23.2903 26.1899 21.5103 26.1899ZM23.6903 17.5899C23.6903 17.5899 23.7003 17.5599 23.7103 17.5399C24.2503 15.7199 24.6203 13.7399 24.7903 11.7999C24.9603 11.7099 25.2703 11.5699 25.5503 11.6799C25.9103 11.8299 26.1803 12.4099 26.2903 13.2999C26.5903 15.5199 24.5003 17.0699 23.6803 17.5799L23.6903 17.5899Z" fill="#5C4A3B" stroke="#5C4A3B" stroke-width="0.4"/>

</svg>
