<svg width="32" height="32" viewBox="0 0 32 32" fill="none" xmlns="http://www.w3.org/2000/svg">
<path d="M28.5103 31.13C27.5203 27.86 25.7503 25.08 23.4603 23.13V19.4C23.9003 18.85 24.2703 18.25 24.5803 17.61V22.9C24.5803 23.16 24.7903 23.37 25.0503 23.37C25.3103 23.37 25.5203 23.16 25.5203 22.9V12.01C25.5203 6.66003 21.2103 2.32003 15.9203 2.32003C15.6203 2.32003 15.3103 2.34003 15.0103 2.37003C14.7503 2.39003 14.5603 2.62003 14.5903 2.88003C14.6103 3.14003 14.8403 3.33003 15.1003 3.30003C15.3903 3.27003 15.6703 3.26003 15.9203 3.26003C20.7003 3.26003 24.5903 7.18003 24.5903 12.01V13.51C17.8003 12.59 15.4703 10.12 14.6803 8.71003C14.5703 8.52003 14.3603 8.40003 14.1403 8.43003C13.9203 8.45003 13.7303 8.60003 13.6603 8.81003C13.2603 9.97003 11.8903 12.02 7.24028 12.98V12.01C7.24028 8.34003 9.54028 5.04003 12.9503 3.78003C13.1903 3.69003 13.3203 3.42003 13.2303 3.18003C13.1403 2.94003 12.8703 2.81003 12.6303 2.90003C8.84028 4.29003 6.31028 7.95003 6.31028 12.01V24.91C6.31028 25.01 6.35028 25.1 6.40028 25.17C5.06028 26.85 4.01028 28.88 3.31028 31.14C3.22028 31.44 3.39028 31.75 3.68028 31.84C3.73028 31.86 3.79028 31.86 3.84028 31.86C4.08028 31.86 4.30028 31.7 4.38028 31.46C4.40028 31.4 4.42028 31.35 4.43028 31.3C5.53028 27.78 7.58028 24.88 10.2103 23.13C11.9103 24.23 13.8903 24.81 15.9203 24.81C17.9503 24.81 19.9103 24.23 21.6103 23.14C24.2303 24.9 26.2703 27.79 27.3703 31.31C27.3903 31.36 27.4103 31.42 27.4203 31.47C27.5103 31.77 27.8303 31.94 28.1203 31.84C28.4203 31.75 28.5903 31.43 28.4903 31.14V31.12L28.5103 31.13ZM14.2703 10.1C15.6403 11.85 18.4803 13.78 24.3203 14.58C23.7603 18.75 20.1703 21.94 15.9103 21.94C11.6503 21.94 7.76028 18.44 7.45028 14.05C11.6003 13.2 13.4403 11.46 14.2703 10.09V10.1ZM7.24028 24.18V17.54C7.55028 18.19 7.93028 18.79 8.36028 19.35V23.12C7.97028 23.45 7.59028 23.81 7.24028 24.18ZM10.7303 22.11C10.4103 21.9 10.0103 21.9 9.71028 22.11C9.57028 22.2 9.43028 22.3 9.29028 22.4V20.39C9.89028 20.96 10.5403 21.45 11.2703 21.85C11.1003 21.94 10.9403 22.03 10.7703 22.13C10.7703 22.13 10.7503 22.13 10.7303 22.11ZM15.9303 23.67C14.5303 23.67 13.1703 23.36 11.9203 22.78C12.1403 22.67 12.3603 22.56 12.5903 22.47C13.6303 22.87 14.7703 23.08 15.9403 23.08C17.1103 23.08 18.2403 22.86 19.2803 22.47C19.5103 22.57 19.7303 22.67 19.9503 22.78C18.7103 23.37 17.3503 23.67 15.9503 23.67H15.9303ZM21.1003 22.12L21.0603 22.14C20.9003 22.04 20.7303 21.95 20.5603 21.86C21.2803 21.46 21.9303 20.98 22.5203 20.42V22.4C22.3903 22.31 22.2503 22.21 22.1203 22.12C21.8103 21.92 21.4003 21.92 21.1003 22.12ZM4.30028 25.71V12.1C4.30028 5.44003 9.51028 0.0300293 15.9103 0.0300293C22.3103 0.0300293 27.5203 5.44003 27.5203 12.11V25.72C27.5203 26.03 27.2703 26.28 26.9603 26.28C26.6503 26.28 26.4003 26.03 26.4003 25.72V12.11C26.4003 6.07003 21.6903 1.15003 15.9103 1.15003C10.1303 1.15003 5.42028 6.07003 5.42028 12.11V25.72C5.42028 26.03 5.17028 26.28 4.86028 26.28C4.55028 26.28 4.30028 26.03 4.30028 25.72V25.71Z" fill="url(#paint0_linear_2266_3188)"/>
<defs>
<linearGradient id="paint0_linear_2266_3188" x1="5.49401" y1="0.0300278" x2="32.8253" y2="5.22265" gradientUnits="userSpaceOnUse">
<stop stop-color="#B63AB4"/>
<stop offset="1" stop-color="#513B9F"/>
</linearGradient>
</defs>
</svg>
