<svg preserveAspectRatio="none" width="100%" height="100%" overflow="visible" style="display: block;" viewBox="0 0 31.92 31.92" fill="none" xmlns="http://www.w3.org/2000/svg">
<g id="Group">
<path id="Vector" d="M15.96 8.59C18 8.59 19.84 9.42 21.18 10.75C22.52 12.08 23.34 13.93 23.34 15.97C23.34 18.01 22.51 19.85 21.18 21.19C19.85 22.53 18 23.35 15.96 23.35C13.92 23.35 12.08 22.52 10.74 21.19C9.4 19.86 8.58 18.01 8.58 15.97C8.58 13.93 9.41 12.09 10.74 10.75C12.07 9.41 13.92 8.59 15.96 8.59ZM20.47 11.45C19.32 10.3 17.72 9.58 15.96 9.58C14.2 9.58 12.6 10.29 11.45 11.45C10.3 12.6 9.58 14.2 9.58 15.96C9.58 17.72 10.29 19.32 11.45 20.47C12.6 21.62 14.2 22.34 15.96 22.34C17.72 22.34 19.32 21.63 20.47 20.47C21.62 19.32 22.34 17.72 22.34 15.96C22.34 14.2 21.63 12.6 20.47 11.45Z" fill="#B63AB4"/>
<path id="Vector_2" d="M16.24 0.5C16.24 0.22 16.02 0 15.74 0C15.46 0 15.24 0.22 15.24 0.5V5.7C15.24 5.98 15.46 6.2 15.74 6.2C16.02 6.2 16.24 5.98 16.24 5.7V0.5Z" fill="#B63AB4"/>
<path id="Vector_3" d="M23.93 2.72C24.07 2.48 23.99 2.18 23.75 2.04C23.51 1.9 23.21 1.98 23.07 2.22L20.47 6.72C20.33 6.96 20.41 7.26 20.65 7.4C20.89 7.54 21.19 7.46 21.33 7.22L23.93 2.72Z" fill="#B63AB4"/>
<path id="Vector_4" d="M29.49 8.48C29.73 8.34 29.81 8.04 29.67 7.8C29.53 7.56 29.23 7.48 28.99 7.62L24.49 10.22C24.25 10.36 24.17 10.66 24.31 10.9C24.45 11.14 24.75 11.22 24.99 11.08L29.49 8.48Z" fill="#B63AB4"/>
<path id="Vector_5" d="M31.42 16.25C31.7 16.25 31.92 16.03 31.92 15.75C31.92 15.47 31.7 15.25 31.42 15.25H26.22C25.94 15.25 25.72 15.47 25.72 15.75C25.72 16.03 25.94 16.25 26.22 16.25H31.42Z" fill="#B63AB4"/>
<path id="Vector_6" d="M29.21 23.94C29.45 24.08 29.75 24 29.89 23.76C30.03 23.52 29.95 23.22 29.71 23.08L25.21 20.48C24.97 20.34 24.67 20.42 24.53 20.66C24.39 20.9 24.47 21.2 24.71 21.34L29.21 23.94Z" fill="#B63AB4"/>
<path id="Vector_7" d="M23.44 29.49C23.58 29.73 23.88 29.81 24.12 29.67C24.36 29.53 24.44 29.23 24.3 28.99L21.7 24.49C21.56 24.25 21.26 24.17 21.02 24.31C20.78 24.45 20.7 24.75 20.84 24.99L23.44 29.49Z" fill="#B63AB4"/>
<path id="Vector_8" d="M15.67 31.42C15.67 31.7 15.89 31.92 16.17 31.92C16.45 31.92 16.67 31.7 16.67 31.42V26.22C16.67 25.94 16.45 25.72 16.17 25.72C15.89 25.72 15.67 25.94 15.67 26.22V31.42Z" fill="#B63AB4"/>
<path id="Vector_9" d="M7.98 29.21C7.84 29.45 7.92 29.75 8.16 29.89C8.4 30.03 8.7 29.95 8.84 29.71L11.44 25.21C11.58 24.97 11.5 24.67 11.26 24.53C11.02 24.39 10.72 24.47 10.58 24.71L7.98 29.21Z" fill="#B63AB4"/>
<path id="Vector_10" d="M2.43 23.45C2.19 23.59 2.11 23.89 2.25 24.13C2.39 24.37 2.69 24.45 2.93 24.31L7.43 21.71C7.67 21.57 7.75 21.27 7.61 21.03C7.47 20.79 7.17 20.71 6.93 20.85L2.43 23.45Z" fill="#B63AB4"/>
<path id="Vector_11" d="M0.5 15.68C0.22 15.68 0 15.9 0 16.18C0 16.46 0.22 16.68 0.5 16.68H5.7C5.98 16.68 6.2 16.46 6.2 16.18C6.2 15.9 5.98 15.68 5.7 15.68H0.5Z" fill="#B63AB4"/>
<path id="Vector_12" d="M2.71 7.99C2.47 7.85 2.17 7.93 2.03 8.17C1.89 8.41 1.97 8.71 2.21 8.85L6.71 11.45C6.95 11.59 7.25 11.51 7.39 11.27C7.53 11.03 7.45 10.73 7.21 10.59L2.71 7.99Z" fill="#B63AB4"/>
<path id="Vector_13" d="M8.47 2.43C8.33 2.19 8.03 2.11 7.79 2.25C7.55 2.39 7.47 2.69 7.61 2.93L10.21 7.43C10.35 7.67 10.65 7.75 10.89 7.61C11.13 7.47 11.21 7.17 11.07 6.93L8.47 2.43Z" fill="#B63AB4"/>
</g>
</svg>
