<svg width="32" height="32" viewBox="0 0 32 32" fill="none" xmlns="http://www.w3.org/2000/svg">
<g clip-path="url(#clip0_2266_1852)">
<path d="M23.7498 -0.00976562H9.55977C9.55977 -0.00976562 9.47976 -0.00976562 9.44977 0.000234375C4.22977 0.0602344 0.00976562 4.32023 0.00976562 9.54023C0.00976562 9.69023 0.00976562 9.87023 0.0397656 10.0502V31.4502C0.0397656 31.4502 0.0397656 31.4502 0.0397656 31.4702C0.0397656 31.4902 0.0397656 31.5102 0.0397656 31.5302C0.0397656 31.5502 0.0397656 31.5602 0.0397656 31.5802C0.0397656 31.6002 0.0397656 31.6102 0.0497656 31.6302C0.0497656 31.6502 0.0597656 31.6702 0.0697656 31.6802C0.0697656 31.6802 0.0697656 31.6802 0.0697656 31.6902C0.0697656 31.6902 0.0697656 31.6902 0.0797656 31.7102C0.0997656 31.7402 0.119766 31.7702 0.139766 31.8002C0.139766 31.8002 0.149766 31.8102 0.159766 31.8202C0.189766 31.8502 0.219766 31.8802 0.259766 31.9002C0.259766 31.9002 0.279766 31.9002 0.289766 31.9102C0.319766 31.9302 0.349766 31.9402 0.379766 31.9502C0.389766 31.9502 0.399766 31.9502 0.409766 31.9502C0.449766 31.9502 0.489766 31.9702 0.529766 31.9702C0.529766 31.9702 0.529766 31.9702 0.539766 31.9702C0.569766 31.9702 0.609766 31.9702 0.639766 31.9602C0.639766 31.9602 0.659766 31.9602 0.669766 31.9602C0.699766 31.9602 0.719766 31.9402 0.749766 31.9302C0.749766 31.9302 0.749766 31.9302 0.759766 31.9302L3.09977 30.7602L5.43977 31.9302C5.43977 31.9302 5.47977 31.9402 5.49977 31.9502C5.50977 31.9502 5.52977 31.9602 5.53977 31.9602C5.57977 31.9702 5.62977 31.9802 5.66977 31.9802C5.66977 31.9802 5.75977 31.9802 5.79977 31.9602C5.80977 31.9602 5.82977 31.9602 5.83977 31.9502C5.85977 31.9502 5.87977 31.9402 5.89977 31.9302L8.23977 30.7602L10.5798 31.9302C10.5798 31.9302 10.6198 31.9402 10.6398 31.9502C10.6498 31.9502 10.6698 31.9602 10.6798 31.9602C10.7198 31.9702 10.7698 31.9802 10.8098 31.9802C10.8098 31.9802 10.8998 31.9802 10.9398 31.9602C10.9498 31.9602 10.9698 31.9602 10.9798 31.9502C10.9998 31.9502 11.0198 31.9402 11.0398 31.9302L13.3798 30.7602L15.7198 31.9302H15.7398C15.7498 31.9302 15.7698 31.9302 15.7798 31.9402C15.7998 31.9402 15.8198 31.9502 15.8398 31.9602C15.8598 31.9602 15.8798 31.9602 15.8998 31.9602C15.9098 31.9602 15.9298 31.9602 15.9398 31.9602C15.9798 31.9602 16.0298 31.9602 16.0698 31.9402C16.0698 31.9402 16.0698 31.9402 16.0798 31.9402C16.2898 31.8802 16.4498 31.6802 16.4498 31.4502V16.5002H23.6598C28.2098 16.5002 31.9098 12.8002 31.9098 8.24023C31.9098 3.68023 28.2898 -0.00976562 23.7498 -0.00976562ZM9.54977 1.03023C9.54977 1.03023 9.61977 1.03023 9.64977 1.03023H19.7598C17.2198 2.44023 15.4998 5.15023 15.4998 8.25023C15.4998 8.30023 15.4998 8.36023 15.4998 8.41023V30.6302L13.6698 29.7102C13.6698 29.7102 13.6498 29.7102 13.6398 29.7002C13.6198 29.7002 13.6098 29.6902 13.5898 29.6802C13.5698 29.6802 13.5598 29.6802 13.5398 29.6702C13.5198 29.6702 13.5098 29.6702 13.4898 29.6702C13.4698 29.6702 13.4598 29.6702 13.4398 29.6702C13.4198 29.6702 13.3998 29.6702 13.3898 29.6702C13.3798 29.6702 13.3598 29.6702 13.3498 29.6702C13.3298 29.6702 13.3098 29.6702 13.2898 29.6802C13.2798 29.6802 13.2598 29.6902 13.2498 29.7002C13.2398 29.7002 13.2198 29.7002 13.2098 29.7102L10.8698 30.8802L8.52977 29.7102C8.52977 29.7102 8.50977 29.7102 8.49977 29.7002C8.47976 29.7002 8.46977 29.6902 8.44977 29.6802C8.42976 29.6802 8.41977 29.6802 8.39977 29.6702C8.37976 29.6702 8.36977 29.6702 8.34977 29.6702C8.32977 29.6702 8.31977 29.6702 8.29977 29.6702C8.27977 29.6702 8.25977 29.6702 8.24977 29.6702C8.23977 29.6702 8.21977 29.6702 8.20977 29.6702C8.18976 29.6702 8.16977 29.6702 8.15977 29.6802C8.14977 29.6802 8.12977 29.6902 8.11977 29.7002C8.10977 29.7002 8.09977 29.7002 8.07977 29.7102L5.73977 30.8802L3.39977 29.7102C3.39977 29.7102 3.37977 29.7102 3.36977 29.7002C3.34977 29.7002 3.33977 29.6902 3.31977 29.6802C3.29977 29.6702 3.28977 29.6802 3.26977 29.6702C3.24977 29.6702 3.23977 29.6702 3.21977 29.6702C3.19977 29.6702 3.18977 29.6702 3.16977 29.6702C3.14977 29.6702 3.12977 29.6702 3.11977 29.6702C3.10977 29.6702 3.08977 29.6702 3.07977 29.6702C3.05977 29.6702 3.03977 29.6702 3.01977 29.6802C3.00977 29.6802 2.98977 29.6902 2.97977 29.7002C2.96977 29.7002 2.94977 29.7002 2.93977 29.7102L1.10977 30.6202V9.54023C1.10977 9.49023 1.10977 9.44024 1.08977 9.39023C1.12977 4.77024 4.90977 1.03023 9.54977 1.03023ZM16.5298 15.4702V12.2502C17.2798 13.6002 18.3998 14.7202 19.7598 15.4702H16.5298ZM23.7498 15.4702C19.7998 15.4702 16.5798 12.2702 16.5398 8.33023V8.25023C16.5398 8.25023 16.5398 8.23024 16.5398 8.22023C16.5498 4.25023 19.7898 1.02023 23.7598 1.02023C27.7298 1.02023 30.9798 4.26023 30.9798 8.24023C30.9798 12.2202 27.7398 15.4602 23.7598 15.4602L23.7498 15.4702Z" fill="url(#paint0_linear_2266_1852)"/>
<path d="M23.7498 6.00977C22.5198 6.00977 21.5098 7.00977 21.5098 8.24977C21.5098 9.48977 22.5098 10.4898 23.7498 10.4898C24.9898 10.4898 25.9898 9.48977 25.9898 8.24977C25.9898 7.00977 24.9898 6.00977 23.7498 6.00977ZM23.7498 9.44977C23.0898 9.44977 22.5498 8.90977 22.5498 8.24977C22.5498 7.58977 23.0898 7.04977 23.7498 7.04977C24.4098 7.04977 24.9498 7.58977 24.9498 8.24977C24.9498 8.90977 24.4098 9.44977 23.7498 9.44977Z" fill="url(#paint1_linear_2266_1852)"/>
</g>
<defs>
<linearGradient id="paint0_linear_2266_1852" x1="2.80102" y1="-0.00976709" x2="36.6659" y2="8.08568" gradientUnits="userSpaceOnUse">
<stop stop-color="#B63AB4"/>
<stop offset="1" stop-color="#513B9F"/>
</linearGradient>
<linearGradient id="paint1_linear_2266_1852" x1="21.9018" y1="6.00977" x2="26.6563" y2="7.14954" gradientUnits="userSpaceOnUse">
<stop stop-color="#B63AB4"/>
<stop offset="1" stop-color="#513B9F"/>
</linearGradient>
<clipPath id="clip0_2266_1852">
<rect width="32" height="32" fill="white"/>
</clipPath>
</defs>
</svg>
