<svg preserveAspectRatio="none" width="100%" height="100%" overflow="visible" style="display: block;" viewBox="0 0 16.86 31.76" fill="none" xmlns="http://www.w3.org/2000/svg">
<g id="Group">
<path id="Vector" d="M0.64 31.75H16.21C16.57 31.75 16.86 31.46 16.86 31.1V4.58C16.86 4.22 16.57 3.93 16.21 3.93H11.89V0.65C11.89 0.29 11.6 0 11.24 0H5.62C5.26 0 4.97 0.29 4.97 0.65V3.93H0.65C0.29 3.93 0 4.22 0 4.58V31.11C0 31.47 0.29 31.76 0.65 31.76L0.64 31.75ZM6.26 1.3H10.58V3.93H6.26V1.3ZM1.29 5.23H15.56V30.46H1.29V5.23Z" fill="#B63AB4"/>
<path id="Vector_2" d="M14.1 12.19H2.75C2.39 12.19 2.1 12.48 2.1 12.84V16.79C2.1 17.15 2.39 17.44 2.75 17.44H14.1C14.46 17.44 14.75 17.15 14.75 16.79V12.84C14.75 12.48 14.46 12.19 14.1 12.19ZM13.45 16.14H3.39V13.49H13.45V16.14Z" fill="#B63AB4"/>
<path id="Vector_3" d="M14.1 18.25H2.75C2.39 18.25 2.1 18.54 2.1 18.9V22.85C2.1 23.21 2.39 23.5 2.75 23.5H14.1C14.46 23.5 14.75 23.21 14.75 22.85V18.9C14.75 18.54 14.46 18.25 14.1 18.25ZM13.45 22.19H3.39V19.54H13.45V22.19Z" fill="#B63AB4"/>
<path id="Vector_4" d="M14.1 24.3H2.75C2.39 24.3 2.1 24.59 2.1 24.95V28.9C2.1 29.26 2.39 29.55 2.75 29.55H14.1C14.46 29.55 14.75 29.26 14.75 28.9V24.95C14.75 24.59 14.46 24.3 14.1 24.3ZM13.45 28.25H3.39V25.6H13.45V28.25Z" fill="#B63AB4"/>
</g>
</svg>
