<svg width="32" height="32" viewBox="0 0 32 32" fill="none" xmlns="http://www.w3.org/2000/svg">
<path d="M29.75 13.5H2.25V9.125C2.25 4.64502 5.89502 1 10.375 1H21.625C26.105 1 29.75 4.64502 29.75 9.125V13.5ZM3.5 12.25H28.5V9.125C28.5 5.33411 25.4159 2.25 21.625 2.25H10.375C6.58411 2.25 3.5 5.33411 3.5 9.125V12.25Z" fill="url(#paint0_linear_2266_1717)"/>
<path d="M24.125 31H7.875C4.77319 31 2.25 28.4768 2.25 25.375V22.875H29.75V25.375C29.75 28.4768 27.2268 31 24.125 31ZM3.5 24.125V25.375C3.5 27.7871 5.46289 29.75 7.875 29.75H24.125C26.5371 29.75 28.5 27.7871 28.5 25.375V24.125H3.5Z" fill="url(#paint1_linear_2266_1717)"/>
<path d="M28.8125 16.625H3.1875C1.98145 16.625 1 15.6436 1 14.4375C1 13.2314 1.98145 12.25 3.1875 12.25H28.8125C30.0186 12.25 31 13.2314 31 14.4375C31 15.6436 30.0186 16.625 28.8125 16.625ZM3.1875 13.5C2.67053 13.5 2.25 13.9205 2.25 14.4375C2.25 14.9545 2.67053 15.375 3.1875 15.375H28.8125C29.3295 15.375 29.75 14.9545 29.75 14.4375C29.75 13.9205 29.3295 13.5 28.8125 13.5H3.1875Z" fill="url(#paint2_linear_2266_1717)"/>
<path d="M28.8125 24.2041H3.1875C1.98145 24.2041 1 23.2227 1 22.0166C1 20.8105 1.98145 19.8291 3.1875 19.8291H28.8125C30.0186 19.8291 31 20.8105 31 22.0166C31 23.2227 30.0186 24.2041 28.8125 24.2041ZM3.1875 21.0791C2.67053 21.0791 2.25 21.4996 2.25 22.0166C2.25 22.5336 2.67053 22.9541 3.1875 22.9541H28.8125C29.3295 22.9541 29.75 22.5336 29.75 22.0166C29.75 21.4996 29.3295 21.0791 28.8125 21.0791H3.1875Z" fill="url(#paint3_linear_2266_1717)"/>
<path d="M26.9375 21H5.0625C3.5116 21 2.25 19.7384 2.25 18.1875C2.25 16.6366 3.5116 15.375 5.0625 15.375H26.9375C28.4884 15.375 29.75 16.6366 29.75 18.1875C29.75 19.7384 28.4884 21 26.9375 21ZM5.0625 16.625C4.20068 16.625 3.5 17.3257 3.5 18.1875C3.5 19.0493 4.20068 19.75 5.0625 19.75H26.9375C27.7993 19.75 28.5 19.0493 28.5 18.1875C28.5 17.3257 27.7993 16.625 26.9375 16.625H5.0625Z" fill="url(#paint4_linear_2266_1717)"/>
<path d="M9.24805 7.69189C9.08813 7.69189 8.92822 7.63086 8.80615 7.50879C8.56201 7.26465 8.56201 6.86914 8.80615 6.625L9.68994 5.74121C9.93408 5.49707 10.3296 5.49707 10.5737 5.74121C10.8179 5.98535 10.8179 6.38086 10.5737 6.625L9.68994 7.50879C9.56787 7.63086 9.40796 7.69189 9.24805 7.69189Z" fill="url(#paint5_linear_2266_1717)"/>
<path d="M24.9512 10.8169C24.7913 10.8169 24.6313 10.7559 24.5093 10.6338C24.2651 10.3896 24.2651 9.99414 24.5093 9.75L25.3931 8.86621C25.6372 8.62207 26.0327 8.62207 26.2769 8.86621C26.521 9.11035 26.521 9.50586 26.2769 9.75L25.3931 10.6338C25.271 10.7559 25.1111 10.8169 24.9512 10.8169Z" fill="url(#paint6_linear_2266_1717)"/>
<path d="M7.04883 10.8169C6.88892 10.8169 6.729 10.7559 6.60693 10.6338L5.72314 9.75C5.479 9.50586 5.479 9.11035 5.72314 8.86621C5.96729 8.62207 6.36279 8.62207 6.60693 8.86621L7.49072 9.75C7.73486 9.99414 7.73486 10.3896 7.49072 10.6338C7.36865 10.7559 7.20874 10.8169 7.04883 10.8169Z" fill="url(#paint7_linear_2266_1717)"/>
<path d="M22.7529 7.69189C22.593 7.69189 22.4331 7.63086 22.311 7.50879L21.4272 6.625C21.1831 6.38086 21.1831 5.98535 21.4272 5.74121C21.6714 5.49707 22.0669 5.49707 22.311 5.74121L23.1948 6.625C23.439 6.86914 23.439 7.26465 23.1948 7.50879C23.0728 7.63086 22.9128 7.69189 22.7529 7.69189Z" fill="url(#paint8_linear_2266_1717)"/>
<path d="M13.6289 10.1919C13.469 10.1919 13.3091 10.1309 13.187 10.0088L12.3032 9.125C12.0591 8.88086 12.0591 8.48535 12.3032 8.24121C12.5474 7.99707 12.9429 7.99707 13.187 8.24121L14.0708 9.125C14.3149 9.36914 14.3149 9.76465 14.0708 10.0088C13.9487 10.1309 13.7888 10.1919 13.6289 10.1919Z" fill="url(#paint9_linear_2266_1717)"/>
<path d="M19.2539 10.1919C19.094 10.1919 18.9341 10.1309 18.812 10.0088L17.9282 9.125C17.6841 8.88086 17.6841 8.48535 17.9282 8.24121C18.1724 7.99707 18.5679 7.99707 18.812 8.24121L19.6958 9.125C19.9399 9.36914 19.9399 9.76465 19.6958 10.0088C19.5737 10.1309 19.4138 10.1919 19.2539 10.1919Z" fill="url(#paint10_linear_2266_1717)"/>
<path d="M16.625 4.56006H15.375C15.0295 4.56006 14.75 4.28052 14.75 3.93506C14.75 3.5896 15.0295 3.31006 15.375 3.31006H16.625C16.9705 3.31006 17.25 3.5896 17.25 3.93506C17.25 4.28052 16.9705 4.56006 16.625 4.56006Z" fill="url(#paint11_linear_2266_1717)"/>
<defs>
<linearGradient id="paint0_linear_2266_1717" x1="4.65625" y1="0.999999" x2="28.8022" y2="13.7345" gradientUnits="userSpaceOnUse">
<stop stop-color="#B63AB4"/>
<stop offset="1" stop-color="#513B9F"/>
</linearGradient>
<linearGradient id="paint1_linear_2266_1717" x1="4.65625" y1="22.875" x2="23.2665" y2="37.975" gradientUnits="userSpaceOnUse">
<stop stop-color="#B63AB4"/>
<stop offset="1" stop-color="#513B9F"/>
</linearGradient>
<linearGradient id="paint2_linear_2266_1717" x1="3.625" y1="12.25" x2="12.719" y2="27.1991" gradientUnits="userSpaceOnUse">
<stop stop-color="#B63AB4"/>
<stop offset="1" stop-color="#513B9F"/>
</linearGradient>
<linearGradient id="paint3_linear_2266_1717" x1="3.625" y1="19.8291" x2="12.719" y2="34.7782" gradientUnits="userSpaceOnUse">
<stop stop-color="#B63AB4"/>
<stop offset="1" stop-color="#513B9F"/>
</linearGradient>
<linearGradient id="paint4_linear_2266_1717" x1="4.65625" y1="15.375" x2="17.6587" y2="30.6138" gradientUnits="userSpaceOnUse">
<stop stop-color="#B63AB4"/>
<stop offset="1" stop-color="#513B9F"/>
</linearGradient>
<linearGradient id="paint5_linear_2266_1717" x1="8.80975" y1="5.55811" x2="11.0743" y2="6.10097" gradientUnits="userSpaceOnUse">
<stop stop-color="#B63AB4"/>
<stop offset="1" stop-color="#513B9F"/>
</linearGradient>
<linearGradient id="paint6_linear_2266_1717" x1="24.5129" y1="8.68311" x2="26.7774" y2="9.22597" gradientUnits="userSpaceOnUse">
<stop stop-color="#B63AB4"/>
<stop offset="1" stop-color="#513B9F"/>
</linearGradient>
<linearGradient id="paint7_linear_2266_1717" x1="5.72675" y1="8.68311" x2="7.99127" y2="9.22597" gradientUnits="userSpaceOnUse">
<stop stop-color="#B63AB4"/>
<stop offset="1" stop-color="#513B9F"/>
</linearGradient>
<linearGradient id="paint8_linear_2266_1717" x1="21.4308" y1="5.55811" x2="23.6954" y2="6.10097" gradientUnits="userSpaceOnUse">
<stop stop-color="#B63AB4"/>
<stop offset="1" stop-color="#513B9F"/>
</linearGradient>
<linearGradient id="paint9_linear_2266_1717" x1="12.3068" y1="8.05811" x2="14.5714" y2="8.60097" gradientUnits="userSpaceOnUse">
<stop stop-color="#B63AB4"/>
<stop offset="1" stop-color="#513B9F"/>
</linearGradient>
<linearGradient id="paint10_linear_2266_1717" x1="17.9318" y1="8.05811" x2="20.1964" y2="8.60097" gradientUnits="userSpaceOnUse">
<stop stop-color="#B63AB4"/>
<stop offset="1" stop-color="#513B9F"/>
</linearGradient>
<linearGradient id="paint11_linear_2266_1717" x1="14.9687" y1="3.31006" x2="17.25" y2="4.40381" gradientUnits="userSpaceOnUse">
<stop stop-color="#B63AB4"/>
<stop offset="1" stop-color="#513B9F"/>
</linearGradient>
</defs>
</svg>
