<svg preserveAspectRatio="none" width="100%" height="100%" overflow="visible" style="display: block;" viewBox="0 0 138.785 216.9" fill="none" xmlns="http://www.w3.org/2000/svg">
<g id="Group 4">
<path id="Vector 1" d="M118.261 52.7023L131.944 2.563e-05C119.275 21.0303 91.3873 0.796928 64.0389 1.77366C42.7554 2.53379 31.4378 12.4155 27.5527 18.2431C13.8704 40.7936 19.5575 53.5628 33.3804 67.6515C46.556 81.0804 73.9206 96.0296 89.6299 115.793C102.197 131.604 95.2886 152.448 90.39 160.387C101.032 155.826 104.326 130.489 102.299 118.833C101.792 110.219 92.8224 89.0871 64.0389 68.4116C35.2554 47.7361 32.4513 31.4187 34.6472 25.8444C39.4614 0.760154 72.9347 1.49938 90.8968 9.8817C113.701 20.5235 117.586 41.047 118.261 52.7023Z" fill="url(#paint0_linear_2195_1648)"/>
<path id="Vector 2" d="M80.2962 181.623C80.4752 181.403 80.2524 181.368 80.2549 181.163C80.5083 160.386 67.5861 148.985 64.5456 145.437C61.5051 141.89 54.1572 135.302 36.1675 121.62C21.7757 110.674 10.5765 95.0998 6.77582 88.681C-7.21054 61.7217 7.0292 34.0362 15.8974 23.5633C12.6879 29.5599 7.07988 44.7962 10.3231 57.7691C14.3771 73.9851 37.6877 91.9749 40.9816 95.5221C44.2755 99.0694 74.4273 117.059 83.5488 142.397C90.8219 162.6 84.4361 176.93 80.2962 181.623C80.2843 181.638 80.2706 181.654 80.2549 181.67C80.2686 181.655 80.2825 181.639 80.2962 181.623Z" fill="url(#paint1_linear_2195_1648)"/>
<path id="Vector 3" d="M2.21515 193.579C-7.41314 169.255 17.4177 152.025 18.1779 151.519C12.5023 157.802 8.98615 171.535 8.80291 177.87C8.55858 186.316 13.284 205.032 34.1405 212.329C54.997 219.626 71.7156 203.883 77.4679 195.099C67.1301 214.356 49.1067 216.681 40.9817 216.89C31.1 217.143 9.91779 213.038 2.21515 193.579Z" fill="url(#paint2_linear_2195_1648)"/>
<path id="Vector 4" d="M94.4443 165.708C85.5255 181.113 85.3228 202.954 85.5762 213.342C87.0964 208.275 99.38 178.021 103.181 170.927C116.157 146.704 128.312 134.356 138.785 119.491C129.157 124.305 103.363 150.302 94.4443 165.708Z" fill="url(#paint3_linear_2195_1648)"/>
</g>
<defs>
<linearGradient id="paint0_linear_2195_1648" x1="75.828" y1="2.563e-05" x2="75.828" y2="160.387" gradientUnits="userSpaceOnUse">
<stop stop-color="#F7F0ED"/>
<stop offset="1" stop-color="#5C4A3B"/>
</linearGradient>
<linearGradient id="paint1_linear_2195_1648" x1="43.8801" y1="23.5633" x2="43.8801" y2="181.67" gradientUnits="userSpaceOnUse">
<stop stop-color="#F7F0ED"/>
<stop offset="1" stop-color="#5C4A3B"/>
</linearGradient>
<linearGradient id="paint2_linear_2195_1648" x1="38.7339" y1="151.519" x2="38.7339" y2="216.9" gradientUnits="userSpaceOnUse">
<stop stop-color="#F7F0ED"/>
<stop offset="1" stop-color="#5C4A3B"/>
</linearGradient>
<linearGradient id="paint3_linear_2195_1648" x1="112.152" y1="119.491" x2="112.152" y2="213.342" gradientUnits="userSpaceOnUse">
<stop stop-color="#F7F0ED"/>
<stop offset="1" stop-color="#5C4A3B"/>
</linearGradient>
</defs>
</svg>
