<svg width="32" height="32" viewBox="0 0 32 32" fill="none" xmlns="http://www.w3.org/2000/svg">
<g clip-path="url(#clip0_2266_1810)">
<path d="M6.12957 15.1898H11.1296C11.5196 15.1898 11.8396 15.5098 11.8396 15.8998C11.8396 16.2898 11.5196 16.6098 11.1296 16.6098H6.12957C5.73957 16.6098 5.41957 16.2898 5.41957 15.8998C5.41957 15.5098 5.73957 15.1898 6.12957 15.1898ZM21.1196 16.6198H26.1196C26.5096 16.6198 26.8296 16.2998 26.8296 15.9098C26.8296 15.5198 26.5096 15.1998 26.1196 15.1998H21.1196C20.7296 15.1998 20.4096 15.5198 20.4096 15.9098C20.4096 16.2998 20.7296 16.6198 21.1196 16.6198ZM16.1196 -0.150156C13.6196 -0.150156 11.2696 0.419844 9.15957 1.45984C9.44957 2.24984 10.1196 2.81984 10.9396 3.02984C12.5496 2.34984 14.2896 1.99984 16.1096 1.99984C23.7796 1.99984 30.0296 8.23984 30.0296 15.9198C30.0296 23.5998 23.7896 29.8398 16.1096 29.8398C8.42957 29.8398 2.20957 23.5798 2.20957 15.9098C2.20957 14.0898 2.56957 12.3398 3.20957 10.7398C3.02957 9.91984 2.41957 9.23984 1.63957 8.95984C0.63957 11.0498 0.0695703 13.4098 0.0695703 15.9098C0.0695703 24.7598 7.26957 31.9598 16.1196 31.9598C24.9696 31.9598 32.1796 24.7498 32.1796 15.8998C32.1796 7.04984 24.9696 -0.150156 16.1196 -0.150156ZM12.1996 21.9698C11.8096 21.9698 11.4896 22.2898 11.4896 22.6798C11.4896 23.0698 11.8096 23.3898 12.1996 23.3898H20.0496C20.4396 23.3898 20.7596 23.0698 20.7596 22.6798C20.7596 22.2898 20.4396 21.9698 20.0496 21.9698H12.1996ZM0.77957 5.55984C1.23957 5.55984 1.70957 5.48984 2.13957 5.37984C3.77957 4.91984 5.09957 3.59984 5.56957 1.94984C5.70957 1.48984 5.77957 1.01984 5.77957 0.559844C5.77957 0.349844 5.66957 0.129844 5.52957 0.0198437C5.38957 -0.0901563 5.23957 -0.160156 5.06957 -0.160156C4.67957 -0.160156 4.35957 0.159844 4.35957 0.549844C4.35957 2.50984 2.74957 4.11984 0.78957 4.11984C0.39957 4.11984 0.0795703 4.43984 0.0795703 4.82984C0.0795703 5.00984 0.14957 5.14984 0.25957 5.28984C0.36957 5.42984 0.57957 5.53984 0.79957 5.53984L0.77957 5.55984ZM0.77957 7.69984C2.73957 7.69984 4.34957 9.30984 4.34957 11.2698C4.34957 11.6598 4.66957 11.9798 5.05957 11.9798C5.23957 11.9798 5.37957 11.9098 5.51957 11.7998C5.65957 11.6598 5.76957 11.4798 5.76957 11.2598C5.76957 10.7998 5.69957 10.3298 5.58957 9.89984C4.97957 7.78984 3.05957 6.25984 0.76957 6.25984C0.37957 6.25984 0.0595703 6.57984 0.0595703 6.96984C0.0595703 7.35984 0.37957 7.67984 0.76957 7.67984L0.77957 7.69984ZM10.1296 5.37984C10.5596 5.48984 11.0196 5.55984 11.4896 5.55984C11.6996 5.55984 11.9196 5.44984 12.0296 5.30984C12.1396 5.19984 12.2096 5.01984 12.2096 4.84984C12.2096 4.45984 11.8896 4.13984 11.4996 4.13984C9.53957 4.13984 7.92957 2.52984 7.92957 0.569844C7.92957 0.179844 7.60957 -0.140156 7.21957 -0.140156C6.82957 -0.140156 6.50957 0.179844 6.50957 0.569844C6.50957 2.84984 8.03957 4.77984 10.1496 5.38984L10.1296 5.37984ZM7.19957 11.9798C7.58957 11.9798 7.90957 11.6598 7.90957 11.2698C7.90957 9.30984 9.51957 7.69984 11.4796 7.69984C11.8696 7.69984 12.1896 7.37984 12.1896 6.98984C12.1896 6.59984 11.8696 6.27984 11.4796 6.27984C8.72957 6.27984 6.47957 8.52984 6.47957 11.2798C6.47957 11.6698 6.79957 11.9898 7.18957 11.9898L7.19957 11.9798Z" fill="url(#paint0_linear_2266_1810)"/>
</g>
<defs>
<linearGradient id="paint0_linear_2266_1810" x1="2.87007" y1="-0.160158" x2="36.9581" y2="8.01162" gradientUnits="userSpaceOnUse">
<stop stop-color="#B63AB4"/>
<stop offset="1" stop-color="#513B9F"/>
</linearGradient>
<clipPath id="clip0_2266_1810">
<rect width="32" height="32" fill="white"/>
</clipPath>
</defs>
</svg>
