<svg width="32" height="32" viewBox="0 0 32 32" fill="none" xmlns="http://www.w3.org/2000/svg">
<g clip-path="url(#clip0_2266_1900)">
<path d="M4.43996 17.4002V15.7202C4.43996 15.7202 4.43996 15.7102 4.43996 15.7002V9.41023C4.43996 9.14023 4.65996 8.93023 4.91996 8.93023C5.17996 8.93023 5.39996 9.15023 5.39996 9.41023V14.9802L7.81996 13.9402V11.3502C7.81996 11.0802 8.03996 10.8702 8.29996 10.8702C8.55996 10.8702 8.77996 11.0902 8.77996 11.3502V14.2602C8.77996 14.4502 8.65996 14.6302 8.48996 14.7102L5.38996 16.0402V18.1302C5.38996 18.1302 5.38996 18.1402 5.38996 18.1502V20.6302L10.51 18.1902C10.6 18.1502 10.7 18.1302 10.8 18.1502C10.8 18.1502 10.8 18.1502 10.81 18.1502C10.81 18.1502 10.81 18.1502 10.82 18.1502C10.87 18.1602 10.91 18.1802 10.95 18.2002L15.57 20.6302C15.78 17.3402 18.52 14.7402 21.86 14.7402C25.2 14.7402 28.16 17.5602 28.16 21.0402V21.4302L31.75 23.0302C31.99 23.1402 32.1 23.4302 32 23.6702C31.9 23.9102 31.6 24.0202 31.36 23.9202L23.22 20.3002L22.87 22.7702L24.58 24.0502C24.74 24.1702 24.81 24.3702 24.76 24.5602L24.28 26.5002C24.22 26.7602 23.95 26.9202 23.69 26.8502C23.43 26.7902 23.27 26.5202 23.34 26.2602L23.75 24.6302L22.07 23.3702C21.93 23.2602 21.86 23.0902 21.88 22.9102L22.26 20.2702L17.63 21.7002L20.17 23.0402C20.41 23.1602 20.5 23.4602 20.37 23.6902C20.25 23.9302 19.95 24.0202 19.72 23.8902L11.1 19.3602L10.76 21.4002L12.09 23.1702C12.17 23.2802 12.2 23.4202 12.18 23.5602L11.7 25.9802C11.65 26.2402 11.39 26.4102 11.13 26.3602C10.87 26.3102 10.7 26.0502 10.75 25.7902L11.19 23.5802L9.86996 21.8102C9.78996 21.7002 9.75996 21.5702 9.77996 21.4402L10.11 19.4502L5.40996 21.6902V25.8802C5.40996 26.1502 5.18996 26.3602 4.92996 26.3602C4.66996 26.3602 4.44996 26.1402 4.44996 25.8802V22.1502L0.779957 23.9002C0.539957 24.0202 0.249957 23.9102 0.129957 23.6702C0.00995731 23.4302 0.119957 23.1402 0.359957 23.0202L4.44996 21.0702V18.4402L1.34996 17.1102C1.16996 17.0302 1.05996 16.8602 1.05996 16.6602V12.3002C1.05996 12.0302 1.27996 11.8202 1.53996 11.8202C1.79996 11.8202 2.01996 12.0402 2.01996 12.3002V16.3402L4.43996 17.3802V17.4002ZM21.88 15.7102C18.94 15.7102 16.55 18.1002 16.55 21.0102L22.71 19.1302C22.82 19.1002 22.94 19.1002 23.05 19.1502L27.21 21.0002C27.19 18.0802 24.81 15.7102 21.88 15.7102ZM21.4 7.47023C21.4 7.20023 21.62 6.99023 21.88 6.99023C22.14 6.99023 22.36 7.21023 22.36 7.47023V11.3502C22.36 11.6202 22.14 11.8302 21.88 11.8302C21.62 11.8302 21.4 11.6102 21.4 11.3502V7.47023ZM31.82 11.7902L29.08 14.5302C28.62 14.9902 27.94 14.3002 28.39 13.8402L31.13 11.1002C31.59 10.6402 32.27 11.3302 31.82 11.7902ZM12.63 11.1002L15.37 13.8402C15.83 14.3002 15.14 14.9802 14.68 14.5302L11.94 11.7902C11.48 11.3302 12.17 10.6502 12.63 11.1002Z" fill="url(#paint0_linear_2266_1900)"/>
</g>
<defs>
<linearGradient id="paint0_linear_2266_1900" x1="2.87719" y1="6.99023" x2="34.1017" y2="19.0245" gradientUnits="userSpaceOnUse">
<stop stop-color="#B63AB4"/>
<stop offset="1" stop-color="#513B9F"/>
</linearGradient>
<clipPath id="clip0_2266_1900">
<rect width="32" height="32" fill="white"/>
</clipPath>
</defs>
</svg>
