<svg preserveAspectRatio="none" width="100%" height="100%" overflow="visible" style="display: block;" viewBox="0 0 32 32" fill="none" xmlns="http://www.w3.org/2000/svg">
<g id="Group">
<path id="Vector" d="M27.3655 4.63448C33.5448 10.9241 33.5448 21.0759 27.3655 27.3655C21.0759 33.5448 10.9241 33.5448 4.63448 27.3655C-1.54483 21.0759 -1.54483 10.9241 4.63448 4.63448C10.9241 -1.54483 21.0759 -1.54483 27.3655 4.63448ZM26.2621 5.73793C20.6345 0.110345 11.3655 0.110345 5.73793 5.73793C0.110345 11.3655 0.110345 20.6345 5.73793 26.2621C11.3655 32 20.6345 32 26.2621 26.2621C32 20.6345 32 11.3655 26.2621 5.73793Z" fill="#B63AB4"/>
<path id="Vector_2" d="M8.71724 8.49655L12.1379 11.8069L8.71724 15.2276L7.61379 14.2345L10.0414 11.8069L7.72414 9.48965L8.71724 8.49655Z" fill="#B63AB4"/>
<path id="Vector_3" d="M23.2828 8.49655L19.8621 11.8069L23.2828 15.2276L24.3862 14.2345L21.9586 11.8069L24.2759 9.48965L23.2828 8.49655Z" fill="#B63AB4"/>
<path id="Vector_4" d="M16 24.0552C17.3407 24.0552 18.4276 22.9683 18.4276 21.6276C18.4276 20.2869 17.3407 19.2 16 19.2C14.6593 19.2 13.5724 20.2869 13.5724 21.6276C13.5724 22.9683 14.6593 24.0552 16 24.0552Z" fill="#B63AB4"/>
</g>
</svg>
