<svg preserveAspectRatio="none" width="100%" height="100%" overflow="visible" style="display: block;" viewBox="0 0 32 32" fill="none" xmlns="http://www.w3.org/2000/svg">
<g id="Group">
<path id="Vector" d="M27.3655 4.63448C33.5448 10.9241 33.5448 21.0759 27.3655 27.3655C21.0759 33.5448 10.9241 33.5448 4.63448 27.3655C-1.54483 21.0759 -1.54483 10.9241 4.63448 4.63448C10.9241 -1.54483 21.0759 -1.54483 27.3655 4.63448ZM26.2621 5.73793C20.6345 0.110345 11.3655 0.110345 5.73793 5.73793C0.110345 11.3655 0.110345 20.6345 5.73793 26.2621C11.3655 32 20.6345 32 26.2621 26.2621C32 20.6345 32 11.3655 26.2621 5.73793Z" fill="#B63AB4"/>
<path id="Vector_2" d="M13.2414 10.9241L9.93103 14.3448L6.51034 10.9241L7.50345 9.82069L9.93103 12.2483L12.2483 9.93103L13.2414 10.9241Z" fill="#B63AB4"/>
<path id="Vector_3" d="M18.7586 10.9241L22.069 14.3448L25.4897 10.9241L24.4966 9.82069L22.069 12.2483L19.7517 9.93103L18.7586 10.9241Z" fill="#B63AB4"/>
<path id="Vector_4" d="M9.15862 21.0759C8.71724 21.9586 9.93104 22.6207 10.4828 21.8483C10.7035 21.4069 11.0345 20.9655 11.4759 20.7448C12.3586 20.1931 13.4621 20.1931 14.3448 20.7448C14.7862 20.9655 15.1172 21.4069 15.3379 21.8483C15.669 22.2897 16.331 22.2897 16.6621 21.8483C16.8828 21.4069 17.2138 20.9655 17.6552 20.7448C18.5379 20.1931 19.6414 20.1931 20.5241 20.7448C20.9655 20.9655 21.2966 21.4069 21.5172 21.8483C22.069 22.6207 23.2828 21.9586 22.8414 21.0759C22.5103 20.4138 21.9586 19.8621 21.2966 19.531C19.9724 18.6483 18.3172 18.6483 16.8828 19.531C16.5517 19.6414 16.331 19.9724 16 20.1931C15.7793 19.9724 15.4483 19.6414 15.1172 19.531C13.7931 18.6483 12.0276 18.6483 10.7035 19.531C10.0414 19.8621 9.48966 20.4138 9.15862 21.0759Z" fill="#B63AB4"/>
</g>
</svg>
