<svg width="35" height="33" viewBox="0 0 35 33" fill="none" xmlns="http://www.w3.org/2000/svg">
<path d="M33.5526 31.1951C32.6232 30.9449 31.8368 30.4087 31.2648 29.6223C29.7992 27.7635 27.3327 27.0485 25.1164 27.8349C23.2933 28.5141 21.2558 27.9064 20.0761 26.3693C19.6114 25.7616 19.0037 25.2612 18.3246 24.9037C19.2182 24.4748 19.9689 23.7956 20.5408 22.9734L24.616 17.0037C27.9404 12.1064 26.6535 5.42182 21.7562 2.09738C16.8589 -1.22705 10.1743 0.0598245 6.84989 4.95711C4.38337 8.60327 4.38337 13.3576 6.84989 17.0037C10.4603 21.901 10.925 24.153 13.749 25.1897L11.1037 29.7295H20.2906L18.1816 26.0834C18.5748 26.3693 18.9322 26.6911 19.254 27.0843C20.7196 28.9431 23.1861 29.658 25.4024 28.8716C27.2255 28.1924 29.263 28.8001 30.4427 30.3372C31.1218 31.2666 32.1227 31.9101 33.2309 32.2318C33.5169 32.3033 33.8028 32.1603 33.9101 31.8743C34.0173 31.5883 33.8386 31.3024 33.5526 31.1951C33.5526 31.2309 33.5526 31.2309 33.5526 31.1951ZM7.74355 16.396C4.74084 11.9992 5.92048 5.99376 10.3173 2.99105C14.7141 -0.011668 20.7196 1.16797 23.7223 5.5648C25.9386 8.81775 25.9386 13.1073 23.7223 16.396L19.6472 22.4015C18.1816 24.582 15.2146 25.1182 13.0698 23.6526C11.8187 22.7947 11.8187 22.187 7.74355 16.396ZM12.9983 28.6571L14.8571 25.4399C15.4648 25.5472 16.0368 25.5472 16.6445 25.4399L18.5033 28.6571H12.9983Z" fill="url(#paint0_linear_2266_1700)"/>
<path fill-rule="evenodd" clip-rule="evenodd" d="M6.64302 4.81673C10.0448 -0.194509 16.8848 -1.5116 21.8966 1.89057C26.9079 5.29236 28.2249 12.1324 24.8228 17.1442L20.7473 23.1144L20.746 23.1162C20.2405 23.8429 19.5977 24.4658 18.8388 24.9126C19.3879 25.2599 19.8798 25.7011 20.2747 26.2175C21.3888 27.669 23.3111 28.2408 25.0291 27.6007L25.0328 27.5993C27.3507 26.7769 29.9296 27.5251 31.4611 29.4675L31.4671 29.4752C31.9393 30.1244 32.5652 30.5915 33.3026 30.8553V30.8344L33.6404 30.9611C34.0187 31.103 34.3126 31.5128 34.1441 31.9621C33.9915 32.3693 33.5772 32.5761 33.1702 32.4743L33.1611 32.4721C32.0082 32.1373 30.9585 31.4657 30.2426 30.4872C29.1282 29.0372 27.2069 28.4661 25.4896 29.1059L25.486 29.1073C23.2934 29.8853 20.8672 29.2578 19.3149 27.5435L20.724 29.9796H10.6687L13.386 25.316C12.0742 24.7688 11.2659 23.93 10.39 22.6886C10.0447 22.1991 9.685 21.6413 9.27947 21.0124C9.14022 20.7965 8.99557 20.5721 8.84425 20.3393C8.25024 19.4255 7.5472 18.371 6.64863 17.1521L6.64262 17.1439C4.11886 13.4132 4.11926 8.5475 6.64302 4.81673ZM33.4747 31.4331C32.4977 31.167 31.6685 30.6006 31.0656 29.7735C29.666 28.0015 27.3145 27.3211 25.2018 28.07C23.2743 28.7871 21.1226 28.1436 19.8778 26.5216C19.4364 25.9444 18.8572 25.4666 18.2081 25.125L17.7682 24.8935L18.2163 24.6784C19.0659 24.2706 19.7845 23.6226 20.335 22.8315C20.3352 22.8313 20.3354 22.831 20.3356 22.8307L24.4091 16.8633C27.6558 12.0806 26.3991 5.55134 21.6158 2.30426C16.8331 -0.942386 10.304 0.314187 7.05685 5.09733C4.64859 8.65747 4.64768 13.2986 7.05412 16.8595C7.9593 18.0876 8.66734 19.1497 9.26347 20.0668C9.41792 20.3044 9.56445 20.5317 9.7047 20.7492C10.1082 21.3749 10.4598 21.9201 10.7986 22.4004C11.7038 23.6834 12.4893 24.461 13.8351 24.955L14.1151 25.0578L11.5387 29.4796H19.8572L17.9651 26.2086L18.3286 25.8812C18.7361 26.1776 19.11 26.5136 19.4474 26.926L19.4503 26.9295C20.8496 28.7042 23.2028 29.386 25.317 28.6367C27.2445 27.9195 29.3962 28.5631 30.641 30.185L30.6445 30.1897C31.2859 31.0673 32.2352 31.6814 33.2955 31.9903C33.459 32.0292 33.6147 31.95 33.676 31.7866C33.7212 31.666 33.6606 31.5074 33.4747 31.4331ZM23.5157 5.7056C20.5895 1.4211 14.7392 0.274005 10.4583 3.19753C6.17406 6.12334 5.02665 11.9728 7.94901 16.2537C9.46281 18.4049 10.4169 19.8446 11.0788 20.8434C11.3081 21.1895 11.5023 21.4826 11.6726 21.734C12.3323 22.708 12.6241 23.0438 13.2108 23.4462C15.2428 24.8348 18.0527 24.3255 19.4397 22.262L19.4403 22.2611L23.5149 16.2564C23.5149 16.2564 23.515 16.2563 23.5149 16.2564C25.6745 13.0517 25.6737 8.8731 23.5157 5.7056ZM10.1763 2.78463C14.689 -0.297222 20.8494 0.914863 23.9287 5.42385C26.2032 8.76217 26.2025 13.1631 23.9296 16.5358L19.8546 22.541C19.8545 22.5411 19.8548 22.5408 19.8546 22.541C18.3102 24.8381 15.1861 25.4016 12.9287 23.859C12.2646 23.4036 11.9304 23.0063 11.2586 22.0144C11.0855 21.7588 10.8894 21.4629 10.6586 21.1145C9.99651 20.1155 9.04882 18.6854 7.53907 16.5399L7.53705 16.5371C4.4552 12.0244 5.66731 5.86394 10.1763 2.78463ZM14.7282 25.1633L14.9005 25.1938C15.4795 25.2959 16.022 25.2959 16.601 25.1938L16.7733 25.1633L18.9364 28.9072H12.5651L14.7282 25.1633ZM14.9874 25.7141L13.4315 28.4072H18.0701L16.5141 25.7141C15.9988 25.7891 15.5027 25.7891 14.9874 25.7141Z" fill="url(#paint1_linear_2266_1700)"/>
<path d="M18.7525 4.34969C18.5023 4.63566 18.6095 5.02888 18.9312 5.20761C20.5398 5.95829 21.7552 7.4239 22.1842 9.28272C22.3272 9.99766 22.3629 10.7483 22.2557 11.4275C22.2199 11.6777 22.3987 11.9637 22.6489 12.0352C22.9706 12.1067 23.2923 11.928 23.3281 11.6063C23.4353 10.7841 23.4353 9.92616 23.2566 9.06824C22.7919 6.8877 21.3263 5.13612 19.4317 4.24245C19.1815 4.13521 18.9312 4.17096 18.7525 4.34969Z" fill="url(#paint2_linear_2266_1700)"/>
<path fill-rule="evenodd" clip-rule="evenodd" d="M18.5759 4.17274C18.8373 3.91131 19.2004 3.8711 19.5303 4.01249L19.5386 4.01602L19.5385 4.01616C21.5012 4.94195 23.0197 6.75641 23.5012 9.01596L23.5015 9.01708C23.6869 9.90692 23.6862 10.7929 23.5764 11.6362C23.5188 12.14 23.0232 12.3743 22.5948 12.2791L22.5875 12.2775L22.5804 12.2754C22.3865 12.22 22.2328 12.0864 22.1346 11.933C22.0367 11.7799 21.9806 11.5863 22.0083 11.392L22.0089 11.3884C22.1105 10.7448 22.0776 10.0258 21.9399 9.33518C21.5274 7.55237 20.3629 6.15135 18.8257 5.43398L18.8177 5.43025L18.81 5.42597C18.3738 5.18365 18.1916 4.61111 18.5645 4.18489L18.57 4.17862L18.5759 4.17274ZM18.9354 4.52042C18.8156 4.66432 18.8477 4.8707 19.046 4.98504C20.7205 5.76978 21.9826 7.29661 22.4279 9.22633L22.4296 9.23349L22.4295 9.23352C22.577 9.97091 22.6154 10.751 22.5031 11.4641C22.503 11.4649 22.5029 11.4656 22.5028 11.4663L22.2558 11.4273L22.5033 11.4627C22.5032 11.4632 22.5032 11.4636 22.5031 11.4641C22.4956 11.5199 22.5111 11.5937 22.5558 11.6634C22.5989 11.7308 22.6568 11.7751 22.7113 11.7927C22.7086 11.7922 22.706 11.7916 22.7033 11.791L22.649 12.035L22.7177 11.7947C22.7156 11.794 22.7134 11.7934 22.7113 11.7927C22.9212 11.8355 23.0646 11.7147 23.0798 11.5785L23.0803 11.5737L23.0803 11.5737C23.1847 10.7736 23.1839 9.94465 23.0121 9.11959C23.0121 9.11979 23.0122 9.11998 23.0122 9.12017L23.2567 9.06808L23.012 9.11905C23.012 9.11923 23.0121 9.11941 23.0121 9.11959C22.5644 7.01999 21.1537 5.33253 19.3295 4.47044C19.3308 4.47097 19.3321 4.47151 19.3334 4.47206L19.4318 4.24227L19.3252 4.46838C19.3266 4.46907 19.3281 4.46975 19.3295 4.47044C19.1643 4.40091 19.0304 4.42969 18.9354 4.52042Z" fill="url(#paint3_linear_2266_1700)"/>
<defs>
<linearGradient id="paint0_linear_2266_1700" x1="7.53238" y1="0.249999" x2="38.554" y2="6.97592" gradientUnits="userSpaceOnUse">
<stop stop-color="#B63AB4"/>
<stop offset="1" stop-color="#513B9F"/>
</linearGradient>
<linearGradient id="paint1_linear_2266_1700" x1="7.32624" y1="-1.48798e-06" x2="38.8804" y2="6.85278" gradientUnits="userSpaceOnUse">
<stop stop-color="#B63AB4"/>
<stop offset="1" stop-color="#513B9F"/>
</linearGradient>
<linearGradient id="paint2_linear_2266_1700" x1="19.0331" y1="4.18213" x2="24.2935" y2="4.9493" gradientUnits="userSpaceOnUse">
<stop stop-color="#B63AB4"/>
<stop offset="1" stop-color="#513B9F"/>
</linearGradient>
<linearGradient id="paint3_linear_2266_1700" x1="18.826" y1="3.93213" x2="24.6275" y2="4.81105" gradientUnits="userSpaceOnUse">
<stop stop-color="#B63AB4"/>
<stop offset="1" stop-color="#513B9F"/>
</linearGradient>
</defs>
</svg>
