<svg preserveAspectRatio="none" width="100%" height="100%" overflow="visible" style="display: block;" viewBox="0 0 32 32" fill="none" xmlns="http://www.w3.org/2000/svg">
<g id="Group">
<path id="Vector" d="M27.3603 4.63972C33.5466 10.9385 33.5466 21.174 27.3603 27.3603C21.174 33.5466 10.9385 33.5466 4.63972 27.3603C-1.54657 21.174 -1.54657 10.9385 4.63972 4.63972C10.9385 -1.54657 21.174 -1.54657 27.3603 4.63972ZM26.348 5.7645C20.6116 0.0281195 11.3884 0.0281195 5.7645 5.7645C0.0281195 11.3884 0.0281195 20.6116 5.7645 26.348C11.3884 31.9719 20.6116 31.9719 26.348 26.348C31.9719 20.6116 31.9719 11.3884 26.348 5.7645Z" fill="#B63AB4"/>
<path id="Vector_2" d="M13.3005 13.188L9.92619 9.92619L6.55185 13.3005L7.56415 14.3128L9.92619 11.9508L12.1757 14.3128L13.3005 13.188Z" fill="#B63AB4"/>
<path id="Vector_3" d="M18.812 13.188L22.0738 9.92619L25.5606 13.3005L24.4359 14.3128L22.0738 11.9508L19.8243 14.3128L18.812 13.188Z" fill="#B63AB4"/>
<path id="Vector_4" d="M21.9613 17.9121C21.9613 19.8243 21.6239 21.2865 20.2742 22.6362C17.9121 24.9982 14.0879 24.9982 11.8383 22.6362C10.3761 21.2865 10.0387 19.8243 10.0387 17.9121C14.0879 17.9121 18.0246 17.9121 21.9613 17.9121Z" fill="#B63AB4"/>
</g>
</svg>
