<svg width="32" height="32" viewBox="0 0 32 32" fill="none" xmlns="http://www.w3.org/2000/svg">
<g clip-path="url(#clip0_2266_3331)">
<path d="M24.2703 0.630117C21.5703 0.630117 17.0603 3.54012 15.9603 4.28012C14.8603 3.54012 10.3503 0.630117 7.65028 0.630117C4.40028 0.630117 1.39028 3.34012 0.340282 7.21012C-0.449718 10.1101 -1.65972 20.3701 15.7403 30.5401C15.8103 30.5801 15.8803 30.6001 15.9503 30.6001C16.0203 30.6001 16.1003 30.5801 16.1603 30.5401C33.5603 20.3701 32.3403 10.1101 31.5603 7.21012C30.5103 3.33012 27.5103 0.620117 24.2603 0.620117L24.2703 0.630117ZM15.9603 29.6901C-0.689718 19.8601 0.420282 10.1801 1.17028 7.44012C2.12028 3.93012 4.78028 1.48012 7.64028 1.48012C10.5003 1.48012 15.6603 5.11012 15.7103 5.15012C15.8603 5.25012 16.0503 5.25012 16.2003 5.15012C16.2503 5.11012 21.5103 1.48012 24.2703 1.48012C27.0303 1.48012 29.8003 3.93012 30.7503 7.44012C31.4903 10.1801 32.6103 19.8701 15.9603 29.6901Z" fill="#5C4A3B" stroke="#5C4A3B" stroke-width="0.4"/>
<path d="M21.6598 16.9399H10.2598C10.0298 16.9399 9.83984 17.1299 9.83984 17.3599C9.83984 17.5899 10.0298 17.7799 10.2598 17.7799H21.6598C21.8898 17.7799 22.0798 17.5899 22.0798 17.3599C22.0798 17.1299 21.8898 16.9399 21.6598 16.9399Z" fill="#5C4A3B" stroke="#5C4A3B" stroke-width="0.4"/>
<path d="M12.3198 14.47C13.9598 14.47 15.2998 13.13 15.2998 11.49C15.2998 9.85001 13.9598 8.51001 12.3198 8.51001C10.6798 8.51001 9.33984 9.85001 9.33984 11.49C9.33984 13.13 10.6798 14.47 12.3198 14.47ZM12.3198 13.62C11.4698 13.62 10.7498 13.12 10.3998 12.4H14.2298C13.8898 13.12 13.1598 13.62 12.3098 13.62H12.3198ZM10.1898 11.49C10.1898 10.32 11.1398 9.36001 12.3198 9.36001C13.4998 9.36001 14.4498 10.31 14.4498 11.49C14.4498 11.51 14.4498 11.53 14.4498 11.55H10.2098C10.2098 11.55 10.2098 11.51 10.2098 11.49H10.1898Z" fill="#5C4A3B" stroke="#5C4A3B" stroke-width="0.4"/>
<path d="M19.6001 8.51001C17.9601 8.51001 16.6201 9.85001 16.6201 11.49C16.6201 13.13 17.9601 14.47 19.6001 14.47C21.2401 14.47 22.5801 13.13 22.5801 11.49C22.5801 9.85001 21.2401 8.51001 19.6001 8.51001ZM19.6001 13.62C18.7501 13.62 18.0301 13.12 17.6801 12.4H21.5101C21.1701 13.12 20.4401 13.62 19.5901 13.62H19.6001ZM21.7201 11.55H17.4701C17.4701 11.55 17.4701 11.51 17.4701 11.49C17.4701 10.32 18.4201 9.36001 19.6001 9.36001C20.7801 9.36001 21.7301 10.31 21.7301 11.49C21.7301 11.51 21.7301 11.53 21.7301 11.55H21.7201Z" fill="#5C4A3B" stroke="#5C4A3B" stroke-width="0.4"/>
</g>

</svg>
