<svg width="32" height="32" viewBox="0 0 32 32" fill="none" xmlns="http://www.w3.org/2000/svg">
<g clip-path="url(#clip0_2266_2700)">
<path d="M21.9297 3.29003C19.6297 3.29003 17.4097 4.06003 15.6397 5.46003C15.1697 5.34003 14.6697 5.28003 14.1297 5.28003C11.5797 5.28003 9.26973 7.00003 8.46973 9.43003H6.02973C2.74973 9.43003 -0.0302734 12.45 -0.0302734 16.03V16.29C-0.0302734 19.9 2.79973 23.07 6.03973 23.07H9.62973C9.93973 23.07 10.1997 22.81 10.1997 22.5C10.1997 22.19 9.94973 21.93 9.62973 21.93H6.03973C3.40973 21.93 1.10973 19.29 1.10973 16.29V16.03C1.10973 13.07 3.36973 10.56 6.03973 10.56H8.90973C9.16973 10.56 9.39973 10.38 9.45973 10.13C9.97973 8.01003 11.9897 6.41003 14.1397 6.41003C14.6697 6.41003 15.1597 6.48003 15.5997 6.62003C15.7897 6.68003 15.9897 6.64003 16.1397 6.51003C17.7397 5.16003 19.7897 4.42003 21.9297 4.42003C26.8397 4.42003 30.8297 8.32003 30.8297 13.11C30.8297 15.34 29.9697 17.46 28.4197 19.07C28.3697 19.12 28.3297 19.17 28.3097 19.22C27.5797 19.95 26.7497 20.55 25.8497 21C25.5697 21.14 25.4497 21.48 25.5897 21.76C25.7297 22.04 26.0697 22.16 26.3497 22.02C27.4197 21.49 28.3897 20.78 29.2297 19.9C29.2697 19.86 29.2997 19.81 29.3297 19.76C31.0297 17.95 31.9697 15.59 31.9697 13.11C31.9697 7.69003 27.4697 3.28003 21.9297 3.28003V3.29003Z" fill="url(#paint0_linear_2266_2700)"/>
<path d="M22.1197 19.0899H19.8497V14.2299C19.8497 13.2599 19.4097 12.9899 19.1497 12.9099C18.8897 12.8299 18.3597 12.8199 17.8097 13.6299L16.3397 15.7599L15.9497 16.3499C15.4597 17.0899 14.8497 18.0099 14.4297 18.6099L13.0497 20.6799C12.6697 21.2399 12.5897 21.8399 12.8497 22.3199C13.0997 22.7899 13.6097 23.0599 14.2597 23.0599H16.4397V27.5999C16.4397 28.5999 16.9497 28.8699 17.1697 28.9299C17.2297 28.9499 17.3197 28.9699 17.4197 28.9699C17.6997 28.9699 18.1197 28.8399 18.5297 28.2299L20.0597 26.1099C20.4797 25.4799 21.1197 24.5399 21.6297 23.7899L23.3397 21.3099C23.8397 20.5699 23.6897 20.0299 23.5597 19.7799C23.4197 19.5199 23.0497 19.0799 22.1297 19.0799L22.1197 19.0899ZM22.3997 20.6799L20.6797 23.1699C20.1697 23.9199 19.5197 24.8699 19.1097 25.4799L17.5797 27.5999C17.5797 27.5999 17.5797 27.6099 17.5697 27.6199V22.5099C17.5697 22.1999 17.3197 21.9399 16.9997 21.9399H14.2497C13.9997 21.9399 13.8697 21.8699 13.8397 21.8099C13.7997 21.7299 13.8197 21.5599 13.9797 21.3299L15.3597 19.2599C15.7697 18.6599 16.3797 17.7399 16.8797 16.9899L18.6997 14.3399V19.6699C18.6997 19.9799 18.9497 20.2399 19.2697 20.2399H22.1097C22.3997 20.2399 22.5197 20.3099 22.5297 20.3299C22.5297 20.3499 22.5297 20.4799 22.3797 20.6899L22.3997 20.6799Z" fill="url(#paint1_linear_2266_2700)"/>
</g>
<defs>
<linearGradient id="paint0_linear_2266_2700" x1="2.76973" y1="3.28003" x2="33.9908" y2="15.3823" gradientUnits="userSpaceOnUse">
<stop stop-color="#B63AB4"/>
<stop offset="1" stop-color="#513B9F"/>
</linearGradient>
<linearGradient id="paint1_linear_2266_2700" x1="13.6597" y1="12.8748" x2="25.6699" y2="14.8404" gradientUnits="userSpaceOnUse">
<stop stop-color="#B63AB4"/>
<stop offset="1" stop-color="#513B9F"/>
</linearGradient>
<clipPath id="clip0_2266_2700">
<rect width="32" height="32" fill="white"/>
</clipPath>
</defs>
</svg>
