<svg width="32" height="32" viewBox="0 0 32 32" fill="none" xmlns="http://www.w3.org/2000/svg">
<g clip-path="url(#clip0_2266_1778)">
<path fill-rule="evenodd" clip-rule="evenodd" d="M13.7399 20.4499H18.5799L16.8599 18.7299C14.8499 18.7299 14.3699 18.5199 13.7399 20.4499ZM19.7899 20.5599L25.2799 26.0499C25.4399 26.2099 25.4299 26.4799 25.2399 26.6399C23.9799 27.7299 22.5299 28.5999 20.9399 29.1899C11.7499 32.6199 1.85992 25.8399 1.84992 15.9499C1.84992 12.4999 3.08992 9.23988 5.30992 6.67988C5.45992 6.50988 5.71992 6.49988 5.87992 6.65988L19.7799 20.5599H19.7899ZM19.3599 21.2299H13.4399C13.1999 21.6999 12.8499 21.9999 12.1499 21.9199C11.8099 21.8799 11.5899 21.6099 11.4099 21.2299H7.98992C7.90992 21.2299 7.83992 21.2599 7.78992 21.2999C7.66992 21.3999 7.72992 22.0599 7.72992 22.3699C7.72992 23.3099 8.22992 23.5099 9.06992 23.5099H21.6599L19.3699 21.2199L19.3599 21.2299ZM22.4199 24.2899L24.4299 26.2999C15.7699 33.3699 2.62992 27.2099 2.62992 15.9499C2.62992 12.8299 3.69992 9.87988 5.62992 7.50988L8.49992 10.3799C7.78992 11.4299 7.37992 12.6399 7.35992 13.9199C6.07992 14.3999 5.92992 15.9199 7.09992 16.5699C6.82992 17.0999 6.88992 17.6899 7.26992 18.1399L6.83992 18.4199C6.10992 19.0599 6.10992 20.1199 6.83992 20.7699C6.90992 20.8299 6.98992 20.8899 7.06992 20.9399C6.85992 21.2799 6.92992 21.8799 6.92992 22.3799C6.92992 23.7999 7.80992 24.2999 9.03992 24.2999H22.4099L22.4199 24.2899ZM9.05992 10.9299C8.50992 11.7899 8.18992 12.7599 8.13992 13.7799H11.9199L9.06992 10.9299H9.05992ZM12.6999 14.5699L7.80992 14.5899C6.70992 14.8099 6.99992 15.9499 7.84992 16.0099C8.35992 16.0499 8.62992 15.0899 10.0499 15.8799C10.3799 16.0699 10.3599 16.0499 10.5099 15.9499C11.1399 15.5199 11.9399 15.3799 12.7999 15.8799C13.3499 16.1999 13.0799 15.8899 13.8099 15.6699L12.6999 14.5599V14.5699ZM14.4799 16.3499L16.0799 17.9499H15.4999C13.1799 17.9499 13.1199 20.2099 12.8799 20.5399C12.6999 20.7299 12.7199 21.1999 12.2299 21.1399C12.1699 21.1399 12.0199 20.7199 11.8299 20.2299C10.8899 17.7299 10.4199 17.9499 8.57992 17.9499C7.87992 17.9499 7.44992 17.2699 7.87992 16.7899C8.24992 16.7799 8.46992 16.6399 8.66992 16.5099C9.56992 15.9299 9.86992 17.3199 10.9299 16.5999C11.3199 16.3399 11.8099 16.2199 12.3899 16.5599C13.5299 17.2299 13.4299 16.3999 14.4699 16.3599L14.4799 16.3499ZM15.9899 1.80988C23.7999 1.80988 30.1199 8.13988 30.1199 15.9499C30.1199 19.3999 28.8799 22.6599 26.6599 25.2199C26.5099 25.3899 26.2499 25.3999 26.0899 25.2399L6.69992 5.84988C6.53992 5.68988 6.54992 5.41988 6.73992 5.25988C9.39992 3.03988 12.4399 1.80988 15.9899 1.80988ZM25.4299 6.49988C27.8499 8.91988 29.3399 12.2599 29.3399 15.9399C29.3399 19.0599 28.2699 22.0099 26.3399 24.3799L24.9799 23.0199C25.0299 22.4499 25.1499 21.3399 24.8999 20.9299C26.0099 20.2299 25.9099 18.6999 24.6999 18.1299C25.0799 17.6799 25.1499 17.0899 24.8699 16.5599C26.0399 15.9099 25.8899 14.3799 24.6099 13.9099C24.5199 9.82988 20.7199 6.87988 16.5799 6.87988H15.3799C13.5799 6.87988 11.8299 7.41988 10.3899 8.43988L7.53992 5.58988C12.8399 1.26988 20.5699 1.63988 25.4199 6.49988H25.4299ZM10.9599 8.99988L15.7499 13.7899H23.8399C23.6699 10.1999 20.2599 7.65988 16.5999 7.65988C15.1799 7.65988 14.2299 7.60988 12.8399 8.06988C12.1599 8.29988 11.5299 8.60988 10.9699 8.99988H10.9599ZM16.5199 14.5699L17.5299 15.5799C18.2099 15.6099 18.4899 15.7999 18.7099 15.9499C19.0999 16.2199 19.2299 15.5699 20.1299 15.5699C21.7499 15.5699 21.1799 16.2999 21.9299 15.8799C23.3799 15.0699 23.6499 16.0999 24.1699 15.9999C25.2599 15.7899 25.0599 14.5599 23.9299 14.5599H16.5199V14.5699ZM18.7499 16.7999L19.8999 17.9499H23.3899C24.0999 17.9499 24.5199 17.2699 24.0899 16.7899C23.1299 16.7599 23.3099 15.9999 22.3099 16.5599C21.1799 17.2399 21.2999 16.3499 20.1299 16.3499C19.6599 16.3499 19.3799 16.8599 18.7499 16.7999ZM20.6799 18.7299L22.3999 20.4499H23.8699C25.2099 20.4499 25.2099 18.7299 23.8699 18.7299H20.6799ZM23.1799 21.2299L24.2599 22.3099C24.2599 21.0499 24.4399 21.2299 23.1799 21.2299ZM15.9899 -0.120117C24.8599 -0.120117 32.0499 7.07988 32.0499 15.9499C32.0499 24.8199 24.8599 32.0099 15.9899 32.0099C7.11992 32.0099 -0.0800781 24.8199 -0.0800781 15.9499C-0.0800781 7.07988 7.11992 -0.120117 15.9899 -0.120117ZM26.7999 5.13988C32.7699 11.1099 32.7699 20.7899 26.7999 26.7599C20.8299 32.7299 11.1499 32.7299 5.17992 26.7599C-0.790078 20.7899 -0.790078 11.1099 5.17992 5.13988C11.1499 -0.830117 20.8299 -0.830117 26.7999 5.13988ZM11.0899 20.4499C10.3499 18.4799 10.1499 18.7299 8.58992 18.7299C8.12992 18.7299 7.72992 18.6799 7.36992 18.9999C6.99992 19.3299 6.98992 19.8399 7.36992 20.1899C7.55992 20.3499 7.81992 20.4599 8.10992 20.4599H11.0999L11.0899 20.4499Z" fill="url(#paint0_linear_2266_1778)"/>
</g>
<defs>
<linearGradient id="paint0_linear_2266_1778" x1="2.7313" y1="-0.120119" x2="36.8299" y2="8.05421" gradientUnits="userSpaceOnUse">
<stop stop-color="#B63AB4"/>
<stop offset="1" stop-color="#513B9F"/>
</linearGradient>
<clipPath id="clip0_2266_1778">
<rect width="32" height="32" fill="white"/>
</clipPath>
</defs>
</svg>
