<svg width="32" height="32" viewBox="0 0 32 32" fill="none" xmlns="http://www.w3.org/2000/svg">
<g clip-path="url(#clip0_2266_3143)">
<path d="M28.6 31.3401C27.41 27.4401 25.14 24.2201 22.19 22.2901C21.88 22.0901 21.48 22.0901 21.16 22.2901C21.15 22.2901 21.14 22.3001 21.12 22.3101C20.96 22.2101 20.79 22.1201 20.62 22.0301C23.38 20.4901 25.33 17.6201 25.57 14.2801C25.59 13.9801 25.37 13.7201 25.08 13.6801C17.93 12.8001 15.5 10.2501 14.7 8.8101C14.59 8.6201 14.38 8.5101 14.16 8.5301C13.94 8.5501 13.75 8.7001 13.68 8.9101C13.27 10.1201 11.82 12.2801 6.77001 13.2001C6.50001 13.2501 6.30001 13.4901 6.31001 13.7601C6.37001 17.3001 8.37001 20.4001 11.28 22.0301C11.11 22.1201 10.95 22.2101 10.78 22.3101C10.77 22.3101 10.76 22.3001 10.74 22.2901C10.43 22.0801 10.02 22.0801 9.71001 22.2901C6.76001 24.2101 4.47001 27.4301 3.28001 31.3401C3.19001 31.6401 3.36001 31.9501 3.65001 32.0401C3.70001 32.0601 3.76001 32.0601 3.81001 32.0601C4.05001 32.0601 4.27001 31.9001 4.35001 31.6601C4.37001 31.6001 4.39001 31.5501 4.40001 31.5001C4.52001 31.1201 4.65001 30.7501 4.79001 30.3901C5.96001 27.3501 7.85001 24.8701 10.21 23.2901C10.22 23.2901 10.23 23.3001 10.24 23.3101C10.42 23.4301 10.6 23.5301 10.79 23.6401C12.36 24.5201 14.13 24.9801 15.94 24.9801C17.75 24.9801 19.51 24.5201 21.08 23.6501C21.27 23.5501 21.45 23.4401 21.63 23.3201C21.64 23.3201 21.65 23.3101 21.67 23.3001C24.03 24.8801 25.92 27.3701 27.08 30.4001C27.22 30.7601 27.34 31.1301 27.46 31.5001C27.48 31.5501 27.5 31.6101 27.51 31.6601C27.6 31.9601 27.91 32.1201 28.21 32.0301C28.51 31.9401 28.67 31.6301 28.58 31.3301H28.6V31.3401ZM15.96 23.8601C14.55 23.8601 13.18 23.5501 11.93 22.9601C12.15 22.8501 12.37 22.7401 12.6 22.6501C13.65 23.0501 14.78 23.2601 15.96 23.2601C17.14 23.2601 18.26 23.0401 19.31 22.6501C19.54 22.7501 19.76 22.8501 19.98 22.9601C18.73 23.5501 17.36 23.8501 15.96 23.8501V23.8601ZM24.4 14.7301C24 17.7601 21.99 20.2701 19.3 21.4301C19.03 21.5501 18.76 21.6501 18.48 21.7401C18.05 21.8801 17.6 21.9701 17.15 22.0401C16.76 22.0901 16.37 22.1301 15.97 22.1301C15.57 22.1301 15.17 22.0901 14.78 22.0401C14.32 21.9701 13.87 21.8801 13.44 21.7401C13.16 21.6501 12.89 21.5501 12.62 21.4301C9.77001 20.1901 7.70001 17.4501 7.47001 14.2101C11.64 13.3501 13.49 11.6001 14.31 10.2301C15.69 11.9801 18.54 13.9201 24.41 14.7401H24.4V14.7301ZM4.28001 25.9101V12.2401C4.28001 5.5501 9.51001 0.100098 15.94 0.100098C22.37 0.100098 27.6 5.5501 27.6 12.2401V25.9101C27.6 26.2201 27.35 26.4701 27.04 26.4701C26.73 26.4701 26.48 26.2201 26.48 25.9101V12.2401C26.48 6.1701 21.75 1.2301 15.94 1.2301C10.13 1.2301 5.40001 6.1601 5.40001 12.2401V25.9101C5.40001 26.2201 5.15001 26.4701 4.84001 26.4701C4.53001 26.4701 4.28001 26.2201 4.28001 25.9101Z" fill="url(#paint0_linear_2266_3143)"/>
</g>
<defs>
<linearGradient id="paint0_linear_2266_3143" x1="5.47391" y1="0.100096" x2="32.9296" y2="5.3205" gradientUnits="userSpaceOnUse">
<stop stop-color="#B63AB4"/>
<stop offset="1" stop-color="#513B9F"/>
</linearGradient>
<clipPath id="clip0_2266_3143">
<rect width="32" height="32" fill="white"/>
</clipPath>
</defs>
</svg>
