<svg width="32" height="32" viewBox="0 0 32 32" fill="none" xmlns="http://www.w3.org/2000/svg">
<path d="M31.0702 11.5498C30.9102 11.4398 30.7202 11.3898 30.5302 11.3098C30.5302 10.4798 30.3002 9.75977 29.7302 9.20977C29.8102 8.88977 30.1002 8.62977 29.8202 8.21977C29.5902 8.43977 29.4002 8.62977 29.2402 8.78977H27.5702C27.5302 8.57977 27.5102 8.38976 27.4502 8.22976C27.4202 8.13976 27.2702 8.03977 27.1902 8.04977C27.1102 8.05977 26.9902 8.18976 26.9702 8.28977C26.9502 8.46977 27.0102 8.64977 26.9902 8.82977C26.9702 8.96977 26.9102 9.14977 26.8002 9.22976C26.4002 9.52977 25.9802 9.78977 25.5702 10.0498C25.3002 9.61977 25.0802 9.13977 24.7502 8.76977C24.4202 8.40977 23.9902 8.13977 23.5902 7.82977C23.9202 7.23977 24.2402 6.63977 24.5702 6.03977C24.8102 5.93977 25.1602 6.09977 25.2602 5.65977C25.0602 5.56977 24.8702 5.47977 24.6702 5.38977C24.6202 4.88977 24.5602 4.38977 24.5102 3.92977C24.7802 3.67977 25.2302 3.68977 25.1802 3.12977C24.8702 3.18977 24.5902 3.23977 24.2602 3.28977C23.9602 2.42977 23.2102 2.09977 22.3902 1.74977C22.3902 1.42977 22.3902 1.11977 22.3902 0.789766C22.3902 0.609766 22.3902 0.409766 22.3302 0.249766C22.2902 0.149766 22.1402 0.0897656 22.0402 0.00976562C21.9702 0.0997656 21.8702 0.179766 21.8502 0.279766C21.8202 0.409766 21.8502 0.559766 21.8502 0.699766C21.8502 1.03977 21.8502 1.37977 21.8502 1.69977C21.2002 1.84977 20.6202 1.98977 20.0202 2.13977C19.8802 1.75977 19.7602 1.38977 19.6102 1.04977C19.5702 0.959766 19.3902 0.939766 19.2702 0.889766C19.2302 1.00977 19.1302 1.13977 19.1502 1.24977C19.2002 1.52977 19.3002 1.78977 19.4002 2.05977C19.5002 2.33977 19.4702 2.53977 19.2202 2.73977C18.6102 3.22977 18.3802 3.89977 18.4102 4.66977C18.4502 5.90977 18.5502 7.13977 19.0502 8.28977C19.1402 8.49977 19.2302 8.68977 19.0002 8.88977C18.5502 9.28977 18.1102 9.69977 17.6602 10.1198C17.4902 10.0498 17.3102 9.92977 17.1202 9.90977C17.0002 9.88976 16.8502 9.98977 16.7202 10.0398C16.7802 10.1498 16.8102 10.2998 16.9002 10.3698C17.0302 10.4798 17.2002 10.5498 17.4102 10.6698C16.7802 11.6298 16.2302 12.5898 16.1202 13.6698H13.1702C13.1602 13.1598 13.1602 12.6998 13.1402 12.2398C13.1402 12.0298 13.1802 11.7298 12.8802 11.7198C12.5602 11.7198 12.6202 12.0198 12.6202 12.2298C12.6102 12.7298 12.6202 13.2298 12.6202 13.7598C12.1502 13.9298 11.7102 14.0898 11.1902 14.2798C11.1002 12.6198 10.8502 11.0698 9.40022 10.1198C9.60022 9.65977 10.1502 9.48977 10.1302 8.88977C9.47022 8.93977 9.24022 9.56977 8.75022 9.83977C7.97022 9.51977 7.17022 9.62977 6.37022 9.83977C6.30022 9.66977 6.25022 9.55976 6.22022 9.43976C6.14022 9.18976 6.09022 8.92976 5.98022 8.68976C5.94022 8.57977 5.79022 8.52977 5.69022 8.43976C5.62022 8.56977 5.52022 8.68976 5.49022 8.82977C5.47022 8.93976 5.54022 9.06977 5.57022 9.17977C5.65022 9.44977 5.72022 9.71977 5.81022 10.0198C5.39022 10.2598 4.98022 10.4998 4.53022 10.7598C4.34022 10.5998 4.15022 10.4198 3.93022 10.2798C3.82022 10.2098 3.60022 10.1598 3.52022 10.2198C3.33022 10.3598 3.44022 10.5398 3.58022 10.6798C3.76022 10.8598 3.94022 11.0298 4.15022 11.2198C3.40022 12.0398 3.19022 12.9998 3.15022 14.0598C2.73022 14.1698 2.32022 14.2698 1.92022 14.3698C1.70022 14.4298 1.36022 14.3898 1.43022 14.7398C1.50022 15.0598 1.81022 14.9498 2.04022 14.9098C2.43022 14.8298 2.81022 14.7298 3.14022 14.6598C3.48022 15.2198 3.75022 15.7698 4.10022 16.2498C4.35022 16.5898 4.40022 16.8598 4.21022 17.2298C4.09022 17.4498 3.97022 17.7198 4.16022 18.1098C4.43022 17.7798 4.64022 17.5198 4.84022 17.2798C5.50022 17.8098 6.15022 18.3398 6.83022 18.8798C6.73022 19.4098 6.62022 19.9498 6.51022 20.5298C6.35022 20.4698 6.24022 20.4298 6.13022 20.3898C5.96022 20.3198 5.78022 20.3098 5.74022 20.5098C5.72022 20.6298 5.83022 20.8098 5.94022 20.8898C6.11022 21.0198 6.32022 21.0898 6.57022 21.2098C6.57022 21.6598 6.58022 22.0998 6.57022 22.5398C6.56022 22.9998 6.68022 23.4598 6.51022 23.9398C6.12022 23.9798 5.74022 24.0098 5.37022 24.0698C5.27022 24.0898 5.19022 24.2298 5.10022 24.3298C5.20022 24.4098 5.28022 24.5298 5.39022 24.5698C5.51022 24.6098 5.67022 24.5798 5.80022 24.5698C6.05022 24.5598 6.31022 24.5398 6.60022 24.5198C6.68022 25.0598 6.75022 25.5698 6.82022 26.0998C6.54022 26.1998 6.31022 26.2798 6.09022 26.3598C5.93022 26.4198 5.76022 26.5198 5.86022 26.6998C5.91022 26.7998 6.12022 26.8798 6.25022 26.8598C6.48022 26.8398 6.71022 26.7398 6.93022 26.6798C7.26022 27.2898 7.57022 27.8798 7.91022 28.5298C7.66022 28.5398 7.49022 28.5498 7.32022 28.5698C7.13022 28.5798 6.93022 28.5998 6.95022 28.8498C6.96022 29.0898 7.17022 29.0998 7.35022 29.1098C7.64022 29.1098 7.94022 29.1098 8.28022 29.1098C8.38022 29.4898 8.47022 29.8398 8.57022 30.1798C8.64022 30.4298 8.72022 30.6898 8.80022 30.9298C8.94022 31.3398 9.25022 31.5398 9.65022 31.5998C10.3402 31.7098 11.0302 31.8198 11.7202 31.9098C13.5002 32.1298 15.2602 31.9098 17.0102 31.5598C18.0802 31.3398 18.8202 30.7898 19.2402 29.7598C19.5002 29.1298 19.8002 28.5098 20.0602 27.9398C20.3402 27.7898 20.6402 27.9998 20.8602 27.6698C20.6702 27.5198 20.4902 27.3798 20.3002 27.2198C20.3902 26.3998 20.4302 25.5698 20.6802 24.7998C21.0802 24.6798 21.5702 25.0698 21.8302 24.5298C21.5702 24.1498 21.1502 24.3298 20.7502 24.1198C21.0602 22.8698 20.7902 21.5898 20.7002 20.3498C21.0202 20.2898 21.2802 20.2298 21.5902 20.1698C21.3502 19.6898 20.9102 19.8198 20.6102 19.6298C20.4702 19.0698 20.3302 18.4998 20.1702 17.8898C20.7802 17.6498 21.3502 17.4298 21.8702 17.2198C22.2702 17.6198 22.1702 18.2898 22.8102 18.4398C22.9902 17.8798 22.5402 17.4698 22.5102 16.9698C24.2102 16.2798 25.4802 15.1998 25.7902 13.2298C26.4202 13.2798 27.0002 13.3198 27.5702 13.3598C27.7002 13.7498 27.5902 14.1698 28.0402 14.4498C28.1102 14.0498 28.1702 13.7098 28.2302 13.3398C29.1502 13.1998 29.9402 12.8698 30.3202 11.9198C30.5302 11.9698 30.7002 12.0298 30.8702 12.0598C31.0402 12.0898 31.2702 12.1498 31.3102 11.9098C31.3202 11.8098 31.1602 11.6498 31.0402 11.5698L31.0702 11.5498ZM19.0002 4.41977C19.0102 3.85977 19.1502 3.61977 19.6402 3.18977C19.8402 3.63977 19.8602 4.10977 20.2602 4.44977C20.5302 3.86977 20.1902 3.35977 20.2202 2.77977C20.7202 2.52977 21.2402 2.34977 21.8502 2.37977C21.9602 2.77977 21.8302 3.21977 22.1102 3.55977C22.2836 3.3731 22.4069 2.99977 22.4802 2.43977C22.9602 2.55977 23.3902 2.76977 23.6102 3.21977C23.8102 3.61977 23.9602 4.06977 24.0502 4.50977C24.2002 5.26977 24.1002 5.99977 23.6502 6.64977C23.4302 6.97977 23.2402 7.32977 23.0702 7.60977C22.4102 7.60977 21.8202 7.52977 21.2702 7.62977C20.7402 7.73977 20.2402 8.03977 19.6702 8.28977C19.5502 7.96977 19.4002 7.63977 19.3102 7.29977C19.0602 6.35977 18.9802 5.38977 19.0102 4.41977H19.0002ZM5.23022 16.7998C5.15022 16.7098 5.14022 16.5498 5.12022 16.4198C5.11022 16.3498 5.15022 16.2598 5.16022 16.1798C5.22022 15.9398 5.33022 15.6598 5.05022 15.5298C4.72022 15.3798 4.74022 15.7998 4.52022 15.9898C4.25022 15.5098 4.00022 15.0598 3.73022 14.5898C4.03022 14.4098 4.28022 14.2598 4.52022 14.1198C4.52022 14.0698 4.50022 14.0298 4.50022 13.9798C4.26022 13.9298 4.02022 13.8798 3.75022 13.8198C3.75022 13.0298 3.96022 12.3298 4.49022 11.7198C4.80022 11.7298 4.95022 12.2398 5.40022 11.9598C5.27022 11.7198 5.15022 11.4898 4.98022 11.1798C5.29022 10.9998 5.61022 10.8198 5.93022 10.6398C6.14022 10.9298 6.32022 11.1798 6.52022 11.4498C6.82022 11.0698 6.57022 10.7498 6.60022 10.4298C7.15022 10.1898 7.70022 10.1598 8.25022 10.2998C8.27022 10.3598 8.28022 10.3798 8.28022 10.3998C8.25022 10.5998 7.96022 10.7998 8.25022 10.9798C8.50022 11.1298 8.63022 10.8598 8.79022 10.7198C8.83022 10.6798 8.88022 10.6498 8.96022 10.5898C9.52022 10.8398 9.96022 11.2098 10.1602 11.8598C9.99022 11.9198 9.82022 11.9498 9.70022 12.0398C9.61022 12.1098 9.54022 12.2598 9.54022 12.3698C9.54022 12.4198 9.71022 12.5198 9.81022 12.5198C9.97022 12.5198 10.1202 12.4698 10.3102 12.4398C10.7402 13.0898 10.5702 13.8398 10.6602 14.4998C9.93022 15.0598 9.21022 15.5698 8.54022 16.1298C7.88022 16.6898 7.43022 17.4398 7.08022 18.2898C6.34022 17.8598 5.74022 17.3798 5.23022 16.7798V16.7998ZM20.2202 20.9898C20.4702 22.3898 20.3102 23.7698 20.0302 25.1498C19.9002 25.7798 19.8402 26.4298 19.7402 27.1298C19.5102 27.1198 19.3002 27.0998 19.0902 27.0898C18.9102 27.0798 18.7002 27.0498 18.6602 27.2898C18.6202 27.5698 18.8502 27.5998 19.0502 27.6298C19.1802 27.6498 19.3202 27.6798 19.5002 27.7098C19.4602 27.8598 19.4302 27.9898 19.3802 28.1098C19.1102 28.6998 18.8402 29.2898 18.5702 29.8698C18.3202 30.3998 17.9202 30.7398 17.3602 30.8798C15.2902 31.4098 13.1902 31.6098 11.0702 31.2398C10.6802 31.1698 10.2902 31.0798 9.89022 31.0498C9.53022 31.0298 9.33022 30.8598 9.24022 30.5298C9.11022 30.0598 9.00022 29.5898 8.86022 29.0598C9.04022 28.9798 9.18022 28.9198 9.33022 28.8598C9.31022 28.7798 9.31022 28.7198 9.29022 28.6698C9.28022 28.6398 9.23022 28.5998 9.20022 28.5898C8.09022 28.3398 7.96022 27.3098 7.50022 26.4998C7.86022 26.2998 8.16022 26.1298 8.52022 25.9298C8.14022 25.5598 7.78022 25.8198 7.42022 25.8098C7.22022 25.3798 7.17022 24.8998 7.18022 24.4098C7.52022 24.1698 8.02022 24.2598 8.27022 23.8298C7.94022 23.4198 7.54022 23.8098 7.17022 23.6898C7.16022 23.5398 7.14022 23.3798 7.13022 23.2198C7.13022 22.6298 7.13022 22.0498 7.13022 21.4198C7.32022 21.3898 7.54022 21.3598 7.81022 21.3298C7.72022 20.9298 7.36022 20.9198 7.10022 20.6998C7.11022 20.5398 7.11022 20.3498 7.14022 20.1498C7.35022 18.6598 7.94022 17.3498 9.08022 16.3498C10.1002 15.4498 11.2502 14.7898 12.6002 14.3598C12.6902 14.6198 12.7702 14.8498 12.8502 15.1098C13.3002 14.9898 13.1202 14.5598 13.3202 14.2498C14.6302 14.1398 15.9802 14.0698 17.2502 14.6898C18.1402 15.1198 18.7202 15.8898 19.1102 16.7598C19.4702 17.5498 19.6702 18.3998 19.9602 19.2198C20.0802 19.5698 19.7702 19.6598 19.6502 19.8298C19.6702 19.9198 19.6702 19.9798 19.6902 19.9898C20.1502 20.1698 20.1402 20.5798 20.2102 20.9698L20.2202 20.9898ZM25.2202 13.1698C25.0802 14.7198 24.0702 15.6498 22.7402 16.2498C21.8702 16.6398 20.9602 16.9598 20.0102 17.3298C19.3002 15.8098 18.4602 14.4098 16.7302 13.8998C16.7002 13.0198 16.9702 12.3098 17.9102 11.0098C18.1402 11.1198 18.3702 11.2198 18.6202 11.3398C18.8002 10.9098 18.4002 10.7598 18.2602 10.4498C18.2902 10.3898 18.3302 10.2898 18.3902 10.2298C19.0602 9.66976 19.7102 9.05977 20.4302 8.55977C22.0402 7.42977 24.6702 8.38977 25.0902 10.6398C25.2502 11.4598 25.2802 12.3298 25.2102 13.1698H25.2202ZM29.8802 11.5298C29.6802 12.2798 29.1702 12.6298 28.2002 12.7198C28.1902 12.4798 28.2002 12.2698 28.1602 12.0898C28.1302 11.9798 28.0102 11.8798 27.9002 11.8398C27.8602 11.8198 27.7002 11.9698 27.6802 12.0598C27.6302 12.2698 27.6402 12.4898 27.6102 12.7898C27.0302 12.7498 26.4702 12.7098 25.8702 12.6698C25.8202 12.0598 25.7502 11.4998 25.7302 10.9398C25.7302 10.8098 25.8302 10.6298 25.9402 10.5398C26.2602 10.2698 26.6002 10.0198 26.9502 9.74977C27.1002 9.92977 27.2202 10.0798 27.3502 10.2298C27.6402 10.0498 27.5202 9.73977 27.6302 9.50977C28.3102 9.16977 28.8802 9.19977 29.3902 9.68976C29.9202 10.1898 30.0602 10.8298 29.8702 11.5298H29.8802Z" fill="url(#paint0_linear_2266_1909)"/>
<path d="M10.4199 21.4498C10.6199 20.8598 10.8099 20.2698 10.9699 19.6798C10.9899 19.5898 10.8799 19.3998 10.7899 19.3498C10.6099 19.2698 10.4999 19.4298 10.4599 19.5998C10.3199 20.1398 10.1899 20.6898 10.0699 21.2398C10.0399 21.3598 10.0899 21.4998 10.1099 21.7098C10.2599 21.5898 10.3899 21.5398 10.4199 21.4498Z" fill="url(#paint1_linear_2266_1909)"/>
<path d="M14.8101 22.8701C14.7201 22.8501 14.5801 22.9101 14.5101 22.9801C14.4701 23.0301 14.4901 23.1801 14.5301 23.2501C14.5901 23.3401 14.7001 23.4401 14.8001 23.4701C15.4101 23.6701 16.0201 23.8301 16.6601 23.7301C16.6801 23.6701 16.7001 23.6201 16.7201 23.5601C16.5401 23.4601 16.3701 23.3401 16.1701 23.2701C15.7201 23.1201 15.2601 22.9901 14.8001 22.8701H14.8101Z" fill="url(#paint2_linear_2266_1909)"/>
<path d="M8.71998 19.35C8.63998 19.33 8.46998 19.42 8.44998 19.5C8.29998 20 8.15998 20.51 8.04998 21.02C8.01998 21.14 8.10998 21.28 8.13998 21.41C8.18998 21.41 8.23998 21.43 8.28998 21.43C8.67998 20.89 8.79998 20.24 8.91998 19.6C8.92998 19.53 8.80998 19.37 8.72998 19.35H8.71998Z" fill="url(#paint3_linear_2266_1909)"/>
<path d="M10.7105 24.1601C10.7105 24.0801 10.5605 23.9001 10.5205 23.9101C10.4105 23.9401 10.2405 24.0301 10.2205 24.1201C10.1105 24.7201 10.0005 25.3301 10.1805 26.0901C10.6605 25.4301 10.6505 24.7901 10.7005 24.1601H10.7105Z" fill="url(#paint4_linear_2266_1909)"/>
<path d="M17.8605 24.4702C17.7505 24.4602 17.5505 24.6002 17.5105 24.7102C17.3505 25.2002 17.1505 25.7002 17.2905 26.3802C17.4605 26.1902 17.5805 26.1102 17.6205 26.0002C17.7705 25.6202 17.8905 25.2402 18.0105 24.8602C18.0605 24.6902 18.0505 24.5002 17.8505 24.4802L17.8605 24.4702Z" fill="url(#paint5_linear_2266_1909)"/>
<path d="M13.7703 18.7298C13.6803 18.7398 13.5503 18.7998 13.5403 18.8698C13.4203 19.3998 13.3103 19.9198 13.4203 20.5198C13.8103 20.4098 13.8803 20.1698 13.9003 19.9298C13.9403 19.5698 13.9403 19.2098 13.9403 18.8498C13.9403 18.8098 13.8203 18.7198 13.7603 18.7298H13.7703Z" fill="url(#paint6_linear_2266_1909)"/>
<path d="M16.6702 20.6899C16.5802 20.7099 16.4602 20.7699 16.4402 20.8399C16.3202 21.3599 16.1502 21.8799 16.4402 22.4299C16.7702 22.2599 16.7802 21.9599 16.8202 21.6999C16.8602 21.4099 16.8502 21.0999 16.8402 20.7999C16.8402 20.7599 16.7202 20.6899 16.6602 20.6999L16.6702 20.6899Z" fill="url(#paint7_linear_2266_1909)"/>
<path d="M11.1004 22.53C11.0204 22.51 10.8504 22.59 10.8204 22.67C10.7904 22.74 10.8504 22.94 10.9204 22.96C11.3804 23.17 11.8204 23.47 12.4804 23.36C12.1004 22.8 11.6104 22.65 11.1104 22.52L11.1004 22.53Z" fill="url(#paint8_linear_2266_1909)"/>
<path d="M11.9802 16.56C11.5302 16.35 11.1802 16.17 10.8202 16.03C10.7102 15.99 10.5702 16.03 10.4502 16.03C10.4702 16.17 10.4502 16.36 10.5202 16.46C10.7902 16.8 11.4302 16.87 11.9802 16.56Z" fill="url(#paint9_linear_2266_1909)"/>
<path d="M14.9304 27.8802C14.8704 27.9402 14.8204 28.0602 14.8404 28.1402C14.8604 28.2202 14.9804 28.3302 15.0404 28.3202C15.5004 28.2502 15.9804 28.2702 16.4304 27.9102C15.9904 27.6302 15.2104 27.6302 14.9304 27.8802Z" fill="url(#paint10_linear_2266_1909)"/>
<path d="M9.51033 17.3501C9.43033 17.3501 9.30033 17.4301 9.29033 17.5001C9.20033 17.9401 8.99033 18.3701 9.11033 18.8901C9.46033 18.8401 9.57033 18.6201 9.62033 18.3901C9.69033 18.1101 9.71033 17.8101 9.72033 17.5101C9.72033 17.4501 9.59033 17.3501 9.51033 17.3501Z" fill="url(#paint11_linear_2266_1909)"/>
<path d="M17.3896 19.0701C17.0796 19.0601 16.7696 19.1001 16.4596 19.1401C16.4096 19.1401 16.3396 19.3001 16.3496 19.3801C16.3596 19.4601 16.4696 19.5701 16.5396 19.5701C16.9996 19.5901 17.4796 19.6801 17.9496 19.2501C17.7596 19.1901 17.5796 19.0701 17.3896 19.0601V19.0701Z" fill="url(#paint12_linear_2266_1909)"/>
<path d="M10.1396 26.97C10.1996 27.09 10.2196 27.28 10.2996 27.31C10.7396 27.49 11.1896 27.54 11.6796 27.47C11.3996 26.93 10.9096 26.76 10.1396 26.96V26.97Z" fill="url(#paint13_linear_2266_1909)"/>
<path d="M16.8801 15.2801C16.8801 15.2101 16.7901 15.0601 16.7301 15.0601C16.6301 15.0601 16.4701 15.1101 16.4401 15.1801C16.2701 15.6001 16.0501 16.0201 16.1701 16.5901C16.7401 16.2701 16.8201 15.7801 16.8701 15.2801H16.8801Z" fill="url(#paint14_linear_2266_1909)"/>
<path d="M13.8505 16.99C14.3105 17.11 14.7705 17.31 15.3905 17.1C14.9305 16.58 14.4305 16.55 13.9205 16.56C13.8505 16.56 13.7505 16.68 13.7305 16.75C13.7205 16.83 13.7905 16.98 13.8405 17L13.8505 16.99Z" fill="url(#paint15_linear_2266_1909)"/>
<path d="M12.9803 28.3501C12.9203 28.3501 12.8403 28.4201 12.8103 28.4801C12.6303 28.8301 12.8903 29.4701 13.2703 29.6701C13.3803 29.3701 13.3703 28.6701 13.2303 28.4801C13.1803 28.4101 13.0703 28.3601 12.9803 28.3601V28.3501Z" fill="url(#paint16_linear_2266_1909)"/>
<path d="M15.7001 28.9502C15.6201 28.9402 15.4901 29.0102 15.4601 29.0702C15.3401 29.4002 15.2501 29.7502 15.4701 30.0902C15.8201 29.8402 15.9901 29.4602 15.8801 29.1402C15.8501 29.0602 15.7601 28.9602 15.6901 28.9502H15.7001Z" fill="url(#paint17_linear_2266_1909)"/>
<path d="M11.1403 29.1699C11.0603 29.1699 10.9003 29.2899 10.9003 29.3599C10.8703 29.6699 10.8903 29.9699 10.8903 30.2799C10.9503 30.2899 11.0103 30.2999 11.0703 30.3099C11.3803 30.0799 11.4303 29.7399 11.3703 29.3799C11.3503 29.2999 11.2203 29.1699 11.1503 29.1699H11.1403Z" fill="url(#paint18_linear_2266_1909)"/>
<path d="M13.3098 25.5C13.2298 25.5 13.0898 25.62 13.0698 25.71C13.0098 26.06 12.9798 26.42 13.3998 26.72C13.5698 26.34 13.5998 26.03 13.5298 25.72C13.5098 25.63 13.3798 25.5 13.3098 25.5Z" fill="url(#paint19_linear_2266_1909)"/>
<path d="M18.7497 21.6701C18.6597 21.6501 18.4997 21.7301 18.4697 21.8101C18.4397 21.8901 18.4897 22.0601 18.5697 22.1101C18.8197 22.2901 19.0897 22.3801 19.4297 22.1701C19.2997 21.7801 19.0197 21.7201 18.7497 21.6701Z" fill="url(#paint20_linear_2266_1909)"/>
<path d="M21.4399 12.5498C21.3399 12.5498 21.1799 12.6198 21.1599 12.6998C20.9999 13.1898 20.8299 13.6798 21.0099 14.2398C21.1199 14.2198 21.1699 14.2198 21.1899 14.1998C21.5799 13.7898 21.5299 13.2498 21.6199 12.7398C21.6299 12.6798 21.4999 12.5498 21.4399 12.5498Z" fill="url(#paint21_linear_2266_1909)"/>
<path d="M22.4596 14.2001C22.0796 14.6001 21.6696 14.9801 21.6396 15.7101C22.2696 15.4401 22.5196 14.9701 22.7696 14.5201C22.8096 14.4501 22.7396 14.3001 22.6796 14.2101C22.6596 14.1701 22.4996 14.1601 22.4696 14.2101L22.4596 14.2001Z" fill="url(#paint22_linear_2266_1909)"/>
<path d="M21.4404 10.6801C21.3604 10.7001 21.2504 10.8201 21.2604 10.8801C21.2704 10.9801 21.3504 11.1301 21.4404 11.1501C21.8704 11.2901 22.3104 11.4501 22.8304 11.2701C22.5504 10.8901 21.7704 10.5801 21.4404 10.6801Z" fill="url(#paint23_linear_2266_1909)"/>
<path d="M23.5202 13.2601C23.4302 13.2201 23.2802 13.3101 23.1602 13.3401C23.2102 13.4701 23.2302 13.6701 23.3302 13.7301C23.6802 13.9501 24.0702 14.1201 24.5902 13.9801C24.3302 13.5001 23.9002 13.4201 23.5302 13.2601H23.5202Z" fill="url(#paint24_linear_2266_1909)"/>
<path d="M19.9396 14.9798C19.8796 14.9998 19.8296 15.1798 19.8596 15.2298C20.0696 15.6298 20.2496 16.0598 20.8496 16.2298C20.7896 15.6698 20.5596 15.2998 20.2496 14.9898C20.1896 14.9298 20.0296 14.9298 19.9396 14.9698V14.9798Z" fill="url(#paint25_linear_2266_1909)"/>
<path d="M21.2296 9.05996C21.5096 9.24996 22.0996 9.13996 22.4396 8.84996C22.0896 8.53996 21.6796 8.56996 21.2696 8.60996C21.1996 8.60996 21.0996 8.73996 21.0996 8.80996C21.0896 8.88996 21.1596 8.99996 21.2296 9.04996V9.05996Z" fill="url(#paint26_linear_2266_1909)"/>
<path d="M19.3201 12.9699C19.2401 12.8999 19.0801 12.9299 18.9601 12.9199C18.9601 13.0499 18.8901 13.1999 18.9501 13.2999C19.1101 13.5699 19.3601 13.7199 19.7701 13.7399C19.7701 13.3399 19.5401 13.1499 19.3301 12.9699H19.3201Z" fill="url(#paint27_linear_2266_1909)"/>
<path d="M7.42011 12.8698C7.34011 12.8698 7.17011 13.0198 7.18011 13.0598C7.21011 13.1698 7.30011 13.3398 7.39011 13.3498C7.75011 13.4098 8.13011 13.4998 8.50011 13.1698C8.18011 12.7598 7.77011 12.8798 7.42011 12.8598V12.8698Z" fill="url(#paint28_linear_2266_1909)"/>
<path d="M6.60959 14.31C6.51959 14.32 6.39959 14.39 6.37959 14.46C6.29959 14.85 6.22959 15.25 6.48959 15.61C6.81959 15.34 6.96959 14.74 6.78959 14.43C6.74959 14.37 6.65959 14.3 6.60959 14.31Z" fill="url(#paint29_linear_2266_1909)"/>
<path d="M21.2498 6.22003C21.2398 6.14003 21.1498 6.03003 21.0798 6.01003C21.0098 5.99003 20.8598 6.03003 20.8298 6.10003C20.6398 6.46003 20.4498 6.84003 20.6098 7.29003C20.9898 7.10003 21.3098 6.56003 21.2498 6.23003V6.22003Z" fill="url(#paint30_linear_2266_1909)"/>
<path d="M21.8797 5.34003C22.2197 5.43003 22.5597 5.46003 22.8797 5.13003C22.5697 4.85003 22.2397 4.85003 21.9197 4.89003C21.8397 4.90003 21.7197 5.02003 21.7197 5.07003C21.7197 5.16003 21.7997 5.32003 21.8797 5.34003Z" fill="url(#paint31_linear_2266_1909)"/>
<path d="M28.7803 10.2099C28.6703 10.2499 28.5303 10.3799 28.5303 10.4699C28.5303 10.8199 28.5803 11.1799 28.6103 11.5599C29.0403 11.3199 29.2003 10.8399 29.0203 10.4199C28.9803 10.3299 28.8303 10.1899 28.7803 10.2099Z" fill="url(#paint32_linear_2266_1909)"/>
<defs>
<linearGradient id="paint0_linear_2266_1909" x1="4.03625" y1="0.00976416" x2="35.9777" y2="7.16465" gradientUnits="userSpaceOnUse">
<stop stop-color="#B63AB4"/>
<stop offset="1" stop-color="#513B9F"/>
</linearGradient>
<linearGradient id="paint1_linear_2266_1909" x1="10.1403" y1="19.3286" x2="11.155" y2="19.4217" gradientUnits="userSpaceOnUse">
<stop stop-color="#B63AB4"/>
<stop offset="1" stop-color="#513B9F"/>
</linearGradient>
<linearGradient id="paint2_linear_2266_1909" x1="14.6836" y1="22.8662" x2="16.5283" y2="23.9696" gradientUnits="userSpaceOnUse">
<stop stop-color="#B63AB4"/>
<stop offset="1" stop-color="#513B9F"/>
</linearGradient>
<linearGradient id="paint3_linear_2266_1909" x1="8.12065" y1="19.3472" x2="9.09454" y2="19.4454" gradientUnits="userSpaceOnUse">
<stop stop-color="#B63AB4"/>
<stop offset="1" stop-color="#513B9F"/>
</linearGradient>
<linearGradient id="paint4_linear_2266_1909" x1="10.1397" y1="23.9097" x2="10.8384" y2="23.9577" gradientUnits="userSpaceOnUse">
<stop stop-color="#B63AB4"/>
<stop offset="1" stop-color="#513B9F"/>
</linearGradient>
<linearGradient id="paint5_linear_2266_1909" x1="17.3125" y1="24.4697" x2="18.1934" y2="24.5573" gradientUnits="userSpaceOnUse">
<stop stop-color="#B63AB4"/>
<stop offset="1" stop-color="#513B9F"/>
</linearGradient>
<linearGradient id="paint6_linear_2266_1909" x1="13.4245" y1="18.729" x2="14.0553" y2="18.7767" gradientUnits="userSpaceOnUse">
<stop stop-color="#B63AB4"/>
<stop offset="1" stop-color="#513B9F"/>
</linearGradient>
<linearGradient id="paint7_linear_2266_1909" x1="16.33" y1="20.6899" x2="16.9645" y2="20.7397" gradientUnits="userSpaceOnUse">
<stop stop-color="#B63AB4"/>
<stop offset="1" stop-color="#513B9F"/>
</linearGradient>
<linearGradient id="paint8_linear_2266_1909" x1="10.9584" y1="22.52" x2="12.4998" y2="23.2337" gradientUnits="userSpaceOnUse">
<stop stop-color="#B63AB4"/>
<stop offset="1" stop-color="#513B9F"/>
</linearGradient>
<linearGradient id="paint9_linear_2266_1909" x1="10.5841" y1="16.0122" x2="11.9666" y2="16.6923" gradientUnits="userSpaceOnUse">
<stop stop-color="#B63AB4"/>
<stop offset="1" stop-color="#513B9F"/>
</linearGradient>
<linearGradient id="paint10_linear_2266_1909" x1="14.9755" y1="27.6963" x2="16.2773" y2="28.493" gradientUnits="userSpaceOnUse">
<stop stop-color="#B63AB4"/>
<stop offset="1" stop-color="#513B9F"/>
</linearGradient>
<linearGradient id="paint11_linear_2266_1909" x1="9.13075" y1="17.3501" x2="9.8486" y2="17.4223" gradientUnits="userSpaceOnUse">
<stop stop-color="#B63AB4"/>
<stop offset="1" stop-color="#513B9F"/>
</linearGradient>
<linearGradient id="paint12_linear_2266_1909" x1="16.4887" y1="19.0601" x2="17.6696" y2="19.9128" gradientUnits="userSpaceOnUse">
<stop stop-color="#B63AB4"/>
<stop offset="1" stop-color="#513B9F"/>
</linearGradient>
<linearGradient id="paint13_linear_2266_1909" x1="10.2744" y1="26.8789" x2="11.5519" y2="27.6378" gradientUnits="userSpaceOnUse">
<stop stop-color="#B63AB4"/>
<stop offset="1" stop-color="#513B9F"/>
</linearGradient>
<linearGradient id="paint14_linear_2266_1909" x1="16.2009" y1="15.0601" x2="17.025" y2="15.1562" gradientUnits="userSpaceOnUse">
<stop stop-color="#B63AB4"/>
<stop offset="1" stop-color="#513B9F"/>
</linearGradient>
<linearGradient id="paint15_linear_2266_1909" x1="13.8748" y1="16.5586" x2="15.2106" y2="17.3986" gradientUnits="userSpaceOnUse">
<stop stop-color="#B63AB4"/>
<stop offset="1" stop-color="#513B9F"/>
</linearGradient>
<linearGradient id="paint16_linear_2266_1909" x1="12.8038" y1="28.3501" x2="13.4617" y2="28.421" gradientUnits="userSpaceOnUse">
<stop stop-color="#B63AB4"/>
<stop offset="1" stop-color="#513B9F"/>
</linearGradient>
<linearGradient id="paint17_linear_2266_1909" x1="15.3865" y1="28.9492" x2="16.0251" y2="29.0267" gradientUnits="userSpaceOnUse">
<stop stop-color="#B63AB4"/>
<stop offset="1" stop-color="#513B9F"/>
</linearGradient>
<linearGradient id="paint18_linear_2266_1909" x1="10.9283" y1="29.1699" x2="11.4927" y2="29.2303" gradientUnits="userSpaceOnUse">
<stop stop-color="#B63AB4"/>
<stop offset="1" stop-color="#513B9F"/>
</linearGradient>
<linearGradient id="paint19_linear_2266_1909" x1="13.0815" y1="25.5" x2="13.6698" y2="25.5612" gradientUnits="userSpaceOnUse">
<stop stop-color="#B63AB4"/>
<stop offset="1" stop-color="#513B9F"/>
</linearGradient>
<linearGradient id="paint20_linear_2266_1909" x1="18.5457" y1="21.667" x2="19.5009" y2="22.0222" gradientUnits="userSpaceOnUse">
<stop stop-color="#B63AB4"/>
<stop offset="1" stop-color="#513B9F"/>
</linearGradient>
<linearGradient id="paint21_linear_2266_1909" x1="20.9928" y1="12.5498" x2="21.7574" y2="12.6244" gradientUnits="userSpaceOnUse">
<stop stop-color="#B63AB4"/>
<stop offset="1" stop-color="#513B9F"/>
</linearGradient>
<linearGradient id="paint22_linear_2266_1909" x1="21.7396" y1="14.1763" x2="22.9814" y2="14.3979" gradientUnits="userSpaceOnUse">
<stop stop-color="#B63AB4"/>
<stop offset="1" stop-color="#513B9F"/>
</linearGradient>
<linearGradient id="paint23_linear_2266_1909" x1="21.3972" y1="10.6611" x2="22.7546" y2="11.4028" gradientUnits="userSpaceOnUse">
<stop stop-color="#B63AB4"/>
<stop offset="1" stop-color="#513B9F"/>
</linearGradient>
<linearGradient id="paint24_linear_2266_1909" x1="23.2853" y1="13.25" x2="24.6309" y2="13.8406" gradientUnits="userSpaceOnUse">
<stop stop-color="#B63AB4"/>
<stop offset="1" stop-color="#513B9F"/>
</linearGradient>
<linearGradient id="paint25_linear_2266_1909" x1="19.938" y1="14.9419" x2="21.0216" y2="15.1434" gradientUnits="userSpaceOnUse">
<stop stop-color="#B63AB4"/>
<stop offset="1" stop-color="#513B9F"/>
</linearGradient>
<linearGradient id="paint26_linear_2266_1909" x1="21.216" y1="8.58545" x2="22.3567" y2="9.22995" gradientUnits="userSpaceOnUse">
<stop stop-color="#B63AB4"/>
<stop offset="1" stop-color="#513B9F"/>
</linearGradient>
<linearGradient id="paint27_linear_2266_1909" x1="18.9997" y1="12.9199" x2="19.8928" y2="13.1404" gradientUnits="userSpaceOnUse">
<stop stop-color="#B63AB4"/>
<stop offset="1" stop-color="#513B9F"/>
</linearGradient>
<linearGradient id="paint28_linear_2266_1909" x1="7.29522" y1="12.8579" x2="8.40853" y2="13.4985" gradientUnits="userSpaceOnUse">
<stop stop-color="#B63AB4"/>
<stop offset="1" stop-color="#513B9F"/>
</linearGradient>
<linearGradient id="paint29_linear_2266_1909" x1="6.35564" y1="14.3091" x2="6.97743" y2="14.3732" gradientUnits="userSpaceOnUse">
<stop stop-color="#B63AB4"/>
<stop offset="1" stop-color="#513B9F"/>
</linearGradient>
<linearGradient id="paint30_linear_2266_1909" x1="20.6117" y1="6.00488" x2="21.3918" y2="6.1078" gradientUnits="userSpaceOnUse">
<stop stop-color="#B63AB4"/>
<stop offset="1" stop-color="#513B9F"/>
</linearGradient>
<linearGradient id="paint31_linear_2266_1909" x1="21.8212" y1="4.87109" x2="22.8413" y2="5.40722" gradientUnits="userSpaceOnUse">
<stop stop-color="#B63AB4"/>
<stop offset="1" stop-color="#513B9F"/>
</linearGradient>
<linearGradient id="paint32_linear_2266_1909" x1="28.5795" y1="10.208" x2="29.2049" y2="10.2704" gradientUnits="userSpaceOnUse">
<stop stop-color="#B63AB4"/>
<stop offset="1" stop-color="#513B9F"/>
</linearGradient>
</defs>
</svg>
