<svg preserveAspectRatio="none" width="100%" height="100%" overflow="visible" style="display: block;" viewBox="0 0 32 32" fill="none" xmlns="http://www.w3.org/2000/svg">
<g id="Group">
<path id="Vector" d="M10.8138 19.6414C12.2483 20.9655 14.1241 21.6276 16 21.6276C17.8759 21.6276 19.7517 20.9655 21.1862 19.6414L20.4138 18.7586C19.2 19.9724 17.5448 20.5241 16 20.5241C14.4552 20.5241 12.8 19.9724 11.5862 18.7586L10.8138 19.6414Z" fill="#B63AB4"/>
<path id="Vector_2" d="M27.3655 4.63448C33.5448 10.9241 33.5448 21.0759 27.3655 27.3655C21.0759 33.5448 10.9241 33.5448 4.63448 27.3655C-1.54483 21.0759 -1.54483 10.9241 4.63448 4.63448C10.9241 -1.54483 21.0759 -1.54483 27.3655 4.63448ZM26.2621 5.73793C20.6345 0.110345 11.3655 0.110345 5.73793 5.73793C0.110345 11.3655 0.110345 20.6345 5.73793 26.2621C11.3655 32 20.6345 32 26.2621 26.2621C32 20.6345 32 11.3655 26.2621 5.73793Z" fill="#B63AB4"/>
<path id="Vector_3" d="M13.2414 12.3586L9.93103 15.7793L6.51034 12.3586L7.50345 11.2552L9.93103 13.6828L12.2483 11.3655L13.2414 12.3586Z" fill="#B63AB4"/>
<path id="Vector_4" d="M18.7586 12.3586L22.069 15.7793L25.4897 12.3586L24.4966 11.2552L22.069 13.6828L19.7517 11.3655L18.7586 12.3586Z" fill="#B63AB4"/>
<path id="Vector_5" d="M10.8138 6.84138L14.5655 10.5931L13.7931 11.3655L9.93103 7.61379L10.8138 6.84138Z" fill="#B63AB4"/>
<path id="Vector_6" d="M22.069 7.61379L18.3172 11.3655L17.5448 10.5931L21.2966 6.84138L22.069 7.61379Z" fill="#B63AB4"/>
</g>
</svg>
