<svg width="32" height="32" viewBox="0 0 32 32" fill="none" xmlns="http://www.w3.org/2000/svg">
<g clip-path="url(#clip0_2266_1843)">
<path d="M15.9502 -0.0297852C24.7702 -0.0297852 31.9202 7.11022 31.9202 15.9302C31.9202 24.7502 24.7702 31.8902 15.9602 31.8902C7.15023 31.8902 -0.00976562 24.7502 -0.00976562 15.9302C-0.00976562 7.11022 7.13023 -0.0297852 15.9502 -0.0297852ZM15.9502 1.65021C8.06023 1.65021 1.67023 8.04021 1.67023 15.9302C1.67023 23.8202 8.06023 30.2102 15.9502 30.2102C23.8402 30.2102 30.2302 23.8202 30.2302 15.9302C30.2302 8.04021 23.8402 1.65021 15.9502 1.65021ZM21.7902 17.3402C21.9402 17.7802 21.7002 18.2602 21.2602 18.4002C19.9202 18.8502 19.3102 19.6502 19.3102 20.9602C19.3102 21.2702 19.4902 21.6302 19.9002 22.0502C20.2302 22.3802 20.2302 22.9102 19.9002 23.2402C19.5702 23.5702 19.0402 23.5702 18.7102 23.2402C18.1302 22.6602 17.7702 22.0402 17.6602 21.3902C17.2802 21.1102 16.7102 20.9702 15.9402 20.9702C15.1702 20.9702 14.6102 21.1202 14.2202 21.3902C14.1202 22.0402 13.7602 22.6602 13.1802 23.2402C12.8502 23.5702 12.3202 23.5702 11.9902 23.2402C11.6602 22.9102 11.6602 22.3802 11.9902 22.0502C12.4002 21.6402 12.5802 21.2802 12.5802 20.9602C12.5802 19.6502 11.9802 18.8402 10.6302 18.4002C10.1902 18.2502 9.95024 17.7802 10.1002 17.3402C10.2502 16.9002 10.7202 16.6602 11.1602 16.8102C12.6902 17.3202 13.6802 18.2702 14.0702 19.5902C14.6102 19.3902 15.2402 19.2902 15.9402 19.2902C16.6402 19.2902 17.2702 19.3902 17.8102 19.5902C18.1902 18.2702 19.1802 17.3202 20.7102 16.8102C21.1502 16.6602 21.6302 16.9002 21.7702 17.3402H21.7902ZM10.9102 10.0502C11.3202 10.0502 11.6702 10.3502 11.7402 10.7402V10.8902L11.7502 14.2502C11.7502 14.7102 11.3702 15.0902 10.9102 15.0902C10.5002 15.0902 10.1502 14.7902 10.0802 14.4002V14.2502L10.0702 10.8902C10.0702 10.4302 10.4502 10.0502 10.9102 10.0502ZM20.9902 10.0502C21.4002 10.0502 21.7502 10.3502 21.8202 10.7402V10.8902L21.8302 14.2502C21.8302 14.7102 21.4502 15.0902 20.9902 15.0902C20.5802 15.0902 20.2302 14.7902 20.1602 14.4002V14.2502L20.1502 10.8902C20.1502 10.4302 20.5302 10.0502 20.9902 10.0502ZM18.0102 5.15022C18.4002 4.89021 18.9202 5.00022 19.1802 5.38022C20.1402 6.82022 21.5502 7.53022 23.5202 7.53022C23.9802 7.53022 24.3602 7.91021 24.3602 8.37021C24.3602 8.83021 23.9802 9.21021 23.5202 9.21021C21.0102 9.21021 19.0602 8.24022 17.7802 6.32022C17.5202 5.93022 17.6302 5.41022 18.0102 5.15022ZM13.9002 5.15022C14.2902 5.41022 14.3902 5.93022 14.1302 6.32022C12.8502 8.24022 10.9002 9.21021 8.39023 9.21021C7.93023 9.21021 7.55023 8.83021 7.55023 8.37021C7.55023 7.91021 7.93023 7.53022 8.39023 7.53022C10.3602 7.53022 11.7702 6.82022 12.7302 5.38022C12.9902 4.99022 13.5102 4.89021 13.9002 5.15022Z" fill="url(#paint0_linear_2266_1843)"/>
</g>
<defs>
<linearGradient id="paint0_linear_2266_1843" x1="2.78411" y1="-0.0297866" x2="36.6693" y2="8.09593" gradientUnits="userSpaceOnUse">
<stop stop-color="#B63AB4"/>
<stop offset="1" stop-color="#513B9F"/>
</linearGradient>
<clipPath id="clip0_2266_1843">
<rect width="32" height="32" fill="white"/>
</clipPath>
</defs>
</svg>
