<svg width="32" height="32" viewBox="0 0 32 32" fill="none" xmlns="http://www.w3.org/2000/svg">
<g clip-path="url(#clip0_2266_3179)">
<path d="M20.6 23.53C20.33 23.35 19.98 23.36 19.71 23.54C19.7 23.55 19.69 23.55 19.68 23.56C19.54 23.47 19.4 23.39 19.25 23.31C21.64 21.98 23.33 19.5 23.53 16.6C23.55 16.34 23.36 16.12 23.1 16.08C16.91 15.32 14.81 13.11 14.11 11.86C14.02 11.69 13.83 11.6 13.64 11.61C13.45 11.63 13.29 11.76 13.22 11.94C12.86 12.98 11.61 14.85 7.24003 15.65C7.01003 15.69 6.84003 15.9 6.84003 16.14C6.89003 19.21 8.62003 21.88 11.14 23.3C10.99 23.38 10.85 23.46 10.71 23.55C10.7 23.54 10.69 23.54 10.68 23.53C10.41 23.35 10.06 23.35 9.79003 23.52C7.23003 25.19 5.26003 27.97 4.23003 31.36C4.15003 31.62 4.30003 31.89 4.55003 31.97C4.60003 31.98 4.64003 31.99 4.69003 31.99C4.90003 31.99 5.09003 31.85 5.16003 31.65C5.17003 31.6 5.19003 31.56 5.21003 31.51C6.17003 28.45 7.95003 25.93 10.23 24.41C11.71 25.37 13.42 25.87 15.19 25.87C16.96 25.87 18.66 25.37 20.14 24.42C22.42 25.95 24.19 28.46 25.15 31.52C25.16 31.57 25.18 31.61 25.2 31.66C25.28 31.92 25.55 32.06 25.81 31.98C26.07 31.9 26.21 31.63 26.13 31.37C25.12 27.98 23.15 25.2 20.6 23.53ZM7.85003 16.53C11.46 15.78 13.06 14.28 13.77 13.08C14.96 14.6 17.43 16.27 22.51 16.98C22.03 20.61 18.9 23.38 15.2 23.38C11.34 23.39 8.12003 20.35 7.85003 16.53ZM15.21 24.88C13.99 24.88 12.81 24.61 11.72 24.1C11.91 24 12.1 23.91 12.3 23.83C13.21 24.17 14.19 24.36 15.21 24.36C16.23 24.36 17.2 24.17 18.11 23.83C18.31 23.91 18.5 24 18.69 24.1C17.6 24.62 16.42 24.88 15.21 24.88ZM17.15 3.07004C17.2 3.33004 17.03 3.59004 16.77 3.64004C16.74 3.64004 16.7 3.64004 16.67 3.64004C16.44 3.64004 16.24 3.48004 16.19 3.25004C16.16 3.09004 16.07 2.95004 15.93 2.86004C15.79 2.77004 15.63 2.74004 15.47 2.77004C15.21 2.82004 14.95 2.65004 14.9 2.39004C14.85 2.13004 15.02 1.87004 15.28 1.82004C15.69 1.74004 16.12 1.82004 16.47 2.05004C16.83 2.29004 17.07 2.65004 17.15 3.06004V3.07004ZM27.01 11.96C26.91 11.2 26.53 10.52 25.92 10.05C25.33 9.59004 24.61 9.39004 23.87 9.46004C23.77 9.29004 23.68 9.13004 23.57 8.97004C23.92 8.49004 24.13 7.91004 24.13 7.27004C24.13 6.57004 23.87 5.93004 23.45 5.43004C23.72 4.89004 23.79 4.29004 23.62 3.71004C23.45 3.09004 23.05 2.58004 22.49 2.26004C21.75 1.84004 20.88 1.86004 20.18 2.24004C19.71 2.01004 19.18 1.93004 18.66 2.02004C18.4 1.44004 17.99 0.950039 17.45 0.590039C17.03 0.310039 16.57 0.140039 16.09 0.0700391H16.07C15.99 0.0700391 15.91 0.0500391 15.82 0.0400391H15.74C15.67 0.0400391 15.61 0.0400391 15.54 0.0400391C15.49 0.0400391 15.43 0.0400391 15.38 0.0400391C15.33 0.0400391 15.29 0.0400391 15.24 0.0500391C15.14 0.0500391 15.03 0.0800391 14.93 0.100039C14.83 0.120039 14.73 0.150039 14.63 0.180039C14.6 0.190039 14.57 0.200039 14.54 0.210039C14.47 0.230039 14.41 0.260039 14.34 0.280039C14.31 0.280039 14.27 0.310039 14.24 0.320039C14.18 0.350039 14.12 0.380039 14.06 0.410039C14.03 0.410039 14 0.440039 13.97 0.450039C13.89 0.500039 13.8 0.550039 13.72 0.600039C13.7 0.600039 13.69 0.620039 13.68 0.630039C13.61 0.680039 13.55 0.720039 13.48 0.780039C13.46 0.800039 13.43 0.820039 13.41 0.840039C13.35 0.890039 13.3 0.940039 13.25 0.990039C13.25 0.990039 13.23 1.01004 13.21 1.03004C13.07 1.18004 12.94 1.34004 12.82 1.51004H12.81C12.81 1.51004 12.8 1.54004 12.79 1.55004C12.75 1.62004 12.7 1.69004 12.66 1.76004C12.65 1.79004 12.63 1.81004 12.62 1.84004C12.59 1.90004 12.56 1.97004 12.53 2.03004C12.51 2.08004 12.49 2.13004 12.47 2.18004C12.45 2.24004 12.43 2.30004 12.41 2.36004C12.39 2.42004 12.37 2.48004 12.36 2.55004C12.35 2.58004 12.35 2.60004 12.34 2.63004C12.32 2.70004 12.31 2.77004 12.3 2.84004V2.86004C11.97 2.71004 11.61 2.62004 11.23 2.62004C10.1 2.62004 9.13003 3.35004 8.81003 4.40004C8.37003 4.51004 7.98003 4.74004 7.65003 5.06004C7.42003 5.29004 7.23003 5.57004 7.11003 5.86004C6.70003 5.80004 6.28003 5.81004 5.87003 5.93004C5.15003 6.13004 4.56003 6.60004 4.19003 7.24004C3.82003 7.89004 3.73003 8.64004 3.93003 9.36004C4.13003 10.08 4.60003 10.67 5.24003 11.04C5.39003 11.12 5.54003 11.19 5.70003 11.24C5.31003 12.36 5.10003 13.56 5.10003 14.81V26.64C5.10003 26.91 5.32003 27.13 5.59003 27.13C5.86003 27.13 6.08003 26.91 6.08003 26.64V14.82C6.08003 13.61 6.30003 12.46 6.69003 11.4C6.92003 11.39 7.14003 11.36 7.37003 11.3C8.09003 11.1 8.68003 10.63 9.05003 9.99004C9.16003 9.80004 9.24003 9.60004 9.30003 9.39004C9.35003 9.39004 9.40003 9.40004 9.45003 9.40004C9.86003 9.40004 10.26 9.30004 10.61 9.12004C10.73 9.49004 10.94 9.83004 11.22 10.12C12.21 11.11 13.82 11.11 14.8 10.12C15.37 10.8 16.23 11.22 17.14 11.22C18.25 11.22 19.24 10.63 19.78 9.71004C20.23 9.98004 20.74 10.13 21.28 10.13C21.86 10.13 22.4 9.95004 22.86 9.65004C22.88 9.68004 22.89 9.70004 22.91 9.73004C22.52 9.92004 22.17 10.2 21.9 10.55C21.43 11.16 21.22 11.91 21.32 12.67C21.42 13.43 21.8 14.11 22.41 14.58C22.92 14.98 23.53 15.18 24.16 15.18C24.21 15.18 24.27 15.17 24.32 15.17V26.65C24.32 26.92 24.54 27.14 24.81 27.14C25.08 27.14 25.3 26.92 25.3 26.65V14.95C26.44 14.45 27.17 13.25 27.01 11.95V11.96ZM21.32 2.92004C21.56 2.92004 21.8 2.98004 22.02 3.10004C22.7 3.49004 22.95 4.36004 22.56 5.04004C22.17 5.72004 21.3 5.97004 20.62 5.58004C20.29 5.40004 20.05 5.10004 19.95 4.73004C19.85 4.36004 19.9 3.98004 20.08 3.65004C20.34 3.18004 20.83 2.92004 21.32 2.92004ZM8.20003 9.52004C7.71003 10.39 6.60003 10.7 5.73003 10.21C5.30003 9.96004 5.00003 9.57004 4.87003 9.11004C4.74003 8.64004 4.80003 8.15004 5.04003 7.73004C5.28003 7.31004 5.67003 7.00004 6.13003 6.87004C6.29003 6.83004 6.46003 6.80004 6.62003 6.80004C6.93003 6.80004 7.23003 6.88004 7.51003 7.04004C8.38003 7.53004 8.69003 8.64004 8.20003 9.52004ZM21.28 9.16004C20.77 9.16004 20.3 8.96004 19.94 8.60004C19.82 8.48004 19.65 8.43004 19.48 8.47004C19.31 8.51004 19.18 8.63004 19.13 8.80004C18.85 9.67004 18.06 10.25 17.14 10.25C16.33 10.25 15.61 9.80004 15.26 9.07004C15.18 8.90004 15.01 8.80004 14.83 8.79004H14.82C14.64 8.79004 14.47 8.89004 14.39 9.05004C14.32 9.19004 14.22 9.32004 14.11 9.43004C13.81 9.73004 13.42 9.89004 13 9.89004C12.58 9.89004 12.19 9.73004 11.89 9.43004C11.58 9.12004 11.42 8.70004 11.44 8.26004C11.45 8.06004 11.33 7.87004 11.14 7.79004C10.95 7.71004 10.73 7.76004 10.6 7.91004L10.55 7.98004C10.23 8.30004 9.81003 8.45004 9.40003 8.43004C9.34003 7.54004 8.85003 6.70004 8.03003 6.22004C8.11003 6.06004 8.21003 5.90004 8.34003 5.77004C8.59003 5.52004 8.91003 5.37004 9.26003 5.32004C9.48003 5.29004 9.65003 5.13004 9.68003 4.92004C9.80003 4.16004 10.45 3.61004 11.22 3.61004C11.63 3.61004 12.02 3.77004 12.31 4.06004C12.36 4.29004 12.56 4.45004 12.79 4.45004C12.82 4.45004 12.85 4.45004 12.89 4.44004C13.15 4.39004 13.32 4.13004 13.27 3.87004C13.14 3.25004 13.27 2.61004 13.62 2.08004C13.97 1.55004 14.51 1.19004 15.13 1.06004C15.75 0.930039 16.39 1.06004 16.92 1.41004C17.45 1.76004 17.81 2.30004 17.94 2.92004C17.99 3.18004 18.25 3.35004 18.51 3.30004C18.68 3.26004 18.82 3.14004 18.87 2.98004C19.03 2.96004 19.19 2.96004 19.35 2.98004C19.31 3.04004 19.27 3.10004 19.23 3.17004C18.58 4.32004 18.99 5.79004 20.14 6.44004C20.51 6.65004 20.92 6.75004 21.32 6.75004C21.87 6.75004 22.4 6.56004 22.83 6.21004C23.04 6.51004 23.16 6.88004 23.16 7.28004C23.16 8.30004 22.32 9.15004 21.28 9.15004V9.16004ZM24.4 14.2C23.9 14.26 23.4 14.13 23 13.82C22.6 13.51 22.34 13.06 22.28 12.56C22.22 12.06 22.35 11.56 22.66 11.16C22.97 10.76 23.42 10.5 23.92 10.44C24 10.43 24.08 10.42 24.16 10.42C24.58 10.42 24.98 10.56 25.32 10.82C25.72 11.13 25.98 11.58 26.04 12.08C26.17 13.12 25.44 14.07 24.4 14.2ZM25.55 12.14C25.58 12.41 25.39 12.65 25.13 12.68H25.07C24.83 12.68 24.62 12.5 24.59 12.25C24.56 12.02 24.35 11.85 24.12 11.88C23.85 11.91 23.61 11.72 23.58 11.46C23.55 11.19 23.74 10.95 24 10.92C24.75 10.83 25.45 11.38 25.55 12.14ZM7.48003 8.10004C7.34003 8.33004 7.05003 8.41004 6.81003 8.28004C6.62003 8.17004 6.38003 8.24004 6.28003 8.43004C6.19003 8.59004 6.02003 8.68004 5.85003 8.68004C5.77003 8.68004 5.69003 8.66004 5.61003 8.62004C5.38003 8.48004 5.30003 8.18004 5.43003 7.95004C5.61003 7.63004 5.90003 7.40004 6.25003 7.31004C6.60003 7.21004 6.97003 7.26004 7.29003 7.44004C7.53003 7.56004 7.61003 7.86004 7.48003 8.10004ZM20.26 3.75004C20.42 3.47004 20.68 3.26004 20.99 3.18004C21.3 3.09004 21.63 3.13004 21.91 3.29004C22.14 3.42004 22.23 3.72004 22.09 3.95004C21.96 4.18004 21.66 4.27004 21.43 4.13004C21.35 4.09004 21.28 4.10004 21.24 4.11004C21.2 4.12004 21.14 4.15004 21.09 4.23004C21 4.39004 20.84 4.48004 20.67 4.48004C20.59 4.48004 20.51 4.46004 20.43 4.42004C20.21 4.28004 20.13 3.98004 20.26 3.75004Z" fill="url(#paint0_linear_2266_3179)"/>
</g>
<defs>
<linearGradient id="paint0_linear_2266_3179" x1="5.85668" y1="0.0400376" x2="31.1339" y2="4.43951" gradientUnits="userSpaceOnUse">
<stop stop-color="#B63AB4"/>
<stop offset="1" stop-color="#513B9F"/>
</linearGradient>
<clipPath id="clip0_2266_3179">
<rect width="32" height="32" fill="white"/>
</clipPath>
</defs>
</svg>
