<svg width="32" height="32" viewBox="0 0 32 32" fill="none" xmlns="http://www.w3.org/2000/svg">
<path d="M22.1598 22.17C21.8498 21.97 21.4498 21.97 21.1298 22.17C21.1198 22.17 21.1098 22.18 21.0898 22.19C20.9298 22.09 20.7598 22 20.5898 21.91C23.3498 20.37 25.2898 17.51 25.5298 14.17C25.5498 13.87 25.3398 13.61 25.0398 13.57C17.9098 12.69 15.4898 10.14 14.6798 8.71003C14.5698 8.52003 14.3598 8.40003 14.1398 8.43003C13.9198 8.45003 13.7298 8.60003 13.6598 8.81003C13.2498 10.01 11.8098 12.17 6.76976 13.09C6.49976 13.14 6.30976 13.38 6.30976 13.65C6.36976 17.19 8.35976 20.27 11.2698 21.9C11.0998 21.99 10.9398 22.08 10.7698 22.18C10.7598 22.18 10.7498 22.17 10.7298 22.16C10.4198 21.95 10.0098 21.95 9.69976 22.16C6.74976 24.09 4.46976 27.29 3.28976 31.2C3.19976 31.5 3.36976 31.81 3.65976 31.9C3.70976 31.92 3.76976 31.92 3.81976 31.92C4.05976 31.92 4.27976 31.76 4.35976 31.52C4.37976 31.46 4.39976 31.41 4.40976 31.36C5.51976 27.83 7.56976 24.93 10.1998 23.17C11.9098 24.27 13.8798 24.85 15.9198 24.85C17.9598 24.85 19.9298 24.27 21.6298 23.17C24.2598 24.93 26.2998 27.83 27.4098 31.35C27.4298 31.4 27.4498 31.46 27.4598 31.51C27.5498 31.81 27.8598 31.97 28.1598 31.88C28.4598 31.79 28.6198 31.48 28.5298 31.18C27.3498 27.29 25.0698 24.08 22.1298 22.15L22.1598 22.17ZM7.45976 14.11C11.6198 13.25 13.4698 11.51 14.2898 10.13C15.6698 11.88 18.5098 13.81 24.3698 14.63C23.8198 18.81 20.2098 22.01 15.9398 22.01C11.6698 22.01 7.76976 18.51 7.45976 14.1V14.11ZM15.9398 23.73C14.5398 23.73 13.1698 23.42 11.9198 22.83C12.1398 22.72 12.3598 22.61 12.5898 22.52C13.6398 22.91 14.7698 23.13 15.9398 23.13C17.1098 23.13 18.2398 22.91 19.2798 22.52C19.5098 22.62 19.7298 22.72 19.9498 22.83C18.6998 23.42 17.3398 23.72 15.9398 23.72V23.73ZM30.4798 23.3C30.4798 23.3 30.2698 23.34 29.9798 23.34C29.4398 23.34 28.5398 23.23 27.7798 22.6C27.6998 22.54 27.6298 22.47 27.5698 22.4V25.79C27.5698 26.1 27.3198 26.35 27.0098 26.35C26.6998 26.35 26.4498 26.1 26.4498 25.79V12.15C26.4498 6.09003 21.7298 1.16003 15.9298 1.16003C10.1298 1.16003 5.40976 6.08003 5.40976 12.14V25.78C5.40976 26.09 5.15976 26.34 4.84976 26.34C4.53976 26.34 4.28976 26.09 4.28976 25.78V22.39C4.21976 22.46 4.14976 22.53 4.07976 22.59C3.31976 23.22 2.41976 23.33 1.87976 23.33C1.58976 23.33 1.40976 23.3 1.37976 23.29C1.06976 23.24 0.869756 22.95 0.919756 22.64C0.969756 22.34 1.25976 22.13 1.56976 22.18C1.58976 22.18 2.61976 22.34 3.36976 21.71C3.94976 21.23 4.24976 20.39 4.27976 19.22C4.27976 19.18 4.27976 19.14 4.27976 19.1V18.69C4.27976 18.69 4.21976 18.75 4.17976 18.78C3.47976 19.35 2.66976 19.46 2.16976 19.46C1.90976 19.46 1.73976 19.43 1.71976 19.43C1.40976 19.38 1.20976 19.09 1.25976 18.78C1.30976 18.48 1.59976 18.27 1.90976 18.32C1.92976 18.32 2.81976 18.46 3.47976 17.91C3.97976 17.49 4.24976 16.76 4.26976 15.73C4.26976 15.69 4.26976 15.65 4.26976 15.61V14.94C3.78976 15.25 3.28976 15.31 2.95976 15.31C2.76976 15.31 2.63976 15.29 2.59976 15.28C2.28976 15.23 2.08976 14.94 2.13976 14.63C2.18976 14.33 2.47976 14.12 2.77976 14.17C2.79976 14.17 3.35976 14.25 3.74976 13.91C4.05976 13.65 4.22976 13.17 4.23976 12.5C4.23976 12.46 4.23976 12.42 4.23976 12.38V12.1C4.28976 5.46003 9.50976 0.0300293 15.9298 0.0300293C22.3498 0.0300293 27.5698 5.46003 27.5698 12.14V12.42C27.5698 12.42 27.5798 12.5 27.5898 12.54C27.5998 13.21 27.7698 13.68 28.0798 13.95C28.4798 14.29 29.0498 14.21 29.0498 14.21C29.3498 14.16 29.6398 14.37 29.6898 14.67C29.7398 14.97 29.5398 15.26 29.2398 15.31C29.1998 15.31 29.0698 15.34 28.8798 15.34C28.5498 15.34 28.0398 15.28 27.5698 14.97V15.64C27.5698 15.64 27.5798 15.72 27.5898 15.76C27.6098 16.78 27.8698 17.52 28.3798 17.94C29.0398 18.49 29.9398 18.35 29.9498 18.35C30.2498 18.3 30.5398 18.51 30.5898 18.81C30.6398 19.11 30.4398 19.4 30.1298 19.45C30.1098 19.45 29.9398 19.48 29.6798 19.48C29.1798 19.48 28.3698 19.38 27.6698 18.8C27.6398 18.77 27.6098 18.74 27.5698 18.71V19.12C27.5698 19.12 27.5798 19.2 27.5898 19.24C27.6098 20.41 27.9198 21.25 28.4998 21.73C29.2598 22.36 30.2798 22.2 30.2898 22.2C30.5898 22.14 30.8898 22.35 30.9398 22.66C30.9898 22.96 30.7898 23.25 30.4798 23.31V23.3Z" fill="url(#paint0_linear_2266_3170)"/>
<defs>
<linearGradient id="paint0_linear_2266_3170" x1="3.5402" y1="0.0300278" x2="35.6126" y2="7.27146" gradientUnits="userSpaceOnUse">
<stop stop-color="#B63AB4"/>
<stop offset="1" stop-color="#513B9F"/>
</linearGradient>
</defs>
</svg>
