<svg preserveAspectRatio="none" width="100%" height="100%" overflow="visible" style="display: block;" viewBox="0 0 32 32" fill="none" xmlns="http://www.w3.org/2000/svg">
<g id="Group">
<path id="Vector" d="M27.3603 4.63972C33.5466 10.9385 33.5466 21.174 27.3603 27.3603C21.174 33.5466 10.9385 33.5466 4.63972 27.3603C-1.54657 21.174 -1.54657 10.9385 4.63972 4.63972C10.9385 -1.54657 21.174 -1.54657 27.3603 4.63972ZM26.348 5.7645C20.6116 0.0281195 11.3884 0.0281195 5.7645 5.7645C0.0281195 11.3884 0.0281195 20.6116 5.7645 26.348C11.3884 31.9719 20.6116 31.9719 26.348 26.348C31.9719 20.6116 31.9719 11.3884 26.348 5.7645Z" fill="#B63AB4"/>
<path id="Vector_2" d="M13.3005 14.6503L9.92619 11.2759L6.55185 14.7627L7.56415 15.775L9.92619 13.413L12.1757 15.6626L13.3005 14.6503Z" fill="#B63AB4"/>
<path id="Vector_3" d="M18.812 14.6503L22.0738 11.2759L25.5606 14.7627L24.4359 15.775L22.0738 13.413L19.8243 15.6626L18.812 14.6503Z" fill="#B63AB4"/>
<path id="Vector_4" d="M13.188 21.6239H18.9244V22.7487H13.188V21.6239Z" fill="#B63AB4"/>
</g>
</svg>
