<svg width="32" height="32" viewBox="2 2 28 28" fill="none" xmlns="http://www.w3.org/2000/svg">
<path d="M23.9505 31.4101C22.3005 31.0701 21.1205 30.1301 20.4205 28.6501C19.3805 26.5001 19.7105 24.0101 19.8505 23.6401C21.0905 22.7001 22.0005 21.4501 22.6805 19.8001C23.6905 19.7701 24.6605 18.9901 25.3405 17.7101C25.9105 16.6301 26.1805 15.1901 25.6105 14.3101C25.4805 14.1401 25.3105 13.9401 25.0405 13.8101C25.7805 12.4301 25.9105 11.2901 25.9105 9.77012C25.9105 4.46012 21.5305 0.120117 16.1205 0.120117C13.9305 0.120117 11.8805 0.830117 10.2705 2.04012H10.2405C10.2405 2.04012 10.2105 2.07012 10.1705 2.07012C7.82046 3.89012 6.33046 6.65012 6.33046 9.77012C6.33046 11.3801 6.36046 12.2901 7.07046 13.6101C6.73046 13.7401 6.50046 13.9501 6.36046 14.1501C5.75046 15.0201 6.06046 16.5001 6.63046 17.5501C7.30046 18.8601 8.31046 19.6401 9.36046 19.6401C9.39046 19.6401 9.46046 19.6401 9.49046 19.6101C10.2305 21.3601 11.2105 22.7101 12.3805 23.6101C12.5105 23.9801 12.8205 26.5001 11.8105 28.6201C11.1005 30.1001 9.89046 31.0401 8.28046 31.3801C8.15046 31.4101 8.04046 31.5501 8.08046 31.7201C8.11046 31.8501 8.21046 31.9601 8.35046 31.9601H8.42046C11.3805 31.3201 12.4905 29.0701 12.8905 27.2801C13.1605 26.1701 13.1605 24.8901 13.0605 24.0801C13.9705 24.6501 15.0405 24.9901 16.1605 24.9901C17.2805 24.9901 18.3505 24.6901 19.2605 24.0801C19.1605 24.8901 19.1905 26.1701 19.4305 27.2801C19.8305 29.0601 20.9405 31.3201 23.9005 31.9601H23.9705C24.1005 31.9601 24.2105 31.8601 24.2405 31.7201C24.2405 31.5901 24.1405 31.4201 23.9705 31.4201L23.9505 31.4101ZM25.3305 9.77012C25.3305 11.4501 25.0905 12.4601 24.4605 13.6401C24.3605 13.6401 24.2205 13.6101 24.0905 13.6401C24.7005 6.10012 19.8505 4.29012 19.8205 4.25012C19.6905 4.22012 19.5205 4.28012 19.4805 4.42012C19.4105 4.55012 19.5105 4.72012 19.6505 4.76012C19.6805 4.76012 22.9805 6.04012 23.5205 10.9201C21.6005 6.21012 15.7205 6.28012 15.6505 6.28012C15.4805 6.28012 15.3805 6.41012 15.3805 6.55012C15.3805 6.72012 15.5105 6.82012 15.6505 6.82012C15.9205 6.82012 22.1105 6.79012 23.3505 12.2701C22.7405 11.5301 21.8705 10.8601 20.7305 10.2501C20.0605 9.91012 19.3505 9.61012 18.6805 9.34012C17.9705 9.04012 17.2305 8.73012 16.5305 8.36012C13.8705 6.95012 12.2205 4.66012 10.7405 2.37012C12.2505 1.29012 14.1005 0.690117 16.0905 0.690117C21.2005 0.690117 25.3405 4.76012 25.3405 9.77012H25.3305ZM6.86046 9.77012C6.86046 6.91012 8.21046 4.39012 10.2905 2.71012C11.6705 4.86012 13.2505 7.05012 15.6705 8.50012C15.1305 9.21012 12.6805 12.1301 8.67046 13.3401C8.87046 11.1901 10.8605 9.07012 10.8905 9.07012C10.9905 8.97012 10.9905 8.77012 10.8905 8.67012C10.7905 8.57012 10.6205 8.57012 10.4905 8.67012C10.3905 8.77012 8.24046 11.0901 8.14046 13.4801C7.97046 13.4801 7.84046 13.4501 7.67046 13.4801C6.90046 12.2001 6.86046 11.3901 6.86046 9.78012V9.77012ZM12.7205 23.2001C11.4805 22.2601 10.4705 20.7801 9.76046 18.8301L9.29046 17.2501C9.26046 17.1201 9.09046 17.0101 8.95046 17.0801C8.82046 17.1101 8.71046 17.2801 8.78046 17.4201L9.25046 19.0001C9.25046 19.0001 9.28046 19.0701 9.28046 19.1001C8.37046 19.0701 7.56046 18.1601 7.13046 17.3201C6.56046 16.2401 6.46046 15.0701 6.83046 14.4901C7.07046 14.1501 7.50046 14.0201 8.07046 14.0901H8.14046C8.21046 14.0901 8.27046 14.0601 8.34046 14.0201C8.37046 14.0201 8.41046 14.0201 8.44046 13.9901C12.9805 12.7801 15.6105 9.48012 16.1105 8.81012C16.1405 8.81012 16.1805 8.84012 16.2105 8.88012C16.9205 9.25012 17.6905 9.59012 18.4005 9.89012C19.0705 10.1601 19.7505 10.4601 20.4205 10.8001C22.0705 11.6401 23.0805 12.6501 23.5205 13.7901V13.8901C23.5205 13.8901 23.4905 13.9901 23.4905 14.0601C23.5205 14.2301 23.6605 14.3301 23.7905 14.3001C24.4005 14.2301 24.8005 14.3701 25.0305 14.7001C25.4305 15.2701 25.3005 16.4501 24.7605 17.5301C24.3605 18.3001 23.6505 19.1401 22.8105 19.2801C22.8805 19.0401 22.9805 18.8401 23.0505 18.6101L23.3905 17.2601C23.4205 17.1301 23.3205 16.9601 23.1905 16.9201C23.0605 16.8801 22.8905 16.9901 22.8505 17.1201L22.5505 18.4701C21.8805 20.6601 20.9005 22.2001 19.4205 23.2801C18.4805 24.0501 17.3005 24.4901 16.0605 24.4901C14.8805 24.4201 13.6705 23.9901 12.7305 23.2101L12.7205 23.2001Z" fill="#5C4A3B" stroke="#5C4A3B" stroke-width="0.4"/>
<path d="M13.7898 14.7499C12.4798 15.7599 10.8998 14.7799 10.7998 14.7499C10.6698 14.6799 10.4998 14.7199 10.4298 14.8199C10.3598 14.9199 10.3998 15.1199 10.4998 15.1899C10.5698 15.2199 11.4098 15.7599 12.4198 15.7599C12.9598 15.7599 13.5298 15.6299 14.0998 15.1899C14.2298 15.0899 14.2298 14.9199 14.1698 14.7899C14.0998 14.6899 13.9298 14.6599 13.7998 14.7599L13.7898 14.7499Z" fill="#5C4A3B" stroke="#5C4A3B" stroke-width="0.4"/>
<path d="M21.6698 15.19C21.7998 15.12 21.8398 14.95 21.7398 14.82C21.6698 14.69 21.4998 14.65 21.3698 14.72C21.2998 14.75 19.6898 15.73 18.3798 14.72C18.2498 14.62 18.0798 14.65 17.9798 14.79C17.8798 14.93 17.9098 15.09 18.0498 15.19C18.6198 15.63 19.1898 15.76 19.7298 15.76C20.7698 15.76 21.6098 15.22 21.6798 15.19H21.6698Z" fill="#5C4A3B" stroke="#5C4A3B" stroke-width="0.4"/>

</svg>
