<svg width="32" height="32" viewBox="0 0 32 32" fill="none" xmlns="http://www.w3.org/2000/svg">
<path d="M16.0006 25.9556C17.3752 25.9556 18.4895 24.8412 18.4895 23.4667C18.4895 22.0921 17.3752 20.9778 16.0006 20.9778C14.626 20.9778 13.5117 22.0921 13.5117 23.4667C13.5117 24.8412 14.626 25.9556 16.0006 25.9556Z" fill="url(#paint0_linear_2266_2425)"/>
<path d="M25.2406 11.7334H20.2629C19.8703 11.7334 19.5518 12.052 19.5518 12.4445C19.5518 12.837 19.8703 13.1556 20.2629 13.1556H25.2406C25.6332 13.1556 25.9518 12.837 25.9518 12.4445C25.9518 12.052 25.6335 11.7334 25.2406 11.7334Z" fill="url(#paint1_linear_2266_2425)"/>
<path d="M11.7299 11.7334H6.75213C6.35959 11.7334 6.04102 12.052 6.04102 12.4445C6.04102 12.837 6.35959 13.1556 6.75213 13.1556H11.7299C12.1224 13.1556 12.441 12.837 12.441 12.4445C12.441 12.052 12.1228 11.7334 11.7299 11.7334Z" fill="url(#paint2_linear_2266_2425)"/>
<path d="M27.3603 4.63972C33.5466 10.9385 33.5466 21.174 27.3603 27.3603C21.174 33.5466 10.9385 33.5466 4.63972 27.3603C-1.54657 21.174 -1.54657 10.9385 4.63972 4.63972C10.9385 -1.54657 21.174 -1.54657 27.3603 4.63972ZM26.348 5.7645C20.6116 0.0281195 11.3884 0.0281195 5.7645 5.7645C0.0281195 11.3884 0.0281195 20.6116 5.7645 26.348C11.3884 31.9719 20.6116 31.9719 26.348 26.348C31.9719 20.6116 31.9719 11.3884 26.348 5.7645Z" fill="url(#paint3_linear_2266_2425)"/>
<defs>
<linearGradient id="paint0_linear_2266_2425" x1="13.9473" y1="20.9778" x2="19.23" y2="22.2442" gradientUnits="userSpaceOnUse">
<stop stop-color="#B63AB4"/>
<stop offset="1" stop-color="#513B9F"/>
</linearGradient>
<linearGradient id="paint1_linear_2266_2425" x1="20.1118" y1="11.7334" x2="23.4312" y2="15.3143" gradientUnits="userSpaceOnUse">
<stop stop-color="#B63AB4"/>
<stop offset="1" stop-color="#513B9F"/>
</linearGradient>
<linearGradient id="paint2_linear_2266_2425" x1="6.60102" y1="11.7334" x2="9.92049" y2="15.3143" gradientUnits="userSpaceOnUse">
<stop stop-color="#B63AB4"/>
<stop offset="1" stop-color="#513B9F"/>
</linearGradient>
<linearGradient id="paint3_linear_2266_2425" x1="2.8" y1="-1.46508e-06" x2="36.7607" y2="8.14125" gradientUnits="userSpaceOnUse">
<stop stop-color="#B63AB4"/>
<stop offset="1" stop-color="#513B9F"/>
</linearGradient>
</defs>
</svg>
