<svg width="32" height="32" viewBox="0 0 32 32" fill="none" xmlns="http://www.w3.org/2000/svg">
<path d="M26.2996 10.64C24.9596 9.15005 23.1096 8.30005 21.2296 8.30005C19.3496 8.30005 17.4896 9.20005 16.1896 10.78C14.8896 9.20005 13.0796 8.30005 11.1496 8.30005C9.21959 8.30005 7.40959 9.15005 6.06959 10.64C4.70959 12.15 4.07959 14.07 4.28959 16.06C4.91959 22.03 15.4896 31.3101 15.9296 31.7001L16.1796 31.92L16.4296 31.7001C16.8796 31.3101 27.4396 22.03 28.0696 16.06C28.2796 14.08 27.6496 12.15 26.2896 10.64H26.2996ZM27.3296 15.97C26.7796 21.17 17.7996 29.45 16.1796 30.9C14.5696 29.45 5.57959 21.16 5.02959 15.97C4.83959 14.2 5.40959 12.48 6.61959 11.13C7.81959 9.80005 9.45959 9.04005 11.1396 9.04005C12.9796 9.04005 14.6996 9.97005 15.8696 11.6L16.1696 12.03L16.4696 11.6C17.6396 9.97005 19.3596 9.04005 21.1996 9.04005C22.8696 9.04005 24.5196 9.80005 25.7196 11.13C26.9296 12.48 27.4996 14.2 27.3096 15.97H27.3296Z" fill="#5C4A3B" stroke="#5C4A3B" stroke-width="0.4"/>
<path d="M21.0001 14.92C20.8401 15.05 20.8101 15.28 20.9401 15.45C21.8401 16.58 20.7901 17.63 20.6601 17.74C20.5101 17.88 20.5001 18.12 20.6401 18.27C20.7101 18.35 20.8101 18.39 20.9101 18.39C21.0001 18.39 21.0901 18.36 21.1701 18.29C21.7601 17.74 22.6001 16.34 21.5201 14.98C21.3901 14.82 21.1601 14.79 20.9901 14.92H21.0001Z" fill="#5C4A3B" stroke="#5C4A3B" stroke-width="0.4"/>
<path d="M10.9298 15.45C11.0598 15.29 11.0298 15.05 10.8698 14.92C10.7098 14.79 10.4698 14.82 10.3398 14.98C9.2598 16.34 10.0998 17.74 10.6898 18.29C10.7598 18.36 10.8498 18.39 10.9498 18.39C11.0498 18.39 11.1498 18.35 11.2198 18.27C11.3598 18.12 11.3498 17.88 11.1998 17.74C11.1498 17.69 10.0098 16.6 10.9198 15.45H10.9298Z" fill="#5C4A3B" stroke="#5C4A3B" stroke-width="0.4"/>
<path d="M15.8004 20.4399C15.6004 20.4399 15.3904 20.4799 15.2104 20.5599C14.7904 20.7399 14.3204 21.1399 14.1804 21.5899C14.1504 21.6699 14.1104 21.7999 14.1304 21.8799C14.1604 21.9699 14.3304 22.0699 14.4004 22.1099C14.6804 22.2499 15.0004 22.3399 15.3004 22.4299C15.6904 22.5499 16.4204 22.7399 16.9504 22.7399C17.3704 22.7399 17.6404 22.6099 17.7504 22.3499C17.9204 21.9699 17.6104 21.5599 17.3604 21.2899C16.8504 20.7299 16.3204 20.4499 15.7904 20.4499L15.8004 20.4399Z" fill="#5C4A3B" stroke="#5C4A3B" stroke-width="0.4"/>
<path d="M12.4404 16.08C12.4404 16.08 12.4404 16.14 12.4404 16.18C12.4404 16.65 12.8204 17.02 13.2804 17.02C13.7404 17.02 14.1204 16.64 14.1204 16.18C14.1204 16.04 14.0804 15.9 14.0204 15.78L12.4504 16.08H12.4404Z" fill="#5C4A3B" stroke="#5C4A3B" stroke-width="0.4"/>
<path d="M18.3695 15.78C18.3095 15.9 18.2695 16.03 18.2695 16.18C18.2695 16.65 18.6495 17.02 19.1095 17.02C19.5695 17.02 19.9495 16.64 19.9495 16.18C19.9495 16.15 19.9495 16.12 19.9495 16.08L18.3795 15.78H18.3695Z" fill="#5C4A3B" stroke="#5C4A3B" stroke-width="0.4"/>
<path d="M9.76968 4.37012C9.76968 4.37012 9.79968 4.37012 9.81968 4.37012L11.6097 4.09012L9.95968 6.79012C9.87968 6.90012 9.85968 7.00012 9.87968 7.12012C9.89968 7.26012 10.0397 7.37012 10.2097 7.37012C10.2297 7.37012 10.2497 7.37012 10.2697 7.37012L12.7897 6.97012C12.9597 6.94012 13.0797 6.78012 13.0497 6.61012C13.0297 6.46012 12.8897 6.35012 12.7397 6.35012C12.7197 6.35012 12.7097 6.35012 12.6897 6.35012L10.8097 6.65012L12.4597 3.95012C12.5397 3.84012 12.5597 3.74012 12.5397 3.62012C12.5197 3.47012 12.3797 3.37012 12.2197 3.37012C12.1997 3.37012 12.1797 3.37012 12.1597 3.37012L9.71968 3.75012C9.54968 3.78012 9.42968 3.94012 9.45968 4.11012C9.47968 4.26012 9.60968 4.37012 9.76968 4.37012Z" fill="#5C4A3B" stroke="#5C4A3B" stroke-width="0.4"/>
<path d="M13.6396 6.01011C13.6396 6.20011 13.8096 6.36011 14.0196 6.36011H18.3396C18.5396 6.36011 18.7096 6.19011 18.7096 5.99011C18.7096 5.79011 18.5396 5.63011 18.3396 5.63011H14.7396L18.5296 0.820107C18.6296 0.700107 18.6696 0.600107 18.6696 0.460107C18.6696 0.270107 18.4996 0.110107 18.2996 0.110107H14.1096C13.9096 0.110107 13.7396 0.280107 13.7396 0.480107C13.7396 0.680107 13.9096 0.840107 14.1096 0.840107H17.5696L13.7796 5.65011C13.6796 5.77011 13.6396 5.87011 13.6396 6.01011Z" fill="#5C4A3B" stroke="#5C4A3B" stroke-width="0.4"/>
<path d="M19.6897 6.87005L22.1897 7.41005C22.1897 7.41005 22.2297 7.41005 22.2597 7.41005C22.4097 7.41005 22.5397 7.31005 22.5697 7.16005C22.5997 7.00005 22.4897 6.83005 22.3297 6.79005L20.4697 6.39005L22.9797 4.47005C23.0897 4.39005 23.1497 4.31005 23.1797 4.19005C23.1997 4.11005 23.1797 4.02005 23.1197 3.95005C23.0697 3.88005 22.9897 3.84005 22.8997 3.82005L20.4897 3.30005C20.4897 3.30005 20.4497 3.30005 20.4197 3.30005C20.2697 3.30005 20.1397 3.40005 20.1097 3.55005C20.0897 3.63005 20.1097 3.72005 20.1597 3.79005C20.2097 3.86005 20.2797 3.91005 20.3597 3.92005L22.1297 4.30005L19.6197 6.22005C19.5097 6.30005 19.4497 6.38005 19.4297 6.50005C19.4097 6.57005 19.4297 6.65005 19.4697 6.71005C19.5197 6.79005 19.5997 6.84005 19.6997 6.87005H19.6897Z" fill="#5C4A3B" stroke="#5C4A3B" stroke-width="0.4"/>

</svg>
