<svg preserveAspectRatio="none" width="100%" height="100%" overflow="visible" style="display: block;" viewBox="0 0 32 32" fill="none" xmlns="http://www.w3.org/2000/svg">
<g id="Group">
<path id="Vector" d="M11.3655 17.8759C11.8069 18.869 12.469 19.6414 13.2414 20.0828C14.8966 21.1862 17.1034 21.1862 18.7586 20.0828C19.531 19.6414 20.1931 18.869 20.6345 17.8759L21.2966 18.2069C20.9655 19.0897 20.4138 19.7517 19.7517 20.3034V23.8345C19.7517 24.8276 19.3103 25.8207 18.6483 26.4828C17.2138 27.9172 14.7862 27.9172 13.3517 26.4828C12.6897 25.8207 12.2483 24.8276 12.2483 23.8345V20.3034C11.5862 19.7517 11.0345 19.0897 10.7034 18.2069L11.3655 17.8759Z" fill="#B63AB4"/>
<path id="Vector_2" d="M27.3655 4.63448C33.5448 10.9241 33.5448 21.0759 27.3655 27.3655C21.0759 33.5448 10.9241 33.5448 4.63448 27.3655C-1.54483 21.0759 -1.54483 10.9241 4.63448 4.63448C10.9241 -1.54483 21.0759 -1.54483 27.3655 4.63448ZM26.2621 5.73793C20.6345 0.110345 11.3655 0.110345 5.73793 5.73793C0.110345 11.3655 0.110345 20.6345 5.73793 26.2621C11.3655 32 20.6345 32 26.2621 26.2621C32 20.6345 32 11.3655 26.2621 5.73793Z" fill="#B63AB4"/>
<path id="Vector_3" d="M13.2414 14.6759L9.93103 11.2552L6.51034 14.6759L7.50345 15.7793L9.93103 13.3517L12.2483 15.669L13.2414 14.6759Z" fill="#B63AB4"/>
<path id="Vector_4" d="M18.7586 14.6759L22.069 11.2552L25.4897 14.6759L24.4966 15.7793L22.069 13.3517L19.7517 15.669L18.7586 14.6759Z" fill="#B63AB4"/>
</g>
</svg>
