<svg preserveAspectRatio="none" width="100%" height="100%" overflow="visible" style="display: block;" viewBox="0 0 32 32" fill="none" xmlns="http://www.w3.org/2000/svg">
<g id="Group">
<path id="Vector" d="M27.3655 4.63448C33.5448 10.9241 33.5448 21.0759 27.3655 27.3655C21.0759 33.5448 10.9241 33.5448 4.63448 27.3655C-1.54483 21.0759 -1.54483 10.9241 4.63448 4.63448C10.9241 -1.54483 21.0759 -1.54483 27.3655 4.63448ZM26.2621 5.73793C20.6345 0.110345 11.3655 0.110345 5.73793 5.73793C0.110345 11.3655 0.110345 20.6345 5.73793 26.2621C11.3655 32 20.6345 32 26.2621 26.2621C32 20.6345 32 11.3655 26.2621 5.73793Z" fill="#B63AB4"/>
<path id="Vector_2" d="M13.2414 13.2414L9.93103 9.82069L6.51034 13.2414L7.50345 14.3448L9.93103 11.9172L12.2483 14.2345L13.2414 13.2414Z" fill="#B63AB4"/>
<path id="Vector_3" d="M18.7586 13.2414L22.069 9.82069L25.4897 13.2414L24.4966 14.3448L22.069 11.9172L19.7517 14.2345L18.7586 13.2414Z" fill="#B63AB4"/>
<path id="Vector_4" d="M22.731 15.1172H25.6V15.8897H22.731V15.1172Z" fill="#B63AB4"/>
<path id="Vector_5" d="M6.28966 15.1172H9.15862V15.8897H6.28966V15.1172Z" fill="#B63AB4"/>
<path id="Vector_6" d="M12.0276 19.4207H19.9724C21.7379 19.4207 23.1724 20.7448 23.1724 22.5103C23.1724 24.1655 21.7379 25.6 19.9724 25.6H12.0276C10.2621 25.6 8.82759 24.1655 8.82759 22.5103C8.82759 20.7448 10.2621 19.4207 12.0276 19.4207ZM19.9724 20.5241H12.0276C10.9241 20.5241 9.93103 21.4069 9.93103 22.5103C9.93103 23.6138 10.9241 24.4966 12.0276 24.4966H19.9724C21.0759 24.4966 22.069 23.6138 22.069 22.5103C22.069 21.4069 21.0759 20.5241 19.9724 20.5241Z" fill="#B63AB4"/>
</g>
</svg>
