<svg width="32" height="32" viewBox="0 0 32 32" fill="none" xmlns="http://www.w3.org/2000/svg">
<g clip-path="url(#clip0_2266_3152)">
<path d="M18.5196 22.4299C18.2196 22.2299 17.8296 22.2299 17.5196 22.4299C17.5096 22.4299 17.4996 22.4399 17.4896 22.4499C17.3296 22.3499 17.1696 22.2599 17.0096 22.1699C19.6896 20.6699 21.5896 17.8899 21.8096 14.6399C21.8296 14.3499 21.6196 14.0999 21.3296 14.0599C14.3896 13.1999 12.0396 10.7299 11.2496 9.32989C11.1396 9.13989 10.9396 9.02989 10.7196 9.04989C10.5096 9.06989 10.3196 9.20989 10.2496 9.41989C9.84958 10.5899 8.44958 12.6899 3.54958 13.5799C3.28958 13.6299 3.09958 13.8599 3.09958 14.1299C3.15958 17.5699 5.09958 20.5699 7.91958 22.1599C7.75958 22.2499 7.59958 22.3399 7.43958 22.4399C7.42958 22.4399 7.41958 22.4299 7.40958 22.4199C7.09958 22.2199 6.70958 22.2199 6.40958 22.4199C3.53958 24.2999 1.32958 27.4199 0.169581 31.2099C0.0795808 31.4999 0.239581 31.7999 0.529581 31.8899C0.579581 31.9099 0.639581 31.9099 0.689581 31.9099C0.919581 31.9099 1.13958 31.7599 1.20958 31.5199C1.22958 31.4699 1.23958 31.4099 1.25958 31.3599C1.36958 30.9899 1.49958 30.6299 1.62958 30.2799C2.75958 27.3299 4.59958 24.9199 6.88958 23.3899C6.89958 23.3899 6.90958 23.3999 6.91958 23.4099C7.08958 23.5199 7.26958 23.6299 7.44958 23.7299C8.97958 24.5799 10.6896 25.0299 12.4496 25.0299C14.2096 25.0299 15.9096 24.5799 17.4396 23.7399C17.6196 23.6399 17.7996 23.5299 17.9696 23.4199C17.9796 23.4199 17.9896 23.4099 17.9996 23.3999C20.2896 24.9299 22.1196 27.3399 23.2496 30.2799C23.3896 30.6299 23.5096 30.9899 23.6196 31.3599C23.6396 31.4099 23.6596 31.4699 23.6696 31.5199C23.7596 31.8099 24.0596 31.9699 24.3496 31.8799C24.6396 31.7899 24.7996 31.4899 24.7096 31.1999C23.5596 27.4099 21.3496 24.2899 18.4896 22.4199H18.5196V22.4299ZM8.55958 23.0699C8.76958 22.9599 8.98958 22.8599 9.20958 22.7699C10.2296 23.1499 11.3296 23.3699 12.4696 23.3699C13.6096 23.3699 14.7096 23.1599 15.7196 22.7799C15.9396 22.8699 16.1596 22.9699 16.3696 23.0799C15.1596 23.6499 13.8296 23.9499 12.4696 23.9499C11.1096 23.9499 9.76958 23.6499 8.55958 23.0699ZM20.6696 15.0899C20.2796 18.0299 18.3296 20.4699 15.7196 21.5999C15.4596 21.7099 15.1896 21.8099 14.9196 21.8999C14.4996 22.0299 14.0696 22.1299 13.6296 22.1899C13.2496 22.2399 12.8696 22.2799 12.4796 22.2799C12.0896 22.2799 11.6996 22.2399 11.3196 22.1899C10.8796 22.1299 10.4396 22.0299 10.0196 21.8999C9.74958 21.8099 9.47958 21.7099 9.21958 21.5999C6.44958 20.3999 4.44958 17.7299 4.21958 14.5899C8.26958 13.7499 10.0696 12.0599 10.8596 10.7199C12.1996 12.4199 14.9696 14.2999 20.6696 15.0899ZM1.13958 25.9399V12.6699C1.13958 6.17989 6.21958 0.889893 12.4596 0.889893C18.6996 0.889893 23.7796 6.17989 23.7796 12.6699V25.9399C23.7796 26.2399 23.5396 26.4899 23.2296 26.4899C22.9196 26.4899 22.6796 26.2499 22.6796 25.9399V12.6699C22.6796 6.77989 18.0896 1.97989 12.4496 1.97989C6.80958 1.97989 2.22958 6.77989 2.22958 12.6699V25.9399C2.22958 26.2399 1.98958 26.4899 1.67958 26.4899C1.36958 26.4899 1.12958 26.2499 1.12958 25.9399H1.13958ZM20.0596 8.53989C20.2696 8.93989 20.4596 9.34989 20.6096 9.77989C20.7096 10.0599 20.5596 10.3799 20.2796 10.4799C20.2196 10.4999 20.1596 10.5099 20.0996 10.5099C19.8796 10.5099 19.6696 10.3699 19.5896 10.1499C19.4596 9.76989 19.2896 9.40989 19.1096 9.05989C18.9696 8.78989 19.0696 8.45989 19.3296 8.31989C19.5996 8.17989 19.9296 8.27989 20.0696 8.53989H20.0596ZM18.7496 6.68989C18.9496 6.90989 18.9396 7.25989 18.7196 7.45989C18.6196 7.55989 18.4796 7.59989 18.3496 7.59989C18.1996 7.59989 18.0596 7.53989 17.9496 7.41989C17.1596 6.55989 16.1896 5.88989 15.1196 5.46989C14.8396 5.35989 14.6996 5.03989 14.8096 4.75989C14.9196 4.47989 15.2396 4.33989 15.5196 4.44989C16.7296 4.91989 17.8496 5.68989 18.7496 6.67989V6.68989ZM31.9996 10.4199C31.9996 10.7199 31.7596 10.9699 31.4496 10.9699H30.3696V12.0499C30.3696 12.3499 30.1296 12.5999 29.8196 12.5999C29.5096 12.5999 29.2696 12.3599 29.2696 12.0499V10.9699H28.1896C27.8896 10.9699 27.6396 10.7299 27.6396 10.4199C27.6396 10.1099 27.8796 9.86989 28.1896 9.86989H29.2696V8.78989C29.2696 8.48989 29.5096 8.23989 29.8196 8.23989C30.1296 8.23989 30.3696 8.47989 30.3696 8.78989V9.86989H31.4496C31.7496 9.86989 31.9996 10.1099 31.9996 10.4199ZM29.6196 16.5799C29.6196 16.8799 29.3796 17.1299 29.0696 17.1299H27.9896V18.2099C27.9896 18.5099 27.7496 18.7599 27.4396 18.7599C27.1296 18.7599 26.8896 18.5199 26.8896 18.2099V17.1299H25.8096C25.5096 17.1299 25.2596 16.8899 25.2596 16.5799C25.2596 16.2699 25.4996 16.0299 25.8096 16.0299H26.8896V14.9499C26.8896 14.6499 27.1296 14.3999 27.4396 14.3999C27.7496 14.3999 27.9896 14.6399 27.9896 14.9499V16.0299H29.0696C29.3696 16.0299 29.6196 16.2699 29.6196 16.5799ZM25.2496 8.21989C24.9496 8.21989 24.6996 7.97989 24.6996 7.66989V6.58989H23.6196C23.3196 6.58989 23.0696 6.34989 23.0696 6.03989C23.0696 5.72989 23.3096 5.48989 23.6196 5.48989H24.6996V4.40989C24.6996 4.10989 24.9396 3.85989 25.2496 3.85989C25.5596 3.85989 25.7996 4.09989 25.7996 4.40989V5.48989H26.8796C27.1796 5.48989 27.4296 5.72989 27.4296 6.03989C27.4296 6.34989 27.1896 6.58989 26.8796 6.58989H25.7996V7.66989C25.7996 7.96989 25.5596 8.21989 25.2496 8.21989Z" fill="url(#paint0_linear_2266_3152)"/>
</g>
<defs>
<linearGradient id="paint0_linear_2266_3152" x1="2.93185" y1="0.889891" x2="36.6387" y2="9.18783" gradientUnits="userSpaceOnUse">
<stop stop-color="#B63AB4"/>
<stop offset="1" stop-color="#513B9F"/>
</linearGradient>
<clipPath id="clip0_2266_3152">
<rect width="32" height="32" fill="white"/>
</clipPath>
</defs>
</svg>
