<svg width="32" height="32" viewBox="0 0 32 32" fill="none" xmlns="http://www.w3.org/2000/svg">
<path d="M25.9609 1.90222L25.7618 1.37956C25.4524 0.554667 24.6524 0 23.7707 0H7.96267C7.08089 0 6.27733 0.554667 5.968 1.37956L5.77244 1.89867C4.09067 6.33956 2 11.8684 2 18.1333C2 23.3173 3.04178 27.3991 5.27822 30.9867C5.67644 31.6231 6.35556 32 7.09867 32H24.6382C25.3813 32 26.0604 31.6196 26.4587 30.9867C28.6916 27.3991 29.7333 23.3138 29.7333 18.1333C29.7333 11.872 27.6427 6.34311 25.9609 1.90222ZM25.2498 30.2329C25.1147 30.4498 24.8836 30.5778 24.6382 30.5778H16.5778V23.4062L21.3458 18.6382C21.6231 18.3609 21.6231 17.9093 21.3458 17.632C21.0684 17.3547 20.6169 17.3547 20.3396 17.632L15.8667 22.1049L11.3902 17.632C11.1129 17.3547 10.6613 17.3547 10.384 17.632C10.1067 17.9093 10.1067 18.3609 10.384 18.6382L15.1556 23.4062V30.5778H7.09511C6.84622 30.5778 6.61867 30.4498 6.48356 30.2329C4.39644 26.8836 3.42222 23.0364 3.42222 18.1333C3.42222 12.1316 5.46311 6.73778 7.10222 2.40356L7.29778 1.88089C7.40444 1.60356 7.664 1.42222 7.96267 1.42222H23.7707C24.0693 1.42222 24.3289 1.6 24.4356 1.88089L24.6347 2.40711C26.2702 6.73778 28.3111 12.1316 28.3111 18.1333C28.3111 23.0364 27.3369 26.8836 25.2498 30.2329Z" fill="url(#paint0_linear_2266_1667)"/>
<path d="M20.3856 9.64645L17.3669 8.50512L17.9927 4.37356C18.0389 4.06423 17.8789 3.76201 17.6016 3.6269C17.3207 3.49178 16.9864 3.55223 16.7731 3.77978L11.0842 9.82423C10.9207 9.99845 10.8567 10.2402 10.91 10.4713C10.9633 10.7025 11.1304 10.8909 11.3509 10.9762L14.3696 12.1176L13.7402 16.2491C13.694 16.5585 13.854 16.8571 14.1313 16.9958C14.2309 17.042 14.3376 17.0669 14.4442 17.0669C14.6362 17.0669 14.8247 16.9887 14.9633 16.8429L20.6522 10.7984C20.8158 10.6242 20.8798 10.3825 20.8264 10.1513C20.7731 9.92023 20.606 9.73178 20.3856 9.64645ZM15.4896 14.2082L15.8593 11.762C15.9091 11.4313 15.7207 11.1078 15.4078 10.9905L12.8478 10.0233L16.2433 6.41445L15.8736 8.86423C15.8238 9.1949 16.0122 9.51845 16.3251 9.63578L18.8851 10.6029L15.4896 14.2082Z" fill="url(#paint1_linear_2266_1667)"/>
<defs>
<linearGradient id="paint0_linear_2266_1667" x1="4.42667" y1="-1.46508e-06" x2="34.2628" y2="6.19883" gradientUnits="userSpaceOnUse">
<stop stop-color="#B63AB4"/>
<stop offset="1" stop-color="#513B9F"/>
</linearGradient>
<linearGradient id="paint1_linear_2266_1667" x1="11.7625" y1="3.55566" x2="22.5948" y2="5.46862" gradientUnits="userSpaceOnUse">
<stop stop-color="#B63AB4"/>
<stop offset="1" stop-color="#513B9F"/>
</linearGradient>
</defs>
</svg>
