<svg preserveAspectRatio="none" width="100%" height="100%" overflow="visible" style="display: block;" viewBox="0 0 16.98 31.98" fill="none" xmlns="http://www.w3.org/2000/svg">
<g id="Group">
<path id="Vector" d="M0.64 31.98H16.33C16.69 31.98 16.98 31.69 16.98 31.33V4.61C16.98 4.25 16.69 3.96 16.33 3.96H11.97V0.65C11.97 0.29 11.68 0 11.32 0H5.66C5.3 0 5.01 0.29 5.01 0.65V3.95H0.65C0.29 3.95 0 4.24 0 4.6V31.32C0 31.68 0.29 31.97 0.65 31.97L0.64 31.98ZM6.3 1.3H10.66V3.95H6.3V1.3ZM1.29 5.26H15.67V30.68H1.29V5.26Z" fill="#B63AB4"/>
<path id="Vector_2" d="M14.2 6.18H2.76C2.4 6.18 2.11 6.47 2.11 6.83V10.81C2.11 11.17 2.4 11.46 2.76 11.46H14.2C14.56 11.46 14.85 11.17 14.85 10.81V6.83C14.85 6.47 14.56 6.18 14.2 6.18ZM13.54 10.15H3.41V7.48H13.54V10.15Z" fill="#B63AB4"/>
<path id="Vector_3" d="M14.2 12.28H2.76C2.4 12.28 2.11 12.57 2.11 12.93V16.91C2.11 17.27 2.4 17.56 2.76 17.56H14.2C14.56 17.56 14.85 17.27 14.85 16.91V12.93C14.85 12.57 14.56 12.28 14.2 12.28ZM13.54 16.25H3.41V13.58H13.54V16.25Z" fill="#B63AB4"/>
<path id="Vector_4" d="M14.2 18.38H2.76C2.4 18.38 2.11 18.67 2.11 19.03V23.01C2.11 23.37 2.4 23.66 2.76 23.66H14.2C14.56 23.66 14.85 23.37 14.85 23.01V19.03C14.85 18.67 14.56 18.38 14.2 18.38ZM13.54 22.35H3.41V19.68H13.54V22.35Z" fill="#B63AB4"/>
<path id="Vector_5" d="M14.2 24.48H2.76C2.4 24.48 2.11 24.77 2.11 25.13V29.11C2.11 29.47 2.4 29.76 2.76 29.76H14.2C14.56 29.76 14.85 29.47 14.85 29.11V25.13C14.85 24.77 14.56 24.48 14.2 24.48ZM13.54 28.45H3.41V25.78H13.54V28.45Z" fill="#B63AB4"/>
</g>
</svg>
