<svg preserveAspectRatio="none" width="100%" height="100%" overflow="visible" style="display: block;" viewBox="0 0 105.682 165.165" fill="none" xmlns="http://www.w3.org/2000/svg">
<g id="Group 3">
<path id="Vector 1" d="M90.0539 40.1318L100.473 0C90.8257 16.0141 69.5898 0.606827 48.7645 1.35059C32.5575 1.92941 23.9394 9.45413 20.9809 13.8918C10.5621 31.0636 14.8927 40.7871 25.4186 51.5153C35.4516 61.7412 56.2892 73.1248 68.2516 88.1742C77.8215 100.214 72.5606 116.086 68.8304 122.132C76.9339 118.659 79.4422 99.3648 77.8986 90.4895C77.5128 83.9295 70.6826 67.8382 48.7645 52.0942C26.8464 36.3502 24.7111 23.9247 26.3833 19.68C30.0492 0.578824 55.5385 1.14173 69.2163 7.52471C86.581 15.6283 89.5394 31.2565 90.0539 40.1318Z" fill="var(--fill-0, white)"/>
<path id="Vector 2" d="M61.1442 138.303C61.2805 138.135 61.1109 138.108 61.1128 137.952C61.3057 122.131 51.4657 113.449 49.1504 110.748C46.8351 108.046 41.2398 103.03 27.541 92.6111C16.5819 84.276 8.05389 72.4166 5.15977 67.5287C-5.49059 46.9998 5.35271 25.9177 12.1057 17.9428C9.66174 22.5091 5.3913 34.1113 7.86095 43.9899C10.948 56.3381 28.6986 70.037 31.2069 72.7381C33.7151 75.4393 56.6751 89.1382 63.621 108.432C69.1593 123.816 64.2967 134.728 61.1442 138.303C61.1351 138.314 61.1247 138.326 61.1128 138.338C61.1232 138.326 61.1337 138.315 61.1442 138.303Z" fill="var(--fill-0, white)"/>
<path id="Vector 3" d="M1.6868 147.406C-5.64497 128.884 13.2633 115.764 13.8421 115.378C9.52024 120.163 6.84279 130.621 6.70325 135.444C6.5172 141.875 10.1156 156.127 25.9974 161.684C41.8792 167.241 54.6101 155.253 58.9904 148.564C51.1184 163.228 37.3938 164.998 31.2068 165.157C23.6821 165.35 7.55222 162.224 1.6868 147.406Z" fill="var(--fill-0, white)"/>
<path id="Vector 4" d="M71.9176 126.183C65.1261 137.914 64.9718 154.546 65.1647 162.456C66.3224 158.598 75.6761 135.56 78.5702 130.158C88.4513 111.713 97.7075 102.31 105.682 90.9905C98.3506 94.6563 78.7092 114.453 71.9176 126.183Z" fill="var(--fill-0, white)"/>
</g>
</svg>
