<svg preserveAspectRatio="none" width="100%" height="100%" overflow="visible" style="display: block;" viewBox="0 0 32 32" fill="none" xmlns="http://www.w3.org/2000/svg">
<g id="Group">
<path id="Vector" d="M27.3655 4.63448C33.5448 10.9241 33.5448 21.0759 27.3655 27.3655C21.0759 33.5448 10.9241 33.5448 4.63448 27.3655C-1.54483 21.0759 -1.54483 10.9241 4.63448 4.63448C10.9241 -1.54483 21.0759 -1.54483 27.3655 4.63448ZM26.2621 5.73793C20.6345 0.110345 11.3655 0.110345 5.73793 5.73793C0.110345 11.3655 0.110345 20.6345 5.73793 26.2621C11.3655 32 20.6345 32 26.2621 26.2621C32 20.6345 32 11.3655 26.2621 5.73793Z" fill="#B63AB4"/>
<path id="Vector_2" d="M9.48965 19.0897L11.1448 21.1862L13.4621 18.4276L15.8897 21.2966L18.4276 18.2069L20.8552 21.0759L22.5103 19.0897L23.6138 19.9724L20.8552 23.2828L18.4276 20.4138L15.8897 23.5034L13.4621 20.7448L11.1448 23.3931L8.38621 20.0828L9.48965 19.0897Z" fill="#B63AB4"/>
<path id="Vector_3" d="M12.3586 10.2621L8.49655 14.1241L4.63448 10.2621L5.62759 9.26897L8.49655 12.0276L11.2552 9.26897L12.3586 10.2621Z" fill="#B63AB4"/>
<path id="Vector_4" d="M19.4207 10.2621L23.2828 14.1241L27.1448 10.2621L26.0414 9.26897L23.2828 12.0276L20.4138 9.26897L19.4207 10.2621Z" fill="#B63AB4"/>
</g>
</svg>
