<svg width="32" height="32" viewBox="0 0 32 32" fill="none" xmlns="http://www.w3.org/2000/svg">
<path fill-rule="evenodd" clip-rule="evenodd" d="M11.1302 11.2301C10.9602 10.4401 10.2502 9.84014 9.41016 9.84014H7.17016C6.20016 9.84014 5.41016 10.6301 5.41016 11.6001V22.7801C5.41016 23.7501 6.20016 24.5401 7.17016 24.5401H9.41016C10.2602 24.5401 10.9702 23.9401 11.1302 23.1401H20.9002C22.0002 23.1401 22.9902 22.4601 23.3702 21.4301L25.8602 14.8001C26.1602 13.9901 26.0502 13.0801 25.5602 12.3701C25.0702 11.6601 24.2602 11.2301 23.3902 11.2301H19.5602V7.89014C19.5602 7.29014 19.3202 6.72014 18.9002 6.30014C18.4802 5.88014 17.9102 5.64014 17.3102 5.64014C16.6202 5.64014 15.9902 6.03014 15.6802 6.65014C15.3802 7.25014 14.9502 8.11014 14.5402 8.93014C13.8802 10.2401 12.5902 11.1101 11.1402 11.2201L11.1302 11.2301ZM10.4402 11.6001V22.7801C10.4402 23.3501 9.98016 23.8201 9.40016 23.8201H7.16016C6.59016 23.8201 6.12016 23.3601 6.12016 22.7801V11.6001C6.12016 11.0301 6.58016 10.5601 7.16016 10.5601H9.40016C9.97016 10.5601 10.4402 11.0201 10.4402 11.6001ZM11.1702 22.4301V11.9501C12.8802 11.8201 14.4002 10.8101 15.1802 9.26014C15.5902 8.44014 16.0202 7.58014 16.3202 6.98014C16.5102 6.61014 16.8902 6.37014 17.3102 6.37014C17.7202 6.37014 18.1002 6.53014 18.3902 6.82014C18.6802 7.11014 18.8402 7.49014 18.8402 7.90014V11.6001C18.8402 11.8001 19.0002 11.9601 19.2002 11.9601H23.3902C24.0202 11.9601 24.6102 12.2701 24.9702 12.7901C25.3302 13.3101 25.4102 13.9701 25.1902 14.5601L22.7002 21.1901C22.4202 21.9401 21.7002 22.4301 20.9002 22.4301H11.1702Z" fill="url(#paint0_linear_2266_1652)"/>
<path fill-rule="evenodd" clip-rule="evenodd" d="M3.1802 5.8899C3.1302 5.7499 2.9902 5.6499 2.8402 5.6499C2.6902 5.6499 2.5502 5.7399 2.5002 5.8899L2.0702 7.0599C1.9902 7.2699 1.8202 7.4399 1.6102 7.5199L0.440195 7.9499C0.300195 7.9999 0.200195 8.1399 0.200195 8.2899C0.200195 8.4399 0.290195 8.5799 0.440195 8.6299L1.6102 9.0599C1.8202 9.1399 1.9902 9.3099 2.0702 9.5199L2.5002 10.6899C2.5502 10.8299 2.6902 10.9299 2.8402 10.9299C2.9902 10.9299 3.1302 10.8399 3.1802 10.6899L3.6102 9.5199C3.6902 9.3099 3.8602 9.1399 4.0702 9.0599L5.2402 8.6299C5.3802 8.5799 5.4802 8.4399 5.4802 8.2899C5.4802 8.1399 5.3902 7.9999 5.2402 7.9499L4.0702 7.5199C3.8602 7.4399 3.6902 7.2699 3.6102 7.0599L3.1802 5.8899ZM2.8402 7.0499L2.9302 7.2999C3.0802 7.7099 3.4002 8.0299 3.8102 8.1799L4.0602 8.2699L3.8102 8.3599C3.4002 8.5099 3.0802 8.8299 2.9302 9.2399L2.8402 9.4899L2.7502 9.2399C2.6002 8.8299 2.2802 8.5099 1.8702 8.3599L1.6202 8.2699L1.8702 8.1799C2.2802 8.0299 2.6002 7.7099 2.7502 7.2999L2.8402 7.0499Z" fill="url(#paint1_linear_2266_1652)"/>
<path fill-rule="evenodd" clip-rule="evenodd" d="M28.2701 2.71021C28.2201 2.57021 28.0801 2.47021 27.9301 2.47021C27.7801 2.47021 27.6401 2.56021 27.5901 2.71021C27.5901 2.71021 27.1801 3.81021 26.8901 4.61021C26.7401 5.02022 26.4201 5.34021 26.0101 5.49021L24.1101 6.19021C23.9701 6.24021 23.8701 6.38022 23.8701 6.53022C23.8701 6.68022 23.9601 6.82021 24.1101 6.87021C24.1101 6.87021 25.2101 7.28022 26.0101 7.57022C26.4201 7.72022 26.7401 8.04021 26.8901 8.45021L27.5901 10.3502C27.6401 10.4902 27.7801 10.5902 27.9301 10.5902C28.0801 10.5902 28.2201 10.5002 28.2701 10.3502C28.2701 10.3502 28.6801 9.25021 28.9701 8.45021C29.1201 8.04021 29.4401 7.72022 29.8501 7.57022L31.7501 6.87021C31.8901 6.82021 31.9901 6.68022 31.9901 6.53022C31.9901 6.38022 31.9001 6.24021 31.7501 6.19021C31.7501 6.19021 30.6501 5.78021 29.8501 5.49021C29.4401 5.34021 29.1201 5.02022 28.9701 4.61021L28.2701 2.71021ZM27.9301 3.88021L28.2901 4.86021C28.5101 5.46022 28.9901 5.94021 29.5901 6.16021L30.5701 6.52022L29.5901 6.88021C28.9901 7.10021 28.5101 7.58021 28.2901 8.18021L27.9301 9.16021L27.5701 8.18021C27.3501 7.58021 26.8701 7.10021 26.2701 6.88021L25.2901 6.52022L26.2701 6.16021C26.8701 5.94021 27.3501 5.46022 27.5701 4.86021L27.9301 3.88021Z" fill="url(#paint2_linear_2266_1652)"/>
<path fill-rule="evenodd" clip-rule="evenodd" d="M25.1404 22.5501C25.0904 22.4101 24.9504 22.3101 24.8004 22.3101C24.6504 22.3101 24.5104 22.4001 24.4604 22.5501L23.8804 24.1101C23.7604 24.4301 23.5104 24.6701 23.2004 24.7901L21.6404 25.3701C21.5004 25.4201 21.4004 25.5601 21.4004 25.7101C21.4004 25.8601 21.4904 26.0001 21.6404 26.0501L23.2004 26.6301C23.5204 26.7501 23.7604 27.0001 23.8804 27.3101L24.4604 28.8701C24.5104 29.0101 24.6504 29.1101 24.8004 29.1101C24.9504 29.1101 25.0904 29.0201 25.1404 28.8701L25.7204 27.3101C25.8404 26.9901 26.0904 26.7501 26.4004 26.6301L27.9604 26.0501C28.1004 26.0001 28.2004 25.8601 28.2004 25.7101C28.2004 25.5601 28.1104 25.4201 27.9604 25.3701L26.4004 24.7901C26.0804 24.6701 25.8404 24.4201 25.7204 24.1101L25.1404 22.5501ZM24.8004 23.7101L25.0404 24.3501C25.2304 24.8601 25.6304 25.2701 26.1504 25.4601L26.7904 25.7001L26.1504 25.9401C25.6404 26.1301 25.2304 26.5301 25.0404 27.0501L24.8004 27.6901L24.5604 27.0501C24.3704 26.5401 23.9704 26.1301 23.4504 25.9401L22.8104 25.7001L23.4504 25.4601C23.9604 25.2701 24.3704 24.8701 24.5604 24.3501L24.8004 23.7101Z" fill="url(#paint3_linear_2266_1652)"/>
<defs>
<linearGradient id="paint0_linear_2266_1652" x1="7.21407" y1="5.64014" x2="28.8699" y2="11.303" gradientUnits="userSpaceOnUse">
<stop stop-color="#B63AB4"/>
<stop offset="1" stop-color="#513B9F"/>
</linearGradient>
<linearGradient id="paint1_linear_2266_1652" x1="0.662195" y1="5.6499" x2="6.2657" y2="6.99321" gradientUnits="userSpaceOnUse">
<stop stop-color="#B63AB4"/>
<stop offset="1" stop-color="#513B9F"/>
</linearGradient>
<linearGradient id="paint2_linear_2266_1652" x1="24.5806" y1="2.47021" x2="33.1981" y2="4.53606" gradientUnits="userSpaceOnUse">
<stop stop-color="#B63AB4"/>
<stop offset="1" stop-color="#513B9F"/>
</linearGradient>
<linearGradient id="paint3_linear_2266_1652" x1="21.9954" y1="22.3101" x2="29.212" y2="24.0401" gradientUnits="userSpaceOnUse">
<stop stop-color="#B63AB4"/>
<stop offset="1" stop-color="#513B9F"/>
</linearGradient>
</defs>
</svg>
