<svg width="32" height="32" viewBox="0 0 32 32" fill="none" xmlns="http://www.w3.org/2000/svg">
<g clip-path="url(#clip0_2266_2691)">
<path d="M25.41 25.53H6.65004C3.00004 25.53 0.0400391 22.57 0.0400391 18.92C0.0400391 15.53 2.57004 12.74 5.88004 12.36C6.46004 10.14 8.63004 8.58999 11.02 8.94999C12.93 6.74999 15.67 5.48999 18.59 5.48999C23.19 5.48999 27.12 8.54999 28.28 12.96C30.57 14.06 32.03 16.36 32.03 18.92C32.03 22.57 29.06 25.53 25.41 25.53ZM10.35 10.19C8.70004 10.19 7.28004 11.42 7.06004 13.06L6.98004 13.59L6.44004 13.61C3.58004 13.72 1.33004 16.06 1.33004 18.92C1.33004 21.78 3.72004 24.24 6.65004 24.24H25.41C28.34 24.24 30.73 21.85 30.73 18.92C30.73 16.77 29.45 14.85 27.47 14.01L27.16 13.88L27.09 13.56C26.18 9.56999 22.68 6.77999 18.58 6.77999C15.92 6.77999 13.44 7.97999 11.77 10.06L11.51 10.38L11.11 10.29C10.85 10.23 10.59 10.2 10.34 10.2L10.35 10.19Z" fill="url(#paint0_linear_2266_2691)"/>
</g>
<defs>
<linearGradient id="paint0_linear_2266_2691" x1="2.83916" y1="5.48999" x2="34.1544" y2="17.4736" gradientUnits="userSpaceOnUse">
<stop stop-color="#B63AB4"/>
<stop offset="1" stop-color="#513B9F"/>
</linearGradient>
<clipPath id="clip0_2266_2691">
<rect width="32" height="32" fill="white"/>
</clipPath>
</defs>
</svg>
