<svg width="32" height="32" viewBox="0 0 32 32" fill="none" xmlns="http://www.w3.org/2000/svg">
<path d="M4.16032 24.07C4.33032 23.83 4.43032 23.66 4.43032 23.29C4.43032 22.92 4.32032 22.75 4.16032 22.51C3.95032 22.2 3.70032 21.82 3.70032 21.11C3.70032 20.4 3.96032 20.01 4.16032 19.71C4.33032 19.47 4.43032 19.3 4.43032 18.93C4.43032 18.56 4.32032 18.39 4.16032 18.15C3.95032 17.84 3.70032 17.46 3.70032 16.74C3.70032 16.02 3.96032 15.64 4.16032 15.33C4.33032 15.09 4.43032 14.92 4.43032 14.55C4.43032 14.18 4.32032 14.01 4.16032 13.77C3.95032 13.46 3.70032 13.08 3.70032 12.36C3.70032 11.64 4.05032 10.99 4.35032 10.42C4.54032 10.06 4.72032 9.73002 4.80032 9.41002C4.89032 9.07002 4.89032 8.68002 4.89032 8.26002C4.89032 7.59002 4.89032 6.91002 5.23032 6.29002C5.57032 5.66002 6.19032 5.26002 6.73032 4.91002C7.07032 4.69002 7.39032 4.48002 7.62032 4.24002C7.85032 3.99002 8.04032 3.66002 8.24032 3.30002C8.57032 2.71002 8.92032 2.11002 9.53032 1.73002C10.1403 1.35002 10.8403 1.32002 11.5203 1.29002C11.9303 1.27002 12.3103 1.25002 12.6403 1.16002C12.9503 1.07002 13.2703 0.89002 13.6203 0.70002C14.1903 0.38002 14.8403 0.0200195 15.5803 0.0200195C16.3203 0.0200195 16.9703 0.38002 17.5403 0.70002C17.8903 0.89002 18.2103 1.08002 18.5203 1.16002C18.8503 1.25002 19.2303 1.27002 19.6403 1.29002C20.3203 1.32002 21.0203 1.35002 21.6303 1.73002C22.2403 2.11002 22.5803 2.71002 22.9203 3.30002C23.1203 3.66002 23.3103 3.99002 23.5403 4.24002C23.7703 4.48002 24.0903 4.69002 24.4303 4.91002C24.9703 5.26002 25.5803 5.66002 25.9303 6.29002C26.2603 6.90002 26.2703 7.59002 26.2703 8.26002C26.2703 8.68002 26.2703 9.07002 26.3603 9.41002C26.4403 9.72002 26.6203 10.06 26.8103 10.42C27.1103 10.99 27.4603 11.63 27.4603 12.36C27.4603 13.09 27.2003 13.46 27.0003 13.76C26.8303 14 26.7303 14.17 26.7303 14.54C26.7303 14.91 26.8403 15.08 27.0003 15.32C27.2103 15.63 27.4603 16.01 27.4603 16.72C27.4603 17.43 27.2003 17.82 26.9903 18.12C26.8203 18.36 26.7203 18.53 26.7203 18.9C26.7203 19.27 26.8303 19.44 26.9903 19.68C27.2003 19.99 27.4503 20.37 27.4503 21.08C27.4503 21.79 27.1903 22.18 26.9903 22.49C26.8203 22.73 26.7203 22.9 26.7203 23.27C26.7203 23.64 26.8303 23.81 26.9903 24.05C27.2003 24.36 27.4503 24.74 27.4503 25.46C27.4503 25.77 27.2003 26.01 26.9003 26.01C26.6003 26.01 26.3503 25.76 26.3503 25.46C26.3503 25.08 26.2403 24.92 26.0803 24.68C25.8703 24.37 25.6203 23.99 25.6203 23.27C25.6203 22.55 25.8803 22.17 26.0803 21.86C26.2503 21.62 26.3503 21.45 26.3503 21.08C26.3503 20.71 26.2403 20.54 26.0803 20.3C25.8703 19.99 25.6203 19.61 25.6203 18.89C25.6203 18.17 25.8803 17.79 26.0803 17.49C26.2503 17.25 26.3503 17.08 26.3503 16.71C26.3503 16.34 26.2403 16.17 26.0803 15.93C25.8703 15.62 25.6203 15.24 25.6203 14.53C25.6203 13.82 25.8803 13.43 26.0903 13.13C26.2603 12.89 26.3603 12.72 26.3603 12.35C26.3603 11.9 26.1103 11.43 25.8403 10.94C25.6203 10.54 25.4003 10.13 25.2903 9.68002C25.1703 9.21002 25.1703 8.73002 25.1703 8.26002C25.1703 7.71002 25.1703 7.19002 24.9603 6.82002C24.7503 6.43002 24.3103 6.15002 23.8303 5.84002C23.4503 5.59002 23.0503 5.34002 22.7303 5.00002C22.4103 4.66002 22.1703 4.25002 21.9503 3.85002C21.6703 3.36002 21.4103 2.90002 21.0503 2.68002C20.6803 2.45002 20.1503 2.43002 19.5903 2.40002C19.1403 2.38002 18.6703 2.36002 18.2203 2.23002C17.7903 2.11002 17.3903 1.88002 17.0003 1.67002C16.5003 1.39002 16.0303 1.13002 15.5803 1.13002C15.1303 1.13002 14.6603 1.39002 14.1603 1.67002C13.7703 1.89002 13.3803 2.11002 12.9403 2.23002C12.4903 2.36002 12.0203 2.38002 11.5703 2.40002C11.0103 2.43002 10.4803 2.45002 10.1103 2.68002C9.74032 2.91002 9.48032 3.37002 9.21032 3.85002C8.98032 4.25002 8.75032 4.66002 8.43032 5.00002C8.11032 5.34002 7.72032 5.60002 7.33032 5.84002C6.86032 6.15002 6.41032 6.43002 6.20032 6.82002C6.00032 7.19002 6.00032 7.71002 5.99032 8.26002C5.99032 8.73002 5.99032 9.21002 5.87032 9.68002C5.76032 10.13 5.54032 10.54 5.32032 10.94C5.05032 11.44 4.80032 11.9 4.80032 12.35C4.80032 12.73 4.91032 12.89 5.07032 13.13C5.28032 13.44 5.53032 13.82 5.53032 14.54C5.53032 15.26 5.27032 15.64 5.07032 15.95C4.90032 16.19 4.80032 16.36 4.80032 16.73C4.80032 17.1 4.91032 17.27 5.07032 17.51C5.28032 17.82 5.53032 18.2 5.53032 18.92C5.53032 19.64 5.27032 20.02 5.07032 20.32C4.90032 20.56 4.80032 20.73 4.80032 21.1C4.80032 21.47 4.91032 21.64 5.07032 21.88C5.28032 22.19 5.53032 22.57 5.53032 23.28C5.53032 23.99 5.27032 24.38 5.07032 24.68C4.90032 24.92 4.80032 25.09 4.80032 25.46C4.80032 25.77 4.55032 26.01 4.25032 26.01C3.95032 26.01 3.70032 25.76 3.70032 25.46C3.70032 24.74 3.96032 24.36 4.16032 24.06V24.07ZM27.7003 31.88C27.4103 31.97 27.1003 31.8 27.0103 31.51C26.9903 31.46 26.9703 31.4 26.9603 31.35C26.8403 30.98 26.7203 30.61 26.5803 30.25C25.4303 27.26 23.5703 24.81 21.2403 23.25C21.2303 23.25 21.2203 23.26 21.2003 23.27C21.0203 23.38 20.8403 23.49 20.6603 23.59C19.1103 24.45 17.3803 24.9 15.5903 24.9C13.8003 24.9 12.0603 24.44 10.5103 23.58C10.3303 23.48 10.1503 23.37 9.97032 23.26C9.96032 23.26 9.95032 23.25 9.94032 23.24C7.61032 24.8 5.74032 27.25 4.59032 30.25C4.45032 30.61 4.33032 30.97 4.21032 31.35C4.19032 31.4 4.17032 31.46 4.16032 31.51C4.09032 31.75 3.87032 31.9 3.63032 31.9C3.58032 31.9 3.52032 31.9 3.47032 31.88C3.18032 31.79 3.01032 31.48 3.10032 31.19C4.27032 27.33 6.53032 24.16 9.44032 22.25C9.75032 22.05 10.1503 22.05 10.4603 22.25C10.4703 22.25 10.4803 22.26 10.5003 22.27C10.6603 22.17 10.8303 22.08 10.9903 21.99C8.12032 20.38 6.14032 17.33 6.09032 13.83C6.09032 13.56 6.28032 13.32 6.54032 13.28C11.5203 12.37 12.9503 10.24 13.3603 9.05002C13.4303 8.84002 13.6203 8.70002 13.8303 8.68002C14.0503 8.66002 14.2603 8.77002 14.3603 8.96002C15.1603 10.38 17.5503 12.9 24.6103 13.77C24.9003 13.81 25.1203 14.07 25.1003 14.36C24.8703 17.66 22.9403 20.49 20.2203 22.01C20.3803 22.1 20.5503 22.19 20.7103 22.29C20.7203 22.29 20.7303 22.28 20.7503 22.27C21.0603 22.07 21.4603 22.06 21.7703 22.27C24.6803 24.18 26.9303 27.35 28.1003 31.2C28.1903 31.49 28.0203 31.8 27.7303 31.89H27.7003V31.88ZM15.5903 23.81C16.9703 23.81 18.3203 23.51 19.5603 22.93C19.3403 22.82 19.1203 22.72 18.9003 22.62C17.8703 23.01 16.7503 23.22 15.5903 23.22C14.4303 23.22 13.3103 23 12.2703 22.61C12.0503 22.7 11.8303 22.81 11.6103 22.92C12.8503 23.5 14.2003 23.81 15.5903 23.81ZM13.9503 10.35C13.1403 11.71 11.3203 13.43 7.20032 14.28C7.43032 17.47 9.47032 20.19 12.2803 21.41C12.5403 21.52 12.8103 21.63 13.0903 21.72C13.5203 21.85 13.9603 21.95 14.4103 22.02C14.8003 22.08 15.1903 22.11 15.5903 22.11C15.9903 22.11 16.3803 22.07 16.7603 22.02C17.2103 21.96 17.6503 21.86 18.0803 21.73C18.3603 21.64 18.6303 21.54 18.8903 21.43C21.5503 20.28 23.5303 17.81 23.9203 14.81C18.1203 14 15.3103 12.09 13.9503 10.36V10.35Z" fill="url(#paint0_linear_2266_3161)"/>
<defs>
<linearGradient id="paint0_linear_2266_3161" x1="5.2679" y1="0.0200181" x2="32.4157" y2="5.13276" gradientUnits="userSpaceOnUse">
<stop stop-color="#B63AB4"/>
<stop offset="1" stop-color="#513B9F"/>
</linearGradient>
</defs>
</svg>
