<svg width="32" height="32" viewBox="0 0 32 32" fill="none" xmlns="http://www.w3.org/2000/svg">
<g clip-path="url(#clip0_2266_1991)">
<path d="M31.9804 5.52016L27.6804 1.24016C27.5104 1.07016 27.2304 1.07016 27.0604 1.24016L22.7604 5.52016C22.5804 5.68016 22.5504 5.96016 22.7104 6.14016C22.8703 6.32016 23.1504 6.35016 23.3304 6.19016C23.3504 6.18016 23.3603 6.16016 23.3804 6.14016L26.9304 2.61016V25.8102C27.0104 28.6702 24.7604 31.0502 21.9104 31.1302C19.0504 31.2102 16.6704 28.9602 16.5904 26.1102C16.5904 26.0102 16.5904 25.9102 16.5904 25.8102V5.85016C16.6804 2.51016 14.0404 -0.279836 10.7004 -0.369836C7.36035 -0.459836 4.57035 2.18016 4.48035 5.52016C4.48035 5.63016 4.48035 5.74016 4.48035 5.85016V29.0502L0.930352 25.5002C0.760352 25.3302 0.480352 25.3302 0.300352 25.5002C0.130352 25.6702 0.130352 25.9502 0.300352 26.1302L4.60035 30.4302C4.77035 30.6002 5.05035 30.6002 5.22035 30.4302L9.52035 26.1302C9.68035 25.9502 9.66035 25.6702 9.47035 25.5102C9.31035 25.3702 9.06035 25.3702 8.90035 25.5102L5.35035 29.0602V5.85016C5.27035 2.99016 7.52035 0.610164 10.3704 0.530164C13.2304 0.450164 15.6104 2.70016 15.6904 5.55016C15.6904 5.65016 15.6904 5.75016 15.6904 5.85016V25.8102C15.6004 29.1502 18.2404 31.9402 21.5804 32.0302C24.9204 32.1202 27.7104 29.4802 27.8004 26.1402C27.8004 26.0302 27.8004 25.9202 27.8004 25.8102V2.61016L31.3504 6.16016C31.5304 6.33016 31.8104 6.33016 31.9804 6.15016C32.1504 5.97016 32.1504 5.69016 31.9704 5.52016H31.9804Z" fill="url(#paint0_linear_2266_1991)"/>
</g>
<defs>
<linearGradient id="paint0_linear_2266_1991" x1="2.96706" y1="-0.372072" x2="36.9106" y2="7.64689" gradientUnits="userSpaceOnUse">
<stop stop-color="#B63AB4"/>
<stop offset="1" stop-color="#513B9F"/>
</linearGradient>
<clipPath id="clip0_2266_1991">
<rect width="32" height="32" fill="white"/>
</clipPath>
</defs>
</svg>
