<svg width="32" height="32" viewBox="0 0 32 32" fill="none" xmlns="http://www.w3.org/2000/svg">
<g clip-path="url(#clip0_2266_1982)">
<path d="M16 0.279785C7.27996 0.279785 0.209961 7.34978 0.209961 16.0698C0.209961 24.7898 7.27996 31.8598 16 31.8598C24.72 31.8598 31.79 24.7898 31.79 16.0698C31.78 7.34978 24.72 0.289785 16 0.279785ZM16 30.7098C7.90996 30.7098 1.35996 24.1498 1.35996 16.0698C1.35996 7.98979 7.90996 1.42979 16 1.42979C24.09 1.42979 30.64 7.98979 30.64 16.0698C30.64 24.1498 24.08 30.6998 16 30.7098ZM9.18996 14.6798C10.57 14.6398 11.66 13.4798 11.61 12.0998C11.59 11.4098 11.29 10.7598 10.77 10.3098L6.61996 12.3998C6.73996 13.7198 7.85996 14.7198 9.18996 14.6898V14.6798ZM8.12996 12.2398C8.53996 12.2298 8.87996 12.5498 8.88996 12.9598C8.89996 13.3698 8.57996 13.7098 8.16996 13.7198C7.75996 13.7298 7.41996 13.4098 7.40996 12.9998C7.40996 12.5898 7.71996 12.2598 8.12996 12.2398ZM20.39 12.0998C20.34 13.4798 21.42 14.6398 22.8 14.6898C24.13 14.7398 25.27 13.7298 25.38 12.3998L21.23 10.3098C20.71 10.7598 20.4 11.4098 20.39 12.0998ZM23.87 12.2398C24.28 12.2498 24.6 12.5898 24.59 12.9998C24.58 13.4098 24.24 13.7298 23.83 13.7198C23.42 13.7098 23.1 13.3698 23.11 12.9598C23.12 12.5498 23.46 12.2298 23.87 12.2398ZM16.01 22.5198C15.7 22.5198 15.4 22.5298 15.1 22.5598L6.48996 13.9598C5.55996 13.0298 4.04996 13.0298 3.10996 13.9598L3.00996 14.0598C2.07996 14.9898 2.07996 16.4998 3.00996 17.4298L10.28 24.6998C10.06 24.9198 9.86996 25.1698 9.70996 25.4398C9.54996 25.7098 9.63996 26.0698 9.90996 26.2298C9.99996 26.2798 10.1 26.3098 10.2 26.3098C10.4 26.3098 10.59 26.1998 10.69 26.0298C10.8 25.8398 10.93 25.6698 11.08 25.5098C11.34 25.2198 11.63 24.9698 11.96 24.7698C12.17 24.6298 12.4 24.4998 12.63 24.3998C13.01 24.2198 13.41 24.0698 13.81 23.9598C14.09 23.8798 14.38 23.8198 14.67 23.7798C15.11 23.7098 15.55 23.6798 16 23.6798C16.07 23.6798 16.14 23.6798 16.2 23.6798C18.41 23.7298 20.43 24.6398 21.27 25.9898C21.44 26.2598 21.79 26.3398 22.06 26.1698C22.33 25.9998 22.41 25.6498 22.24 25.3798C21.15 23.6498 18.7 22.5298 15.99 22.5298L16.01 22.5198ZM12.91 23.0398L5.43996 15.5698C5.21996 15.3498 4.84996 15.3498 4.62996 15.5698C4.40996 15.7998 4.40996 16.1598 4.62996 16.3898L11.79 23.5398C11.57 23.6598 11.35 23.7898 11.15 23.9498L3.81996 16.6198C3.33996 16.1398 3.33996 15.3498 3.81996 14.8698L3.91996 14.7698C4.14996 14.5398 4.46996 14.4098 4.78996 14.4098C5.11996 14.4098 5.42996 14.5398 5.66996 14.7698L13.7 22.7998C13.43 22.8598 13.16 22.9398 12.9 23.0398H12.91Z" fill="url(#paint0_linear_2266_1982)"/>
</g>
<defs>
<linearGradient id="paint0_linear_2266_1982" x1="2.97321" y1="0.279784" x2="36.4881" y2="8.31418" gradientUnits="userSpaceOnUse">
<stop stop-color="#B63AB4"/>
<stop offset="1" stop-color="#513B9F"/>
</linearGradient>
<clipPath id="clip0_2266_1982">
<rect width="32" height="32" fill="white"/>
</clipPath>
</defs>
</svg>
