<svg preserveAspectRatio="none" width="100%" height="100%" overflow="visible" style="display: block;" viewBox="0 0 32 32" fill="none" xmlns="http://www.w3.org/2000/svg">
<g id="Group 979">
<path id="Vector" d="M27.3655 4.63448C33.5448 10.9241 33.5448 21.0759 27.3655 27.3655C21.0759 33.5448 10.9241 33.5448 4.63448 27.3655C-1.54483 21.0759 -1.54483 10.9241 4.63448 4.63448C10.9241 -1.54483 21.0759 -1.54483 27.3655 4.63448ZM26.2621 5.73793C20.6345 0.110345 11.3655 0.110345 5.73793 5.73793C0.110345 11.3655 0.110345 20.6345 5.73793 26.2621C11.3655 32 20.6345 32 26.2621 26.2621C32 20.6345 32 11.3655 26.2621 5.73793Z" fill="#B63AB4"/>
<path id="Vector_2" d="M13.2414 13.0207L9.93103 9.6L6.51034 13.0207L7.50345 14.1241L9.93103 11.6966L12.2483 14.0138L13.2414 13.0207Z" fill="#B63AB4"/>
<path id="Vector_3" d="M18.7586 13.0207L22.069 9.6L25.4897 13.0207L24.4966 14.1241L22.069 11.6966L19.7517 14.0138L18.7586 13.0207Z" fill="#B63AB4"/>
<path id="Vector_4" d="M16.5517 20.7448L15.4483 21.7379L16.5517 22.731L15.7793 23.5034L13.9034 21.7379L15.0069 20.6345L13.9034 19.6414L15.7793 17.8759L16.5517 18.6483L15.4483 19.6414L16.5517 20.7448Z" fill="#B63AB4"/>
</g>
</svg>
