<svg width="32" height="32" viewBox="2 2 28 28" fill="none" xmlns="http://www.w3.org/2000/svg">
<path d="M15.2804 24.0501C14.0704 24.0501 12.9004 23.6301 11.9604 22.8501C10.7204 21.9201 9.73039 20.4601 9.03039 18.5301L8.57039 16.9801C8.53039 16.8401 8.38039 16.7601 8.23039 16.8001C8.08039 16.8401 8.01039 16.9901 8.05039 17.1401L8.51039 18.7101C8.51039 18.7101 8.53039 18.7701 8.54039 18.8001C7.63039 18.7501 6.86039 17.8801 6.43039 17.0501C5.87039 15.9801 5.75039 14.8201 6.15039 14.2501C6.39039 13.9101 6.80039 13.7701 7.39039 13.8401H7.43039C7.43039 13.8401 7.47039 13.8401 7.48039 13.8401H7.49039C7.49039 13.8401 7.49039 13.8401 7.50039 13.8401C7.56039 13.8301 7.62039 13.8101 7.69039 13.7901C7.73039 13.7901 7.76039 13.7801 7.80039 13.7601C12.2704 12.5501 14.8604 9.32012 15.3504 8.66012C15.3804 8.68012 15.4104 8.70012 15.4404 8.71012C16.1504 9.09012 16.8904 9.39012 17.6104 9.69012C18.2704 9.96012 18.9504 10.2401 19.5904 10.5701C21.2204 11.4101 22.2204 12.3801 22.6504 13.5101C22.6504 13.5101 22.6504 13.5201 22.6604 13.5301C22.6604 13.5301 22.6604 13.5401 22.6704 13.5501C22.6704 13.5501 22.6704 13.5601 22.6804 13.5701L22.6904 13.5801C22.6904 13.5801 22.7004 13.5901 22.7104 13.6001C22.7104 13.6001 22.7204 13.6101 22.7304 13.6101H22.7404H22.7604L22.7804 13.6301H22.7904C22.8004 13.6301 22.8104 13.6301 22.8204 13.6301H22.8304H22.8704C22.8704 13.6301 22.9204 13.6301 22.9404 13.6201H22.9504C22.9504 13.6201 22.9704 13.6201 22.9704 13.6101C22.9704 13.6101 22.9804 13.6001 22.9904 13.6001C22.9904 13.6001 23.0004 13.5901 23.0104 13.5801C23.0104 13.5801 23.0104 13.5801 23.0204 13.5701C23.0204 13.5701 23.0304 13.5601 23.0404 13.5501C23.0404 13.5501 23.0504 13.5401 23.0504 13.5301C23.0504 13.5201 23.0504 13.5201 23.0604 13.5101C23.0604 13.5101 23.0604 13.5001 23.0604 13.4901V13.4701V13.4501C23.0604 13.4401 23.0604 13.4301 23.0604 13.4201C23.6604 6.00012 18.9004 4.20012 18.8604 4.18012C18.7204 4.13012 18.5704 4.20012 18.5104 4.34012C18.4504 4.48012 18.5304 4.63012 18.6704 4.69012C18.8204 4.75012 21.9904 5.97012 22.5004 10.7801C20.6204 6.10012 14.8004 6.14012 14.7404 6.15012C14.5904 6.15012 14.4704 6.28012 14.4704 6.43012C14.4704 6.58012 14.5904 6.70012 14.7504 6.70012C15.0304 6.70012 21.1204 6.66012 22.3304 12.0701C21.7404 11.3301 20.8804 10.6701 19.7304 10.0801C19.0704 9.74012 18.3804 9.46012 17.7104 9.18012C17.0004 8.89012 16.2704 8.59012 15.5904 8.22012C13.0004 6.84012 11.3604 4.57012 9.91039 2.33012C11.4004 1.28012 13.2204 0.660117 15.1904 0.660117C20.2104 0.660117 24.2804 4.68012 24.2804 9.62012C24.2804 11.3201 24.0404 12.3501 23.3604 13.5501C23.2904 13.6801 23.3304 13.8401 23.4604 13.9201C23.5004 13.9401 23.5504 13.9601 23.5904 13.9601C23.6804 13.9601 23.7804 13.9101 23.8304 13.8201C24.6604 12.3501 24.8204 11.1701 24.8204 9.62012C24.9204 4.38012 20.5904 0.120117 15.2804 0.120117C13.1104 0.120117 11.1104 0.830117 9.50039 2.02012C9.50039 2.02012 9.49039 2.02012 9.48039 2.03012C9.46039 2.04012 9.44039 2.06012 9.43039 2.08012C7.13039 3.82012 5.64039 6.55012 5.64039 9.62012C5.64039 11.2201 5.68039 12.1001 6.39039 13.3901C6.06039 13.5201 5.84039 13.7301 5.70039 13.9301C5.11039 14.7901 5.39039 16.2401 5.95039 17.2901C6.62039 18.5701 7.62039 19.3301 8.62039 19.3301C8.67039 19.3301 8.71039 19.3201 8.75039 19.3001C9.47039 21.0201 10.4204 22.3501 11.5804 23.2401C11.6904 23.6901 11.6104 26.3001 10.4204 28.4501C9.54039 30.0401 8.25039 31.0301 6.62039 31.3801C6.47039 31.4101 6.38039 31.5601 6.41039 31.7001C6.44039 31.8301 6.55039 31.9101 6.67039 31.9101C6.69039 31.9101 6.71039 31.9101 6.73039 31.9101C10.2204 31.1601 11.4404 27.9401 11.8704 26.0901C12.0404 25.3501 12.1704 24.3501 12.1604 23.6501C13.0904 24.2501 14.1704 24.5801 15.2904 24.5801C15.4404 24.5801 15.5604 24.4601 15.5604 24.3101C15.5604 24.1601 15.4404 24.0401 15.2904 24.0401L15.2804 24.0501ZM6.19039 9.61012C6.19039 6.80012 7.51039 4.29012 9.57039 2.65012C10.9404 4.77012 12.5004 6.92012 14.8604 8.37012C14.3304 9.05012 11.9204 11.9501 7.96039 13.1301C8.17039 11.0201 10.1204 8.93012 10.1404 8.91012C10.2404 8.80012 10.2404 8.63012 10.1304 8.53012C10.0204 8.43012 9.85039 8.43012 9.75039 8.54012C9.66039 8.64012 7.53039 10.9201 7.41039 13.2901C7.25039 13.2701 7.10039 13.2701 6.96039 13.2801C6.23039 12.0101 6.19039 11.2301 6.19039 9.62012V9.61012Z" fill="#5C4A3B" stroke="#5C4A3B" stroke-width="0.4"/>
<path d="M13.0196 14.5199C11.7196 15.5099 10.1496 14.5499 10.0796 14.5099C9.94959 14.4299 9.78959 14.4699 9.70959 14.5899C9.62959 14.7199 9.66959 14.8799 9.78959 14.9699C9.83959 14.9999 10.6696 15.5199 11.6896 15.5199C12.2196 15.5199 12.7996 15.3799 13.3496 14.9599C13.4696 14.8699 13.4896 14.6999 13.3996 14.5799C13.3096 14.4599 13.1396 14.4399 13.0196 14.5299V14.5199Z" fill="#5C4A3B" stroke="#5C4A3B" stroke-width="0.4"/>
<path d="M20.4804 14.51C20.4104 14.55 18.8404 15.52 17.5404 14.52C17.4204 14.43 17.2504 14.45 17.1604 14.57C17.0704 14.69 17.0904 14.86 17.2104 14.95C17.7604 15.37 18.3404 15.51 18.8704 15.51C19.8804 15.51 20.7204 15 20.7704 14.96C20.9004 14.88 20.9304 14.71 20.8504 14.59C20.7704 14.46 20.6004 14.43 20.4804 14.51Z" fill="#5C4A3B" stroke="#5C4A3B" stroke-width="0.4"/>
<path d="M24.0903 18.7199C23.9203 17.9299 23.6203 17.4399 23.2003 17.2599C22.8903 17.1299 22.5503 17.1899 22.1803 17.4199C21.5703 17.8199 21.1603 18.5399 20.7603 19.2199C20.4603 19.7499 20.1703 20.2399 19.8203 20.5899C19.6003 20.7999 18.8203 21.1399 18.1403 21.4299C17.2803 21.7999 16.4703 22.1499 16.1703 22.4699C15.6903 22.9799 15.6003 23.5299 15.8503 24.4299C16.6103 27.1599 17.2203 29.0899 17.5903 30.2499C17.8303 30.9999 17.9903 31.5099 18.0103 31.6699C18.0303 31.8199 18.1703 31.9199 18.3203 31.8999C18.4703 31.8799 18.5703 31.7399 18.5503 31.5899C18.5203 31.3799 18.3703 30.9199 18.1103 30.0799C17.7403 28.9299 17.1403 27.0099 16.3803 24.2799C16.1503 23.4699 16.2703 23.1599 16.5703 22.8399C16.8003 22.5999 17.6303 22.2399 18.3703 21.9199C19.2003 21.5599 19.9103 21.2499 20.2103 20.9699C20.6203 20.5799 20.9403 20.0199 21.2503 19.4799C21.6203 18.8399 21.9903 18.1899 22.5003 17.8599C22.7003 17.7299 22.8803 17.6799 23.0103 17.7399C23.2503 17.8399 23.4503 18.2299 23.5803 18.8099C23.9703 20.6199 22.7903 23.1999 19.8303 24.4199C19.6903 24.4799 19.6303 24.6299 19.6803 24.7699C19.7603 24.9799 21.6903 29.9499 22.6703 31.7499C22.7203 31.8399 22.8103 31.8899 22.9103 31.8899C22.9603 31.8899 23.0003 31.8799 23.0403 31.8599C23.1703 31.7899 23.2203 31.6199 23.1503 31.4899C22.3103 29.9499 20.6903 25.8599 20.2803 24.8199C23.3203 23.4499 24.5303 20.6799 24.1103 18.7099L24.0903 18.7199Z" fill="#5C4A3B" stroke="#5C4A3B" stroke-width="0.4"/>

</svg>
