<svg width="32" height="32" viewBox="2 2 28 28" fill="none" xmlns="http://www.w3.org/2000/svg">
<g clip-path="url(#clip0_2266_3034)">
<path d="M23.5104 31.5701C21.8504 31.2301 20.6704 30.2801 19.9604 28.8001C18.9104 26.6401 19.2504 24.1301 19.3904 23.7601C20.6404 22.8101 21.5504 21.5601 22.2304 19.9001C23.2404 19.8701 24.2304 19.0901 24.9004 17.8001C25.4704 16.7201 25.7504 15.2601 25.1704 14.3801C25.0304 14.2101 24.8704 14.0101 24.6004 13.8701C25.3404 12.4801 25.4804 11.3301 25.4804 9.81012C25.4704 4.48012 21.0804 0.120117 15.6304 0.120117C13.4304 0.120117 11.3704 0.830117 9.75042 2.05012H9.72042C9.72042 2.05012 9.69042 2.08012 9.65042 2.08012C7.28042 3.91012 5.79042 6.68012 5.79042 9.82012C5.79042 11.4401 5.82042 12.3601 6.53042 13.6801C6.19042 13.8201 5.96042 14.0201 5.82042 14.2201C5.21042 15.1001 5.52042 16.5901 6.09042 17.6401C6.77042 18.9601 7.78042 19.7401 8.83042 19.7401C8.86042 19.7401 8.93042 19.7401 8.97042 19.7101C9.71042 21.4701 10.6904 22.8201 11.8804 23.7301C12.0204 24.1001 12.3204 26.6401 11.3104 28.7701C10.6004 30.2601 9.38042 31.2001 7.76042 31.5401C7.62042 31.5701 7.52042 31.7101 7.56042 31.8801C7.59042 32.0201 7.70042 32.1201 7.83042 32.1201H7.90042C10.8804 31.4801 11.9904 29.2101 12.4004 27.4201C12.6704 26.3001 12.6704 25.0201 12.5704 24.2101C13.4804 24.7801 14.5704 25.1201 15.6804 25.1201C16.7904 25.1201 17.8804 24.8201 18.7904 24.2101C18.6904 25.0201 18.7204 26.3101 18.9604 27.4201C19.3704 29.2101 20.4804 31.4801 23.4604 32.1201H23.5304C23.6704 32.1201 23.7704 32.0201 23.8004 31.8801C23.8004 31.7401 23.7004 31.5801 23.5304 31.5801L23.5104 31.5701ZM24.9004 9.82012C24.9004 11.5101 24.6604 12.5301 24.0204 13.7101C23.9204 13.7101 23.7804 13.6801 23.6504 13.7101C24.2604 6.13012 19.3904 4.31012 19.3604 4.27012C19.2204 4.24012 19.0604 4.30012 19.0204 4.44012C18.9504 4.58012 19.0504 4.74012 19.1904 4.78012C19.2204 4.78012 22.5404 6.07012 23.0804 10.9701C21.1504 6.24012 15.2304 6.30012 15.1704 6.30012C15.0004 6.30012 14.9004 6.44012 14.9004 6.57012C14.9004 6.74012 15.0404 6.84012 15.1704 6.84012C15.4404 6.84012 21.6604 6.81012 22.9104 12.3201C22.3004 11.5801 21.4204 10.9001 20.2704 10.2901C19.5904 9.95012 18.8804 9.65012 18.2104 9.38012C17.5004 9.08012 16.7604 8.77012 16.0504 8.40012C13.3804 6.98012 11.7204 4.68012 10.2304 2.38012C11.7504 1.30012 13.6104 0.690117 15.6104 0.690117C20.7504 0.690117 24.9104 4.78012 24.9104 9.82012H24.9004ZM6.33042 9.82012C6.33042 6.95012 7.68042 4.41012 9.78042 2.72012C11.1704 4.88012 12.7604 7.08012 15.1904 8.54012C14.6504 9.25012 12.1804 12.1901 8.16042 13.4101C8.36042 11.2501 10.3604 9.12012 10.3904 9.12012C10.4904 9.02012 10.4904 8.82012 10.3904 8.71012C10.2904 8.61012 10.1204 8.61012 9.98042 8.71012C9.88042 8.81012 7.71042 11.1401 7.61042 13.5501C7.44042 13.5501 7.31042 13.5201 7.14042 13.5501C6.36042 12.2601 6.33042 11.4501 6.33042 9.83012V9.82012ZM12.2204 23.3201C10.9704 22.3701 9.95042 20.8901 9.24042 18.9201L8.77042 17.3301C8.74042 17.1901 8.57042 17.0901 8.43042 17.1601C8.29042 17.1901 8.19042 17.3601 8.26042 17.5001L8.73042 19.0901C8.73042 19.0901 8.76042 19.1601 8.76042 19.1901C7.85042 19.1601 7.04042 18.2401 6.60042 17.4001C6.03042 16.3201 5.92042 15.1301 6.30042 14.5601C6.54042 14.2201 6.98042 14.0901 7.55042 14.1501H7.62042C7.69042 14.1501 7.76042 14.1201 7.82042 14.0801C7.85042 14.0801 7.89042 14.0801 7.92042 14.0501C12.4904 12.8301 15.1204 9.52012 15.6304 8.84012C15.6604 8.84012 15.7004 8.87012 15.7304 8.91012C16.4404 9.28012 17.2204 9.62012 17.9304 9.92012C18.6104 10.1901 19.2804 10.4901 19.9604 10.8301C21.6204 11.6801 22.6304 12.6901 23.0704 13.8401V13.9401C23.0704 13.9401 23.0404 14.0401 23.0404 14.1101C23.0704 14.2801 23.2104 14.3801 23.3404 14.3501C23.9504 14.2801 24.3504 14.4201 24.5904 14.7601C25.0004 15.3301 24.8604 16.5201 24.3204 17.6001C23.9104 18.3801 23.2004 19.2201 22.3604 19.3601C22.4304 19.1201 22.5304 18.9201 22.6004 18.6801L22.9404 17.3301C22.9704 17.1901 22.8704 17.0301 22.7404 16.9901C22.6104 16.9501 22.4404 17.0601 22.4004 17.1901L22.1004 18.5401C21.4204 20.7401 20.4404 22.2901 18.9504 23.3801C18.0004 24.1601 16.8204 24.6001 15.5704 24.6001C14.3904 24.5301 13.1704 24.0901 12.2204 23.3101V23.3201Z" fill="#5C4A3B" stroke="#5C4A3B" stroke-width="0.4"/>
<path d="M13.3 14.83C11.98 15.84 10.39 14.86 10.29 14.83C10.15 14.76 9.98999 14.8 9.91999 14.9C9.84999 15 9.88999 15.2 9.98999 15.27C10.06 15.3 10.9 15.84 11.92 15.84C12.46 15.84 13.04 15.7 13.61 15.27C13.75 15.17 13.75 15 13.68 14.86C13.61 14.76 13.44 14.72 13.31 14.83H13.3Z" fill="#5C4A3B" stroke="#5C4A3B" stroke-width="0.4"/>
<path d="M21.21 15.2701C21.35 15.2001 21.38 15.0301 21.28 14.9001C21.21 14.7601 21.04 14.7301 20.91 14.8001C20.84 14.8301 19.22 15.8101 17.9 14.8001C17.76 14.7001 17.6 14.7301 17.49 14.8701C17.38 15.0101 17.42 15.1701 17.56 15.2801C18.13 15.7201 18.71 15.8501 19.25 15.8501C20.3 15.8501 21.14 15.3101 21.21 15.2801V15.2701Z" fill="#5C4A3B" stroke="#5C4A3B" stroke-width="0.4"/>
<path d="M18.9796 21.6901C19.0735 21.6901 19.1496 21.614 19.1496 21.5201C19.1496 21.4262 19.0735 21.3501 18.9796 21.3501C18.8857 21.3501 18.8096 21.4262 18.8096 21.5201C18.8096 21.614 18.8857 21.6901 18.9796 21.6901Z" fill="#5C4A3B" stroke="#5C4A3B" stroke-width="0.4"/>
<path d="M12.2198 20.9201C12.3137 20.9201 12.3898 20.844 12.3898 20.7501C12.3898 20.6562 12.3137 20.5801 12.2198 20.5801C12.1259 20.5801 12.0498 20.6562 12.0498 20.7501C12.0498 20.844 12.1259 20.9201 12.2198 20.9201Z" fill="#5C4A3B" stroke="#5C4A3B" stroke-width="0.4"/>
<path d="M19.3204 20.2399C19.4143 20.2399 19.4904 20.1638 19.4904 20.0699C19.4904 19.976 19.4143 19.8999 19.3204 19.8999C19.2265 19.8999 19.1504 19.976 19.1504 20.0699C19.1504 20.1638 19.2265 20.2399 19.3204 20.2399Z" fill="#5C4A3B" stroke="#5C4A3B" stroke-width="0.4"/>
<path d="M11.2003 19.9001C11.2942 19.9001 11.3703 19.8239 11.3703 19.7301C11.3703 19.6362 11.2942 19.5601 11.2003 19.5601C11.1064 19.5601 11.0303 19.6362 11.0303 19.7301C11.0303 19.8239 11.1064 19.9001 11.2003 19.9001Z" fill="#5C4A3B" stroke="#5C4A3B" stroke-width="0.4"/>
<path d="M19.9903 21.2599C20.0842 21.2599 20.1603 21.1838 20.1603 21.0899C20.1603 20.996 20.0842 20.9199 19.9903 20.9199C19.8964 20.9199 19.8203 20.996 19.8203 21.0899C19.8203 21.1838 19.8964 21.2599 19.9903 21.2599Z" fill="#5C4A3B" stroke="#5C4A3B" stroke-width="0.4"/>
<path d="M11.5401 21.59C11.634 21.59 11.7101 21.5139 11.7101 21.42C11.7101 21.3261 11.634 21.25 11.5401 21.25C11.4462 21.25 11.3701 21.3261 11.3701 21.42C11.3701 21.5139 11.4462 21.59 11.5401 21.59Z" fill="#5C4A3B" stroke="#5C4A3B" stroke-width="0.4"/>
<path d="M12.5499 19.9001C12.6438 19.9001 12.7199 19.8239 12.7199 19.7301C12.7199 19.6362 12.6438 19.5601 12.5499 19.5601C12.456 19.5601 12.3799 19.6362 12.3799 19.7301C12.3799 19.8239 12.456 19.9001 12.5499 19.9001Z" fill="#5C4A3B" stroke="#5C4A3B" stroke-width="0.4"/>
<path d="M20.3302 19.9001C20.424 19.9001 20.5002 19.8239 20.5002 19.7301C20.5002 19.6362 20.424 19.5601 20.3302 19.5601C20.2363 19.5601 20.1602 19.6362 20.1602 19.7301C20.1602 19.8239 20.2363 19.9001 20.3302 19.9001Z" fill="#5C4A3B" stroke="#5C4A3B" stroke-width="0.4"/>
<path d="M12.5499 21.9301C12.6438 21.9301 12.7199 21.854 12.7199 21.7601C12.7199 21.6662 12.6438 21.5901 12.5499 21.5901C12.456 21.5901 12.3799 21.6662 12.3799 21.7601C12.3799 21.854 12.456 21.9301 12.5499 21.9301Z" fill="#5C4A3B" stroke="#5C4A3B" stroke-width="0.4"/>
</g>

</svg>
