<svg width="32" height="32" viewBox="0 0 32 32" fill="none" xmlns="http://www.w3.org/2000/svg">
<g clip-path="url(#clip0_2266_1880)">
<path d="M24.6197 28.5101C26.5897 25.4201 25.9397 21.3601 25.0297 19.3901C23.5997 16.3001 24.3397 12.7201 24.3497 12.6901C24.4097 12.4001 24.2297 12.1201 23.9397 12.0501C23.7897 12.0201 23.6297 12.0501 23.4997 12.1501C22.7897 12.7301 22.1897 13.4301 21.7197 14.2201C21.6497 11.9601 20.6097 10.4001 18.4797 8.15008C15.7397 5.26008 17.9397 0.820076 17.9597 0.770076C18.0997 0.510076 17.9997 0.180076 17.7397 0.0500761C17.5497 -0.0499239 17.3097 -0.0299239 17.1397 0.120076C16.9797 0.250076 13.2797 3.44008 14.4497 7.55008C14.8397 8.99008 14.9297 10.4901 14.7197 11.9601C14.2097 9.83008 13.1997 7.86008 11.7597 6.21008C11.5597 6.00008 11.2197 5.99008 10.9997 6.19008C10.8597 6.32008 10.7997 6.52008 10.8497 6.71008C11.5897 9.64008 11.4597 14.2901 11.2597 17.4201C10.6697 16.1301 9.74965 15.0201 8.57965 14.2201C8.32965 14.0601 7.99965 14.1401 7.83965 14.3901C7.72965 14.5601 7.72965 14.7701 7.82965 14.9501C7.83965 14.9801 9.32965 17.6201 8.44965 20.1901C8.25965 20.7401 6.66965 25.6701 9.10965 29.0901C10.5597 31.1101 13.0697 32.1401 16.5797 32.1401C21.3197 32.1401 23.5697 30.1701 24.6297 28.5201L24.6197 28.5101ZM22.4597 27.8501C21.5097 30.5401 18.4997 30.9801 17.1397 31.0401C17.0897 31.0401 17.0297 31.0401 16.9697 31.0401C16.8997 31.0401 16.8297 31.0401 16.7697 31.0401C14.7297 31.0401 12.1897 30.2701 11.7097 26.5801C11.6397 25.7701 11.7597 24.9601 12.0397 24.2001C12.4497 24.9701 12.9597 25.6901 13.5497 26.3301C13.7697 26.5301 14.1097 26.5201 14.3097 26.3001C14.4197 26.1901 14.4697 26.0301 14.4497 25.8801C14.4497 25.8201 13.8897 20.3001 16.7497 17.5001C16.6597 19.1101 17.3097 20.6801 18.5197 21.7501C20.4697 23.5901 20.8597 24.9501 20.8697 24.9601C20.9497 25.2501 21.2397 25.4201 21.5197 25.3401C21.6197 25.3101 21.7097 25.2601 21.7897 25.1801C22.0797 24.8301 22.3197 24.4501 22.5097 24.0401C22.8397 25.2901 22.8297 26.6001 22.4597 27.8401V27.8501ZM22.8397 21.6601C22.7097 21.3901 22.3897 21.2801 22.1297 21.4101C21.9197 21.5101 21.7997 21.7401 21.8297 21.9701C21.8997 22.5801 21.7697 23.1901 21.4797 23.7301C20.8797 22.7101 20.1397 21.7801 19.2597 20.9901C17.9397 19.8901 17.4597 18.0801 18.0497 16.4601C18.1697 16.1901 18.0497 15.8701 17.7797 15.7501C17.6197 15.6801 17.4397 15.6901 17.2997 15.7701C13.9897 17.6701 13.3897 21.8801 13.3397 24.2701C12.9797 23.6901 12.6497 23.0901 12.4997 22.7901C12.4097 22.6201 12.2397 22.5101 12.0397 22.5001C11.8397 22.4901 11.6597 22.5901 11.5597 22.7601C10.8497 23.9501 10.5297 25.3401 10.6597 26.7201C10.7797 27.9801 11.2697 29.1801 12.0697 30.1701C11.2397 29.7801 10.5197 29.1901 9.97965 28.4501C7.84965 25.4701 9.28965 21.0201 9.45965 20.5201C9.85965 19.2901 9.90965 17.9701 9.60965 16.7101C10.4597 17.9001 10.9297 19.3301 10.9597 20.7901C10.9697 21.0701 11.1897 21.2901 11.4697 21.3001C11.7497 21.3001 11.9897 21.1001 12.0297 20.8301C12.0697 20.5001 12.8497 13.8001 12.2897 8.79008C13.3597 10.6401 13.9597 12.7201 14.0197 14.8501C14.0197 15.1501 14.2697 15.3801 14.5697 15.3701C14.7797 15.3701 14.9697 15.2301 15.0497 15.0401C15.9797 12.5401 16.1197 9.82008 15.4597 7.24008C15.0997 5.80008 15.3397 4.28008 16.1197 3.03008C15.6697 5.11008 16.2497 7.29008 17.6897 8.87008C20.6897 12.0301 21.1397 13.5301 20.2297 17.3101C20.1597 17.6001 20.3397 17.8901 20.6297 17.9501C20.8997 18.0101 21.1697 17.8601 21.2597 17.6001C21.7097 16.3501 22.3197 15.1601 23.0897 14.0801C22.9397 16.0401 23.2697 18.0101 24.0497 19.8201C24.8397 21.5101 25.4397 25.2101 23.7097 27.9101C23.6197 28.0601 23.5097 28.1801 23.3997 28.3201C23.4197 28.2701 23.4397 28.2301 23.4597 28.1801C24.4997 25.2201 22.8997 21.7901 22.8297 21.6401L22.8397 21.6601Z" fill="url(#paint0_linear_2266_1880)"/>
</g>
<defs>
<linearGradient id="paint0_linear_2266_1880" x1="9.34404" y1="-0.0117202" x2="29.3474" y2="2.69539" gradientUnits="userSpaceOnUse">
<stop stop-color="#B63AB4"/>
<stop offset="1" stop-color="#513B9F"/>
</linearGradient>
<clipPath id="clip0_2266_1880">
<rect width="32" height="32" fill="white"/>
</clipPath>
</defs>
</svg>
