<svg width="32" height="32" viewBox="0 0 32 32" fill="none" xmlns="http://www.w3.org/2000/svg">
<path d="M29.0909 11.8254V4.75636C29.0909 4.56348 29.0143 4.37849 28.8779 4.2421C28.7415 4.10571 28.5565 4.02909 28.3636 4.02909C28.1707 4.02909 27.9857 4.10571 27.8494 4.2421C27.713 4.37849 27.6363 4.56348 27.6363 4.75636V11.2727C24.4912 11.4615 21.5365 12.8426 19.3743 15.1345C17.2122 17.4263 16.0054 20.4565 16 23.6072C15.9946 20.4565 14.7878 17.4263 12.6257 15.1345C10.4635 12.8426 7.50878 11.4615 4.36366 11.2727V4.72727C4.36366 4.53439 4.28703 4.3494 4.15064 4.21301C4.01425 4.07662 3.82927 4 3.63638 4C3.4435 4 3.25852 4.07662 3.12213 4.21301C2.98574 4.3494 2.90911 4.53439 2.90911 4.72727V11.8254C1.00702 14.741 -0.00390943 18.1479 2.68414e-05 21.6291V25.12C-0.00122288 25.264 0.0411935 25.405 0.121686 25.5245C0.202179 25.6439 0.316971 25.7362 0.450935 25.7891C5.24517 27.7094 10.5949 27.7094 15.3891 25.7891H16.6109C21.4051 27.7094 26.7548 27.7094 31.5491 25.7891C31.683 25.7362 31.7978 25.6439 31.8783 25.5245C31.9588 25.405 32.0012 25.264 32 25.12V21.6291C32.0039 18.1479 30.993 14.741 29.0909 11.8254ZM1.45457 24.6254V21.6291C1.44773 18.4772 2.34092 15.3889 4.02911 12.7273C6.85636 12.8364 9.53135 14.0368 11.4923 16.0764C13.4532 18.116 14.5476 20.8361 14.5455 23.6654V24.6254C10.3233 26.197 5.6767 26.197 1.45457 24.6254ZM30.5454 24.6254C26.3233 26.197 21.6767 26.197 17.4545 24.6254V23.6654C17.4524 20.8361 18.5468 18.116 20.5077 16.0764C22.4687 14.0368 25.1436 12.8364 27.9709 12.7273C29.6591 15.3889 30.5523 18.4772 30.5454 21.6291V24.6254Z" fill="url(#paint0_linear_2266_1691)"/>
<defs>
<linearGradient id="paint0_linear_2266_1691" x1="2.8" y1="4" x2="35.1809" y2="14.6935" gradientUnits="userSpaceOnUse">
<stop stop-color="#B63AB4"/>
<stop offset="1" stop-color="#513B9F"/>
</linearGradient>
</defs>
</svg>
