<svg width="32" height="32" viewBox="0 0 32 32" fill="none" xmlns="http://www.w3.org/2000/svg">
<path d="M24.3301 1.17993C21.6301 1.17993 17.1301 4.08993 16.0301 4.82993C14.9301 4.08993 10.4301 1.17993 7.73008 1.17993C4.49008 1.17993 1.49008 3.88993 0.44008 7.75993C-0.33992 10.6599 -1.55992 20.8999 15.8101 31.0499C15.8801 31.0899 15.9501 31.1099 16.0201 31.1099C16.0901 31.1099 16.1701 31.0899 16.2301 31.0499C33.6001 20.8999 32.3901 10.6599 31.6001 7.75993C30.5501 3.88993 27.5601 1.18993 24.3101 1.18993L24.3301 1.17993ZM16.0301 30.1899C-0.589921 20.3899 0.520079 10.7199 1.26008 7.97993C2.21008 4.47993 4.87008 2.02993 7.73008 2.02993C10.5901 2.02993 15.7301 5.64993 15.7901 5.68993C15.9401 5.78993 16.1301 5.78993 16.2701 5.68993C16.3201 5.64993 21.5701 2.02993 24.3301 2.02993C27.0901 2.02993 29.8501 4.47993 30.8001 7.97993C31.5401 10.7199 32.6601 20.3899 16.0301 30.1899Z" fill="#5C4A3B" stroke="#5C4A3B" stroke-width="0.4"/>
<path d="M15.2696 12.41C15.2696 10.79 13.9496 9.46997 12.3296 9.46997C10.7096 9.46997 9.38965 10.79 9.38965 12.41C9.38965 14.03 10.7096 15.35 12.3296 15.35C13.9496 15.35 15.2696 14.03 15.2696 12.41ZM10.2296 12.41C10.2296 11.25 11.1696 10.31 12.3296 10.31C13.4896 10.31 14.4296 11.25 14.4296 12.41C14.4296 13.57 13.4896 14.51 12.3296 14.51C11.1696 14.51 10.2296 13.57 10.2296 12.41Z" fill="#5C4A3B" stroke="#5C4A3B" stroke-width="0.4"/>
<path d="M13.7302 12.41C13.7302 11.63 13.1002 11 12.3202 11C11.5402 11 10.9102 11.63 10.9102 12.41C10.9102 13.19 11.5402 13.82 12.3202 13.82C13.1002 13.82 13.7302 13.19 13.7302 12.41ZM11.7602 12.41C11.7602 12.1 12.0102 11.84 12.3302 11.84C12.6502 11.84 12.9002 12.09 12.9002 12.41C12.9002 12.73 12.6502 12.98 12.3302 12.98C12.0102 12.98 11.7602 12.73 11.7602 12.41Z" fill="#5C4A3B" stroke="#5C4A3B" stroke-width="0.4"/>
<path d="M19.8199 9.46997C18.1999 9.46997 16.8799 10.79 16.8799 12.41C16.8799 14.03 18.1999 15.35 19.8199 15.35C21.4399 15.35 22.7599 14.03 22.7599 12.41C22.7599 10.79 21.4399 9.46997 19.8199 9.46997ZM19.8199 14.51C18.6599 14.51 17.7199 13.57 17.7199 12.41C17.7199 11.25 18.6599 10.31 19.8199 10.31C20.9799 10.31 21.9199 11.25 21.9199 12.41C21.9199 13.57 20.9799 14.51 19.8199 14.51Z" fill="#5C4A3B" stroke="#5C4A3B" stroke-width="0.4"/>
<path d="M19.8202 11C19.0402 11 18.4102 11.63 18.4102 12.41C18.4102 13.19 19.0402 13.82 19.8202 13.82C20.6002 13.82 21.2302 13.19 21.2302 12.41C21.2302 11.63 20.6002 11 19.8202 11ZM19.8202 12.98C19.5102 12.98 19.2502 12.73 19.2502 12.41C19.2502 12.09 19.5002 11.84 19.8202 11.84C20.1402 11.84 20.3902 12.09 20.3902 12.41C20.3902 12.73 20.1402 12.98 19.8202 12.98Z" fill="#5C4A3B" stroke="#5C4A3B" stroke-width="0.4"/>
<path d="M20.2102 18.1499C19.9302 17.8299 19.4002 17.8299 19.1302 18.1499L17.8802 19.5899L16.6302 18.1499C16.3502 17.8299 15.8202 17.8299 15.5502 18.1499L14.3002 19.5899L13.0502 18.1499C12.7702 17.8299 12.2402 17.8299 11.9702 18.1499L10.4302 19.9099C10.2802 20.0799 10.3002 20.3499 10.4702 20.4999C10.5502 20.5699 10.6502 20.5999 10.7502 20.5999C10.8702 20.5999 10.9802 20.5499 11.0702 20.4599L12.5202 18.7999L13.7702 20.2399C14.0502 20.5599 14.5802 20.5599 14.8502 20.2399L16.1002 18.7999L17.3502 20.2399C17.6302 20.5599 18.1602 20.5599 18.4302 20.2399L19.6802 18.7999L21.1302 20.4599C21.2802 20.6299 21.5502 20.6499 21.7202 20.4999C21.8902 20.3499 21.9102 20.0799 21.7602 19.9099L20.2202 18.1499H20.2102Z" fill="#5C4A3B" stroke="#5C4A3B" stroke-width="0.4"/>

</svg>
