<svg width="32" height="32" viewBox="0 0 32 32" fill="none" xmlns="http://www.w3.org/2000/svg">
<g clip-path="url(#clip0_2266_3272)">
<path d="M24.2797 1.30005C21.5797 1.30005 17.0697 4.21005 15.9697 4.95005C14.8697 4.21005 10.3597 1.30005 7.6597 1.30005C4.4197 1.30005 1.4197 4.00005 0.369696 7.88005C-0.420304 10.78 -1.6303 21.0401 15.7597 31.2001C15.8297 31.2401 15.8997 31.26 15.9697 31.26C16.0397 31.26 16.1197 31.2401 16.1797 31.2001C33.5697 21.0401 32.3597 10.78 31.5697 7.88005C30.5197 4.00005 27.5197 1.30005 24.2697 1.30005H24.2797ZM15.9697 30.34C-0.670303 20.53 0.449696 10.84 1.1897 8.10005C2.1397 4.59005 4.7997 2.14005 7.6697 2.14005C10.5397 2.14005 15.6797 5.77005 15.7397 5.81005C15.8897 5.91005 16.0797 5.91005 16.2197 5.81005C16.2697 5.77005 21.5197 2.14005 24.2897 2.14005C27.0597 2.14005 29.8197 4.59005 30.7697 8.10005C31.5097 10.84 32.6297 20.5201 15.9797 30.34H15.9697Z" fill="#5C4A3B" stroke="#5C4A3B" stroke-width="0.4"/>
<path d="M21.6696 16.75H10.2696C10.0396 16.75 9.84961 16.94 9.84961 17.17C9.84961 17.4 10.0396 17.59 10.2696 17.59H21.2196C20.9996 20.3 18.7296 22.44 15.9596 22.44C15.7296 22.44 15.5396 22.63 15.5396 22.86C15.5396 23.09 15.7296 23.28 15.9596 23.28C19.3396 23.28 22.0796 20.53 22.0796 17.16C22.0796 16.93 21.8896 16.74 21.6596 16.74L21.6696 16.75Z" fill="#5C4A3B" stroke="#5C4A3B" stroke-width="0.4"/>
<path d="M11.7195 14.7799C13.0795 14.7799 14.1895 13.6699 14.1895 12.3099C14.1895 12.0799 13.9995 11.8899 13.7695 11.8899C13.5395 11.8899 13.3495 12.0799 13.3495 12.3099C13.3495 13.1999 12.6195 13.9299 11.7295 13.9299C10.8395 13.9299 10.1095 13.1999 10.1095 12.3099C10.1095 12.0799 9.91953 11.8899 9.68953 11.8899C9.45953 11.8899 9.26953 12.0799 9.26953 12.3099C9.26953 13.6699 10.3795 14.7799 11.7395 14.7799H11.7195Z" fill="#5C4A3B" stroke="#5C4A3B" stroke-width="0.4"/>
<path d="M22.2695 11.8799C22.0395 11.8799 21.8495 12.0699 21.8495 12.2999C21.8495 13.1899 21.1195 13.9199 20.2295 13.9199C19.3395 13.9199 18.6095 13.1899 18.6095 12.2999C18.6095 12.0699 18.4195 11.8799 18.1895 11.8799C17.9595 11.8799 17.7695 12.0699 17.7695 12.2999C17.7695 13.6599 18.8795 14.7699 20.2395 14.7699C21.5995 14.7699 22.7095 13.6599 22.7095 12.2999C22.7095 12.0699 22.5195 11.8799 22.2895 11.8799H22.2695Z" fill="#5C4A3B" stroke="#5C4A3B" stroke-width="0.4"/>
</g>

</svg>
