<svg preserveAspectRatio="none" width="100%" height="100%" overflow="visible" style="display: block;" viewBox="0 0 32 32" fill="none" xmlns="http://www.w3.org/2000/svg">
<g id="Group">
<path id="Vector" d="M27.3603 4.63972C33.5466 10.9385 33.5466 21.174 27.3603 27.3603C21.174 33.5466 10.9385 33.5466 4.63972 27.3603C-1.54657 21.174 -1.54657 10.9385 4.63972 4.63972C10.9385 -1.54657 21.174 -1.54657 27.3603 4.63972ZM26.348 5.7645C20.6116 0.0281195 11.3884 0.0281195 5.7645 5.7645C0.0281195 11.3884 0.0281195 20.6116 5.7645 26.348C11.3884 31.9719 20.6116 31.9719 26.348 26.348C31.9719 20.6116 31.9719 11.3884 26.348 5.7645Z" fill="#B63AB4"/>
<path id="Vector_2" d="M11.1634 20.2742C11.3884 21.3989 11.8383 22.4112 12.6257 23.1986C14.4253 24.9982 17.5747 24.9982 19.4868 23.1986C20.1617 22.4112 20.7241 21.3989 20.8366 20.2742H11.1634ZM21.9613 19.1494C21.9613 21.0615 21.6239 22.5237 20.2742 23.9859C17.9121 26.2355 14.0879 26.2355 11.8383 23.9859C10.3761 22.5237 10.0387 21.0615 10.0387 19.1494C14.0879 19.1494 18.0246 19.1494 21.9613 19.1494Z" fill="#B63AB4"/>
<path id="Vector_3" d="M7.11424 10.3761C7.11424 9.47627 5.65202 9.58875 5.65202 10.4886C5.7645 11.3884 6.10193 12.1757 6.7768 12.7381C8.01406 13.8629 10.0387 13.8629 11.3884 12.7381C11.9508 12.1757 12.4007 11.3884 12.4007 10.4886C12.5132 9.58875 11.051 9.47627 10.9385 10.3761C10.9385 10.9385 10.7135 11.2759 10.3761 11.6134C9.58875 12.2882 8.46397 12.2882 7.7891 11.6134C7.45167 11.2759 7.22671 10.9385 7.11424 10.3761Z" fill="#B63AB4"/>
<path id="Vector_4" d="M24.7733 10.3761C24.7733 9.47627 26.2355 9.58875 26.2355 10.4886C26.123 11.3884 25.6731 12.1757 25.1107 12.7381C23.8734 13.8629 21.8488 13.8629 20.4991 12.7381C19.9367 12.1757 19.4868 11.3884 19.4868 10.4886C19.3743 9.58875 20.8365 9.47627 20.949 10.3761C20.949 10.9385 21.174 11.2759 21.5114 11.6134C22.2988 12.2882 23.4235 12.2882 24.0984 11.6134C24.4358 11.2759 24.6608 10.9385 24.7733 10.3761Z" fill="#B63AB4"/>
</g>
</svg>
