<svg width="33" height="34" viewBox="0 0 33 34" fill="none" xmlns="http://www.w3.org/2000/svg">
<path d="M13.2192 33.5825C13.0951 33.5822 12.9751 33.5377 12.8807 33.4569C12.7864 33.3762 12.7238 33.2646 12.7042 33.142C12.4977 31.839 12.2717 29.3418 13.0851 27.253C13.2863 26.7407 13.586 26.2874 13.9361 25.763C14.1198 25.4867 14.3096 25.2017 14.5094 24.8725C14.582 24.7556 14.6978 24.6721 14.8316 24.6401C14.9654 24.6081 15.1064 24.6302 15.224 24.7015C15.3417 24.7729 15.4264 24.8878 15.4598 25.0212C15.4933 25.1547 15.4727 25.2959 15.4026 25.4143C15.1914 25.7623 14.9862 26.0701 14.8051 26.3417C14.4759 26.8352 14.2164 27.2248 14.0588 27.6312C13.5297 28.9905 13.4117 30.9391 13.7356 32.9783C13.7464 33.0461 13.7437 33.1153 13.7277 33.182C13.7118 33.2487 13.6828 33.3115 13.6425 33.367C13.6022 33.4225 13.5514 33.4695 13.4929 33.5054C13.4344 33.5412 13.3694 33.5651 13.3017 33.5758C13.2745 33.5804 13.2469 33.5826 13.2192 33.5825Z" fill="url(#paint0_linear_2266_1682)"/>
<path d="M29.7342 33.6672C29.5994 33.6671 29.4698 33.6148 29.3727 33.5213C29.2755 33.4278 29.2184 33.3003 29.2132 33.1656L28.9892 27.4617C28.9865 27.3825 29.0014 27.3038 29.0328 27.231C31.4207 21.7914 29.5967 15.081 29.5773 15.0139C29.5517 14.9212 29.5521 14.8233 29.5783 14.7309C29.6046 14.6384 29.6557 14.5549 29.7262 14.4895C32.6452 11.7978 30.7253 8.66024 28.5091 5.67687C26.6824 3.2152 25.8778 1.04255 25.8415 0.951355C25.818 0.886983 25.8073 0.818601 25.8102 0.750114C25.8131 0.681627 25.8294 0.614376 25.8583 0.552201C25.8871 0.490027 25.928 0.434145 25.9784 0.387748C26.0289 0.341351 26.088 0.305346 26.1524 0.28179C26.2167 0.258233 26.2851 0.247587 26.3536 0.250458C26.4221 0.253329 26.4893 0.269662 26.5515 0.298523C26.6137 0.327384 26.6696 0.368209 26.716 0.418667C26.7624 0.469125 26.7984 0.528227 26.8219 0.592599C26.83 0.613387 27.6132 2.72099 29.3446 5.05123C31.0385 7.32714 34.1566 11.5269 30.6616 15.036C30.9644 16.3368 31.1613 17.6599 31.2504 18.9924C31.4066 21.2428 31.3174 24.5414 30.0373 27.5395L30.2566 33.1247C30.2618 33.263 30.212 33.3978 30.1179 33.4994C30.0239 33.601 29.8933 33.6611 29.755 33.6665L29.7342 33.6672Z" fill="url(#paint1_linear_2266_1682)"/>
<path d="M15.6107 7.2009C15.5882 7.201 15.5658 7.19943 15.5436 7.1962C15.4755 7.18752 15.4099 7.16549 15.3503 7.13138C15.2908 7.09728 15.2386 7.05177 15.1967 6.99745C15.1547 6.94314 15.1239 6.88108 15.106 6.81485C15.0881 6.74862 15.0835 6.6795 15.0923 6.61147C15.5651 2.94009 16.8217 0.965258 16.8754 0.882778C16.9524 0.77053 17.0702 0.692795 17.2037 0.66613C17.3372 0.639464 17.4759 0.665974 17.5901 0.740014C17.7044 0.814054 17.7852 0.929774 17.8154 1.06253C17.8456 1.19528 17.8228 1.33458 17.7518 1.45075C17.7404 1.46819 16.5676 3.32835 16.1277 6.74826C16.1109 6.87353 16.0493 6.98847 15.9542 7.07172C15.8591 7.15497 15.737 7.20087 15.6107 7.2009Z" fill="url(#paint2_linear_2266_1682)"/>
<path d="M17.23 20.896C17.1501 20.8964 17.0713 20.8784 16.9995 20.8435C16.9277 20.8087 16.8649 20.7578 16.8158 20.6949C16.7667 20.632 16.7327 20.5586 16.7164 20.4805C16.7001 20.4024 16.7019 20.3215 16.7217 20.2442C17.187 18.4464 16.8129 16.3549 16.4159 14.1353C16.3401 13.7095 16.261 13.2689 16.1872 12.8244C16.1693 12.6899 16.2043 12.5538 16.2849 12.4447C16.3655 12.3356 16.4853 12.2622 16.6191 12.2399C16.7529 12.2176 16.8901 12.2482 17.0017 12.3252C17.1133 12.4023 17.1906 12.5197 17.2172 12.6527C17.2903 13.0906 17.3681 13.5285 17.4439 13.9516C17.8616 16.2838 18.2553 18.4873 17.7322 20.5064C17.7031 20.6176 17.6381 20.7161 17.5473 20.7865C17.4564 20.857 17.3449 20.8955 17.23 20.896Z" fill="url(#paint3_linear_2266_1682)"/>
<path d="M14.956 25.6658C14.8814 25.6657 14.8078 25.6498 14.7399 25.619C14.6721 25.5883 14.6115 25.5434 14.5623 25.4875L10.9708 21.3742C10.9304 21.3275 10.8984 21.2742 10.8762 21.2166L8.04438 13.794C7.69971 12.8908 8.00683 11.8977 8.82627 11.2646L8.83565 11.2573L18.4315 4.17671C18.5432 4.09882 18.6808 4.06758 18.8151 4.08964C18.9495 4.11171 19.0699 4.18534 19.1507 4.29486C19.2316 4.40438 19.2665 4.54113 19.248 4.676C19.2295 4.81086 19.1591 4.93319 19.0518 5.01694L9.46264 12.0941C9.01201 12.4449 8.84303 12.9531 9.02207 13.4212L11.821 20.7572L14.8004 24.1691C15.2155 23.2431 15.7238 22.3888 16.5036 21.9147C16.547 21.8883 16.594 21.8684 16.6431 21.8556L18.7836 21.2984C19.0129 21.1401 19.1457 20.8391 19.1088 20.6647C19.1021 20.6332 19.0833 20.5447 18.8754 20.5058L16.5352 21.0872C16.4587 21.1065 16.3789 21.1081 16.3018 21.0919L13.926 20.5916C13.8229 20.5701 13.7287 20.5178 13.6559 20.4416C13.5831 20.3655 13.5351 20.2691 13.5183 20.1651L12.5198 14.0509C12.4999 13.9286 12.5242 13.8032 12.5882 13.6971C12.6521 13.591 12.7517 13.511 12.8691 13.4715L20.6002 10.8831C20.7303 10.8435 20.8708 10.8562 20.9918 10.9186C21.1127 10.981 21.2045 11.0881 21.2477 11.2171C21.2909 11.3462 21.282 11.487 21.2229 11.6096C21.1638 11.7322 21.0592 11.8269 20.9314 11.8735L13.6222 14.3211L14.4939 19.6434L16.4024 20.0458L18.7232 19.4691C18.7815 19.4545 18.8419 19.4502 18.9016 19.4563C19.5554 19.5234 20.0161 19.8929 20.1334 20.4495C20.2716 21.1066 19.8927 21.8758 19.2516 22.2392C19.212 22.2616 19.1696 22.2787 19.1256 22.2902L16.9878 22.8461C16.3011 23.3054 15.8478 24.3274 15.4455 25.3379C15.4123 25.4209 15.3583 25.494 15.2888 25.5503C15.2193 25.6065 15.1366 25.644 15.0485 25.6591C15.0179 25.6639 14.9869 25.6662 14.956 25.6658Z" fill="url(#paint4_linear_2266_1682)"/>
<path d="M29.5109 27.9633H13.5701C13.5015 27.9633 13.4335 27.9498 13.3702 27.9235C13.3068 27.8973 13.2492 27.8588 13.2007 27.8103C13.1522 27.7618 13.1137 27.7042 13.0875 27.6408C13.0612 27.5775 13.0477 27.5095 13.0477 27.4409C13.0477 27.3723 13.0612 27.3044 13.0875 27.241C13.1137 27.1776 13.1522 27.1201 13.2007 27.0716C13.2492 27.023 13.3068 26.9846 13.3702 26.9583C13.4335 26.9321 13.5015 26.9186 13.5701 26.9186H29.5109C29.6494 26.9186 29.7823 26.9736 29.8803 27.0716C29.9782 27.1695 30.0333 27.3024 30.0333 27.4409C30.0333 27.5795 29.9782 27.7123 29.8803 27.8103C29.7823 27.9083 29.6494 27.9633 29.5109 27.9633Z" fill="url(#paint5_linear_2266_1682)"/>
<path d="M6.03891 24.0578C5.96591 24.0578 5.89372 24.0425 5.82701 24.0129L0.561016 21.6726C0.449759 21.6234 0.359157 21.537 0.304867 21.4282C0.250578 21.3194 0.236013 21.195 0.263691 21.0766C0.291368 20.9581 0.359548 20.8531 0.456447 20.7796C0.553346 20.7061 0.672874 20.6688 0.794375 20.6741L3.62418 20.7901L3.62016 18.0568C3.62007 17.9634 3.64504 17.8717 3.69247 17.7912C3.7399 17.7107 3.80805 17.6444 3.88982 17.5992C3.97159 17.554 4.06399 17.5315 4.15739 17.5342C4.25078 17.5368 4.34175 17.5645 4.42082 17.6143L9.92889 21.0858C10.0306 21.1502 10.1069 21.2478 10.145 21.362C10.1831 21.4762 10.1805 21.6001 10.1377 21.7126C10.095 21.8252 10.0147 21.9195 9.91041 21.9796C9.80613 22.0398 9.68427 22.0621 9.56544 22.0427L6.40236 21.5183L6.55994 23.4938C6.56559 23.5657 6.5563 23.6379 6.53267 23.706C6.50905 23.7741 6.47159 23.8365 6.42265 23.8895C6.37371 23.9424 6.31435 23.9846 6.24831 24.0134C6.18227 24.0423 6.11098 24.0578 6.03891 24.0578ZM3.48672 21.8295L5.44948 22.7012L5.30866 20.9356C5.30235 20.8568 5.31405 20.7775 5.34287 20.7039C5.37169 20.6302 5.41688 20.5641 5.47502 20.5105C5.53315 20.4569 5.60272 20.4172 5.67845 20.3944C5.75419 20.3716 5.83411 20.3664 5.91217 20.379L7.18626 20.5896L4.66826 19.003V21.3333C4.66803 21.4032 4.65377 21.4723 4.62631 21.5366C4.59886 21.601 4.55877 21.6591 4.50843 21.7076C4.45809 21.7561 4.39852 21.7941 4.33325 21.8191C4.26798 21.8442 4.19834 21.8559 4.12845 21.8536L3.48672 21.8295Z" fill="url(#paint6_linear_2266_1682)"/>
<path d="M4.47436 32.6498C4.37531 32.6497 4.27833 32.6215 4.19473 32.5684C4.11112 32.5153 4.04434 32.4395 4.00217 32.3499C3.95999 32.2602 3.94417 32.1605 3.95653 32.0622C3.9689 31.9639 4.00895 31.8712 4.07202 31.7948L5.87652 29.6121L3.69784 27.9625C3.62344 27.9059 3.5656 27.8304 3.53035 27.7438C3.4951 27.6572 3.48373 27.5627 3.49743 27.4703C3.51113 27.3778 3.5494 27.2907 3.60824 27.218C3.66708 27.1454 3.74434 27.0899 3.83195 27.0572L9.92945 24.7733C10.0423 24.7313 10.1661 24.7296 10.2801 24.7684C10.394 24.8073 10.491 24.8842 10.5547 24.9864C10.6185 25.0885 10.645 25.2095 10.6297 25.3289C10.6145 25.4483 10.5586 25.5588 10.4713 25.6417L8.13836 27.8452L9.8054 28.9147C9.88158 28.9636 9.94374 29.0315 9.98581 29.1116C10.0279 29.1917 10.0484 29.2814 10.0453 29.3719C10.0423 29.4624 10.0158 29.5505 9.96845 29.6276C9.9211 29.7048 9.85451 29.7683 9.77522 29.8119L4.72582 32.5861C4.64872 32.6282 4.56221 32.6501 4.47436 32.6498ZM5.08391 27.7017L6.94139 29.1099C6.99745 29.1525 7.04433 29.206 7.07922 29.2671C7.11411 29.3283 7.13629 29.3959 7.14443 29.4658C7.15257 29.5358 7.14651 29.6066 7.1266 29.6742C7.10669 29.7417 7.07334 29.8045 7.02856 29.8589L6.61884 30.3544L8.50114 29.3197L7.01113 28.3628C6.94439 28.3201 6.88828 28.2626 6.84705 28.1949C6.80582 28.1272 6.78056 28.051 6.77319 27.9721C6.76582 27.8932 6.77654 27.8136 6.80452 27.7394C6.8325 27.6653 6.87702 27.5985 6.93468 27.5441L7.87348 26.6583L5.08391 27.7017Z" fill="url(#paint7_linear_2266_1682)"/>
<path d="M13.2192 33.5825C13.0951 33.5822 12.9751 33.5377 12.8807 33.4569C12.7864 33.3762 12.7238 33.2646 12.7042 33.142C12.4977 31.839 12.2717 29.3418 13.0851 27.253C13.2863 26.7407 13.586 26.2874 13.9361 25.763C14.1198 25.4867 14.3096 25.2017 14.5094 24.8725C14.582 24.7556 14.6978 24.6721 14.8316 24.6401C14.9654 24.6081 15.1064 24.6302 15.224 24.7015C15.3417 24.7729 15.4264 24.8878 15.4598 25.0212C15.4933 25.1547 15.4727 25.2959 15.4026 25.4143C15.1914 25.7623 14.9862 26.0701 14.8051 26.3417C14.4759 26.8352 14.2164 27.2248 14.0588 27.6312C13.5297 28.9905 13.4117 30.9391 13.7356 32.9783C13.7464 33.0461 13.7437 33.1153 13.7277 33.182C13.7118 33.2487 13.6828 33.3115 13.6425 33.367C13.6022 33.4225 13.5514 33.4695 13.4929 33.5054C13.4344 33.5412 13.3694 33.5651 13.3017 33.5758C13.2745 33.5804 13.2469 33.5826 13.2192 33.5825Z" stroke="url(#paint8_linear_2266_1682)" stroke-width="0.5"/>
<path d="M29.7342 33.6672C29.5994 33.6671 29.4698 33.6148 29.3727 33.5213C29.2755 33.4278 29.2184 33.3003 29.2132 33.1656L28.9892 27.4617C28.9865 27.3825 29.0014 27.3038 29.0328 27.231C31.4207 21.7914 29.5967 15.081 29.5773 15.0139C29.5517 14.9212 29.5521 14.8233 29.5783 14.7309C29.6046 14.6384 29.6557 14.5549 29.7262 14.4895C32.6452 11.7978 30.7253 8.66024 28.5091 5.67687C26.6824 3.2152 25.8778 1.04255 25.8415 0.951355C25.818 0.886983 25.8073 0.818601 25.8102 0.750114C25.8131 0.681627 25.8294 0.614376 25.8583 0.552201C25.8871 0.490027 25.928 0.434145 25.9784 0.387748C26.0289 0.341351 26.088 0.305346 26.1524 0.28179C26.2167 0.258233 26.2851 0.247587 26.3536 0.250458C26.4221 0.253329 26.4893 0.269662 26.5515 0.298523C26.6137 0.327384 26.6696 0.368209 26.716 0.418667C26.7624 0.469125 26.7984 0.528227 26.8219 0.592599C26.83 0.613387 27.6132 2.72099 29.3446 5.05123C31.0385 7.32714 34.1566 11.5269 30.6616 15.036C30.9644 16.3368 31.1613 17.6599 31.2504 18.9924C31.4066 21.2428 31.3174 24.5414 30.0373 27.5395L30.2566 33.1247C30.2618 33.263 30.212 33.3978 30.1179 33.4994C30.0239 33.601 29.8933 33.6611 29.755 33.6665L29.7342 33.6672Z" stroke="url(#paint9_linear_2266_1682)" stroke-width="0.5"/>
<path d="M15.6107 7.2009C15.5882 7.201 15.5658 7.19943 15.5436 7.1962C15.4755 7.18752 15.4099 7.16549 15.3503 7.13138C15.2908 7.09728 15.2386 7.05177 15.1967 6.99745C15.1547 6.94314 15.1239 6.88108 15.106 6.81485C15.0881 6.74862 15.0835 6.6795 15.0923 6.61147C15.5651 2.94009 16.8217 0.965258 16.8754 0.882778C16.9524 0.77053 17.0702 0.692795 17.2037 0.66613C17.3372 0.639464 17.4759 0.665974 17.5901 0.740014C17.7044 0.814054 17.7852 0.929774 17.8154 1.06253C17.8456 1.19528 17.8228 1.33458 17.7518 1.45075C17.7404 1.46819 16.5676 3.32835 16.1277 6.74826C16.1109 6.87353 16.0493 6.98847 15.9542 7.07172C15.8591 7.15497 15.737 7.20087 15.6107 7.2009Z" stroke="url(#paint10_linear_2266_1682)" stroke-width="0.5"/>
<path d="M17.23 20.896C17.1501 20.8964 17.0713 20.8784 16.9995 20.8435C16.9277 20.8087 16.8649 20.7578 16.8158 20.6949C16.7667 20.632 16.7327 20.5586 16.7164 20.4805C16.7001 20.4024 16.7019 20.3215 16.7217 20.2442C17.187 18.4464 16.8129 16.3549 16.4159 14.1353C16.3401 13.7095 16.261 13.2689 16.1872 12.8244C16.1693 12.6899 16.2043 12.5538 16.2849 12.4447C16.3655 12.3356 16.4853 12.2622 16.6191 12.2399C16.7529 12.2176 16.8901 12.2482 17.0017 12.3252C17.1133 12.4023 17.1906 12.5197 17.2172 12.6527C17.2903 13.0906 17.3681 13.5285 17.4439 13.9516C17.8616 16.2838 18.2553 18.4873 17.7322 20.5064C17.7031 20.6176 17.6381 20.7161 17.5473 20.7865C17.4564 20.857 17.3449 20.8955 17.23 20.896Z" stroke="url(#paint11_linear_2266_1682)" stroke-width="0.5"/>
<path d="M14.956 25.6658C14.8814 25.6657 14.8078 25.6498 14.7399 25.619C14.6721 25.5883 14.6115 25.5434 14.5623 25.4875L10.9708 21.3742C10.9304 21.3275 10.8984 21.2742 10.8762 21.2166L8.04438 13.794C7.69971 12.8908 8.00683 11.8977 8.82627 11.2646L8.83565 11.2573L18.4315 4.17671C18.5432 4.09882 18.6808 4.06758 18.8151 4.08964C18.9495 4.11171 19.0699 4.18534 19.1507 4.29486C19.2316 4.40438 19.2665 4.54113 19.248 4.676C19.2295 4.81086 19.1591 4.93319 19.0518 5.01694L9.46264 12.0941C9.01201 12.4449 8.84303 12.9531 9.02207 13.4212L11.821 20.7572L14.8004 24.1691C15.2155 23.2431 15.7238 22.3888 16.5036 21.9147C16.547 21.8883 16.594 21.8684 16.6431 21.8556L18.7836 21.2984C19.0129 21.1401 19.1457 20.8391 19.1088 20.6647C19.1021 20.6332 19.0833 20.5447 18.8754 20.5058L16.5352 21.0872C16.4587 21.1065 16.3789 21.1081 16.3018 21.0919L13.926 20.5916C13.8229 20.5701 13.7287 20.5178 13.6559 20.4416C13.5831 20.3655 13.5351 20.2691 13.5183 20.1651L12.5198 14.0509C12.4999 13.9286 12.5242 13.8032 12.5882 13.6971C12.6521 13.591 12.7517 13.511 12.8691 13.4715L20.6002 10.8831C20.7303 10.8435 20.8708 10.8562 20.9918 10.9186C21.1127 10.981 21.2045 11.0881 21.2477 11.2171C21.2909 11.3462 21.282 11.487 21.2229 11.6096C21.1638 11.7322 21.0592 11.8269 20.9314 11.8735L13.6222 14.3211L14.4939 19.6434L16.4024 20.0458L18.7232 19.4691C18.7815 19.4545 18.8419 19.4502 18.9016 19.4563C19.5554 19.5234 20.0161 19.8929 20.1334 20.4495C20.2716 21.1066 19.8927 21.8758 19.2516 22.2392C19.212 22.2616 19.1696 22.2787 19.1256 22.2902L16.9878 22.8461C16.3011 23.3054 15.8478 24.3274 15.4455 25.3379C15.4123 25.4209 15.3583 25.494 15.2888 25.5503C15.2193 25.6065 15.1366 25.644 15.0485 25.6591C15.0179 25.6639 14.9869 25.6662 14.956 25.6658Z" stroke="url(#paint12_linear_2266_1682)" stroke-width="0.5"/>
<path d="M29.5109 27.9633H13.5701C13.5015 27.9633 13.4335 27.9498 13.3702 27.9235C13.3068 27.8973 13.2492 27.8588 13.2007 27.8103C13.1522 27.7618 13.1137 27.7042 13.0875 27.6408C13.0612 27.5775 13.0477 27.5095 13.0477 27.4409C13.0477 27.3723 13.0612 27.3044 13.0875 27.241C13.1137 27.1776 13.1522 27.1201 13.2007 27.0716C13.2492 27.023 13.3068 26.9846 13.3702 26.9583C13.4335 26.9321 13.5015 26.9186 13.5701 26.9186H29.5109C29.6494 26.9186 29.7823 26.9736 29.8803 27.0716C29.9782 27.1695 30.0333 27.3024 30.0333 27.4409C30.0333 27.5795 29.9782 27.7123 29.8803 27.8103C29.7823 27.9083 29.6494 27.9633 29.5109 27.9633Z" stroke="url(#paint13_linear_2266_1682)" stroke-width="0.5"/>
<path d="M6.03891 24.0578C5.96591 24.0578 5.89372 24.0425 5.82701 24.0129L0.561016 21.6726C0.449759 21.6234 0.359157 21.537 0.304867 21.4282C0.250578 21.3194 0.236013 21.195 0.263691 21.0766C0.291368 20.9581 0.359548 20.8531 0.456447 20.7796C0.553346 20.7061 0.672874 20.6688 0.794375 20.6741L3.62418 20.7901L3.62016 18.0568C3.62007 17.9634 3.64504 17.8717 3.69247 17.7912C3.7399 17.7107 3.80805 17.6444 3.88982 17.5992C3.97159 17.554 4.06399 17.5315 4.15739 17.5342C4.25078 17.5368 4.34175 17.5645 4.42082 17.6143L9.92889 21.0858C10.0306 21.1502 10.1069 21.2478 10.145 21.362C10.1831 21.4762 10.1805 21.6001 10.1377 21.7126C10.095 21.8252 10.0147 21.9195 9.91041 21.9796C9.80613 22.0398 9.68427 22.0621 9.56544 22.0427L6.40236 21.5183L6.55994 23.4938C6.56559 23.5657 6.5563 23.6379 6.53267 23.706C6.50905 23.7741 6.47159 23.8365 6.42265 23.8895C6.37371 23.9424 6.31435 23.9846 6.24831 24.0134C6.18227 24.0423 6.11098 24.0578 6.03891 24.0578ZM3.48672 21.8295L5.44948 22.7012L5.30866 20.9356C5.30235 20.8568 5.31405 20.7775 5.34287 20.7039C5.37169 20.6302 5.41688 20.5641 5.47502 20.5105C5.53315 20.4569 5.60272 20.4172 5.67845 20.3944C5.75419 20.3716 5.83411 20.3664 5.91217 20.379L7.18626 20.5896L4.66826 19.003V21.3333C4.66803 21.4032 4.65377 21.4723 4.62631 21.5366C4.59886 21.601 4.55877 21.6591 4.50843 21.7076C4.45809 21.7561 4.39852 21.7941 4.33325 21.8191C4.26798 21.8442 4.19834 21.8559 4.12845 21.8536L3.48672 21.8295Z" stroke="url(#paint14_linear_2266_1682)" stroke-width="0.5"/>
<path d="M4.47436 32.6498C4.37531 32.6497 4.27833 32.6215 4.19473 32.5684C4.11112 32.5153 4.04434 32.4395 4.00217 32.3499C3.95999 32.2602 3.94417 32.1605 3.95653 32.0622C3.9689 31.9639 4.00895 31.8712 4.07202 31.7948L5.87652 29.6121L3.69784 27.9625C3.62344 27.9059 3.5656 27.8304 3.53035 27.7438C3.4951 27.6572 3.48373 27.5627 3.49743 27.4703C3.51113 27.3778 3.5494 27.2907 3.60824 27.218C3.66708 27.1454 3.74434 27.0899 3.83195 27.0572L9.92945 24.7733C10.0423 24.7313 10.1661 24.7296 10.2801 24.7684C10.394 24.8073 10.491 24.8842 10.5547 24.9864C10.6185 25.0885 10.645 25.2095 10.6297 25.3289C10.6145 25.4483 10.5586 25.5588 10.4713 25.6417L8.13836 27.8452L9.8054 28.9147C9.88158 28.9636 9.94374 29.0315 9.98581 29.1116C10.0279 29.1917 10.0484 29.2814 10.0453 29.3719C10.0423 29.4624 10.0158 29.5505 9.96845 29.6276C9.9211 29.7048 9.85451 29.7683 9.77522 29.8119L4.72582 32.5861C4.64872 32.6282 4.56221 32.6501 4.47436 32.6498ZM5.08391 27.7017L6.94139 29.1099C6.99745 29.1525 7.04433 29.206 7.07922 29.2671C7.11411 29.3283 7.13629 29.3959 7.14443 29.4658C7.15257 29.5358 7.14651 29.6066 7.1266 29.6742C7.10669 29.7417 7.07334 29.8045 7.02856 29.8589L6.61884 30.3544L8.50114 29.3197L7.01113 28.3628C6.94439 28.3201 6.88828 28.2626 6.84705 28.1949C6.80582 28.1272 6.78056 28.051 6.77319 27.9721C6.76582 27.8932 6.77654 27.8136 6.80452 27.7394C6.8325 27.6653 6.87702 27.5985 6.93468 27.5441L7.87348 26.6583L5.08391 27.7017Z" stroke="url(#paint15_linear_2266_1682)" stroke-width="0.5"/>
<defs>
<linearGradient id="paint0_linear_2266_1682" x1="3.05" y1="0.249998" x2="37.1646" y2="8.08133" gradientUnits="userSpaceOnUse">
<stop stop-color="#B63AB4"/>
<stop offset="1" stop-color="#513B9F"/>
</linearGradient>
<linearGradient id="paint1_linear_2266_1682" x1="3.05" y1="0.249998" x2="37.1646" y2="8.08133" gradientUnits="userSpaceOnUse">
<stop stop-color="#B63AB4"/>
<stop offset="1" stop-color="#513B9F"/>
</linearGradient>
<linearGradient id="paint2_linear_2266_1682" x1="3.05" y1="0.249998" x2="37.1646" y2="8.08133" gradientUnits="userSpaceOnUse">
<stop stop-color="#B63AB4"/>
<stop offset="1" stop-color="#513B9F"/>
</linearGradient>
<linearGradient id="paint3_linear_2266_1682" x1="3.05" y1="0.249998" x2="37.1646" y2="8.08133" gradientUnits="userSpaceOnUse">
<stop stop-color="#B63AB4"/>
<stop offset="1" stop-color="#513B9F"/>
</linearGradient>
<linearGradient id="paint4_linear_2266_1682" x1="3.05" y1="0.249998" x2="37.1646" y2="8.08133" gradientUnits="userSpaceOnUse">
<stop stop-color="#B63AB4"/>
<stop offset="1" stop-color="#513B9F"/>
</linearGradient>
<linearGradient id="paint5_linear_2266_1682" x1="3.05" y1="0.249998" x2="37.1646" y2="8.08133" gradientUnits="userSpaceOnUse">
<stop stop-color="#B63AB4"/>
<stop offset="1" stop-color="#513B9F"/>
</linearGradient>
<linearGradient id="paint6_linear_2266_1682" x1="3.05" y1="0.249998" x2="37.1646" y2="8.08133" gradientUnits="userSpaceOnUse">
<stop stop-color="#B63AB4"/>
<stop offset="1" stop-color="#513B9F"/>
</linearGradient>
<linearGradient id="paint7_linear_2266_1682" x1="3.05" y1="0.249998" x2="37.1646" y2="8.08133" gradientUnits="userSpaceOnUse">
<stop stop-color="#B63AB4"/>
<stop offset="1" stop-color="#513B9F"/>
</linearGradient>
<linearGradient id="paint8_linear_2266_1682" x1="3.05" y1="0.249998" x2="37.1646" y2="8.08133" gradientUnits="userSpaceOnUse">
<stop stop-color="#B63AB4"/>
<stop offset="1" stop-color="#513B9F"/>
</linearGradient>
<linearGradient id="paint9_linear_2266_1682" x1="3.05" y1="0.249998" x2="37.1646" y2="8.08133" gradientUnits="userSpaceOnUse">
<stop stop-color="#B63AB4"/>
<stop offset="1" stop-color="#513B9F"/>
</linearGradient>
<linearGradient id="paint10_linear_2266_1682" x1="3.05" y1="0.249998" x2="37.1646" y2="8.08133" gradientUnits="userSpaceOnUse">
<stop stop-color="#B63AB4"/>
<stop offset="1" stop-color="#513B9F"/>
</linearGradient>
<linearGradient id="paint11_linear_2266_1682" x1="3.05" y1="0.249998" x2="37.1646" y2="8.08133" gradientUnits="userSpaceOnUse">
<stop stop-color="#B63AB4"/>
<stop offset="1" stop-color="#513B9F"/>
</linearGradient>
<linearGradient id="paint12_linear_2266_1682" x1="3.05" y1="0.249998" x2="37.1646" y2="8.08133" gradientUnits="userSpaceOnUse">
<stop stop-color="#B63AB4"/>
<stop offset="1" stop-color="#513B9F"/>
</linearGradient>
<linearGradient id="paint13_linear_2266_1682" x1="3.05" y1="0.249998" x2="37.1646" y2="8.08133" gradientUnits="userSpaceOnUse">
<stop stop-color="#B63AB4"/>
<stop offset="1" stop-color="#513B9F"/>
</linearGradient>
<linearGradient id="paint14_linear_2266_1682" x1="3.05" y1="0.249998" x2="37.1646" y2="8.08133" gradientUnits="userSpaceOnUse">
<stop stop-color="#B63AB4"/>
<stop offset="1" stop-color="#513B9F"/>
</linearGradient>
<linearGradient id="paint15_linear_2266_1682" x1="3.05" y1="0.249998" x2="37.1646" y2="8.08133" gradientUnits="userSpaceOnUse">
<stop stop-color="#B63AB4"/>
<stop offset="1" stop-color="#513B9F"/>
</linearGradient>
</defs>
</svg>
