<svg width="32" height="32" viewBox="0 0 32 32" fill="none" xmlns="http://www.w3.org/2000/svg">
<g clip-path="url(#clip0_2266_2744)">
<path d="M7.97008 31.8901H23.5701C23.9301 31.8901 24.2201 31.6001 24.2201 31.2401V4.67009C24.2201 4.31009 23.9301 4.02009 23.5701 4.02009H19.2401V0.740088C19.2401 0.380088 18.9501 0.0900879 18.5901 0.0900879H12.9601C12.6001 0.0900879 12.3101 0.380088 12.3101 0.740088V4.03009H7.98008C7.62008 4.03009 7.33008 4.32009 7.33008 4.68009V31.2501C7.33008 31.6101 7.62008 31.9001 7.98008 31.9001L7.97008 31.8901ZM13.6001 1.39009H17.9301V4.03009H13.6001V1.39009ZM8.62008 5.32009H22.9201V30.5901H8.62008V5.32009Z" fill="url(#paint0_linear_2266_2744)"/>
<path d="M21.4497 24.4302H10.0797C9.71969 24.4302 9.42969 24.7202 9.42969 25.0802V29.0302C9.42969 29.3902 9.71969 29.6802 10.0797 29.6802H21.4497C21.8097 29.6802 22.0997 29.3902 22.0997 29.0302V25.0802C22.0997 24.7202 21.8097 24.4302 21.4497 24.4302ZM20.7997 28.3802H10.7297V25.7302H20.7997V28.3802Z" fill="url(#paint1_linear_2266_2744)"/>
</g>
<defs>
<linearGradient id="paint0_linear_2266_2744" x1="8.80795" y1="0.0900864" x2="27.4607" y2="2.46433" gradientUnits="userSpaceOnUse">
<stop stop-color="#B63AB4"/>
<stop offset="1" stop-color="#513B9F"/>
</linearGradient>
<linearGradient id="paint1_linear_2266_2744" x1="10.5383" y1="24.4302" x2="21.1916" y2="30.5935" gradientUnits="userSpaceOnUse">
<stop stop-color="#B63AB4"/>
<stop offset="1" stop-color="#513B9F"/>
</linearGradient>
<clipPath id="clip0_2266_2744">
<rect width="32" height="32" fill="white"/>
</clipPath>
</defs>
</svg>
