<svg width="32" height="32" viewBox="2 2 28 28" fill="none" xmlns="http://www.w3.org/2000/svg">
<path d="M23.6797 31.31C22.0397 30.96 20.8497 30.0301 20.1297 28.5401C19.0997 26.4001 19.4097 23.8801 19.5497 23.5201C20.7797 22.58 21.6997 21.35 22.3797 19.6901C23.3797 19.67 24.3697 18.9001 25.0397 17.6201C25.5997 16.5501 25.8897 15.08 25.2897 14.21C25.1697 14.03 24.9797 13.85 24.7097 13.72C25.4397 12.34 25.5797 11.18 25.5797 9.70005C25.5797 4.38005 21.1897 0.0500488 15.7997 0.0500488C13.5997 0.0500488 11.5697 0.770049 9.92974 1.98005C9.92974 1.98005 9.91974 1.98005 9.90974 1.99005C9.88974 2.00005 9.86974 2.02005 9.85974 2.04005C7.51974 3.80005 6.01974 6.58005 6.01974 9.70005C6.01974 11.33 6.04974 12.21 6.77974 13.53C6.43974 13.66 6.21974 13.87 6.07974 14.08C5.47974 14.95 5.76974 16.42 6.32974 17.49C7.00974 18.79 8.01974 19.56 9.03974 19.56C9.08974 19.56 9.12974 19.5501 9.16974 19.5301C9.89974 21.2901 10.8697 22.6401 12.0497 23.5401C12.1797 23.9001 12.4997 26.42 11.4697 28.56C10.7497 30.04 9.55974 30.98 7.91974 31.33C7.76974 31.3601 7.67974 31.51 7.70974 31.66C7.73974 31.79 7.84974 31.88 7.97974 31.88C7.99974 31.88 8.01974 31.88 8.03974 31.88C10.9997 31.24 12.1097 28.99 12.5197 27.22C12.7797 26.1 12.7997 24.84 12.7097 24.0301C13.6297 24.6101 14.7097 24.93 15.8097 24.93C16.9097 24.93 17.9897 24.6101 18.9097 24.0301C18.8097 24.85 18.8397 26.1 19.0997 27.22C19.5097 29 20.6097 31.25 23.5797 31.88C23.5997 31.88 23.6197 31.88 23.6397 31.88C23.7697 31.88 23.8797 31.79 23.9097 31.66C23.9397 31.51 23.8497 31.3601 23.6997 31.33L23.6797 31.31ZM25.0197 9.69005C25.0197 11.36 24.7897 12.39 24.1497 13.56C24.0397 13.55 23.9097 13.54 23.7797 13.54C24.3897 6.03005 19.5597 4.20005 19.5097 4.18005C19.3697 4.13005 19.2097 4.20005 19.1597 4.34005C19.1097 4.48005 19.1797 4.64005 19.3197 4.69005C19.3597 4.70005 22.6497 5.96005 23.1997 10.86C21.2897 6.13005 15.3997 6.17005 15.3297 6.18005C15.1797 6.18005 15.0597 6.31005 15.0597 6.46005C15.0597 6.61005 15.1797 6.73005 15.3397 6.73005C15.6197 6.73005 21.8097 6.69005 23.0297 12.18C22.4297 11.43 21.5597 10.76 20.3897 10.15C19.7197 9.80005 19.0197 9.51005 18.3397 9.23005C17.6197 8.93005 16.8797 8.63005 16.1797 8.26005C13.5697 6.85005 11.8997 4.55005 10.4297 2.28005C11.9397 1.21005 13.7897 0.580049 15.7897 0.580049C20.8797 0.580049 25.0197 4.66005 25.0197 9.67005V9.69005ZM6.56974 9.69005C6.56974 6.84005 7.90974 4.29005 9.99974 2.62005C11.3897 4.77005 12.9697 6.95005 15.3697 8.42005C14.8297 9.12005 12.3897 12.05 8.36974 13.25C8.57974 11.11 10.5597 8.99005 10.5797 8.97005C10.6797 8.86005 10.6797 8.68005 10.5697 8.58005C10.4597 8.48005 10.2797 8.48005 10.1797 8.59005C10.0897 8.69005 7.92974 11 7.80974 13.41C7.80974 13.41 7.80974 13.41 7.79974 13.41C7.63974 13.39 7.47974 13.39 7.34974 13.4C6.60974 12.12 6.57974 11.32 6.57974 9.69005H6.56974ZM12.4297 23.1201C11.1697 22.17 10.1697 20.6901 9.45974 18.74L8.99974 17.17C8.95974 17.0301 8.79974 16.94 8.65974 16.98C8.51974 17.0201 8.42974 17.18 8.46974 17.32L8.93974 18.91C8.93974 18.91 8.95974 18.97 8.96974 19C8.04974 18.9501 7.25974 18.06 6.82974 17.23C6.25974 16.14 6.13974 14.97 6.53974 14.39C6.77974 14.04 7.19974 13.91 7.78974 13.98H7.82974C7.82974 13.98 7.85974 13.98 7.87974 13.98H7.88974C7.88974 13.98 7.88974 13.98 7.89974 13.98C7.95974 13.96 8.02974 13.95 8.08974 13.93C8.12974 13.93 8.15974 13.92 8.19974 13.9C12.7297 12.68 15.3597 9.39005 15.8597 8.73005C15.8897 8.75005 15.9197 8.77005 15.9497 8.78005C16.6697 9.16005 17.4197 9.48005 18.1497 9.78005C18.8197 10.06 19.5097 10.34 20.1597 10.68C21.8197 11.53 22.8297 12.51 23.2597 13.67C23.2597 13.67 23.2597 13.69 23.2697 13.69C23.2797 13.69 23.2697 13.7 23.2797 13.71C23.2797 13.71 23.2897 13.72 23.2897 13.73C23.2697 13.78 23.2497 13.83 23.2597 13.89C23.2797 14.04 23.4097 14.15 23.5697 14.13C24.1597 14.06 24.5797 14.2 24.8197 14.54C25.2197 15.12 25.1097 16.29 24.5297 17.38C24.1197 18.16 23.4097 18.98 22.5697 19.13C22.6497 18.91 22.7197 18.6901 22.7997 18.4501L23.1197 17.09C23.1497 16.9401 23.0597 16.7901 22.9097 16.76C22.7597 16.73 22.6097 16.82 22.5797 16.97L22.2597 18.31C21.5797 20.5 20.5997 22.04 19.1397 23.14C18.1997 23.92 17.0097 24.35 15.7797 24.35C14.5597 24.35 13.3597 23.92 12.4097 23.13L12.4297 23.1201Z" fill="#5C4A3B" stroke="#5C4A3B" stroke-width="0.4"/>
<path d="M13.5003 14.6699C12.1903 15.6799 10.5903 14.6999 10.5203 14.6599C10.3903 14.5799 10.2203 14.6199 10.1403 14.7399C10.0603 14.8599 10.1003 15.0399 10.2203 15.1199C10.2703 15.1499 11.1203 15.6799 12.1403 15.6799C12.6803 15.6799 13.2703 15.5399 13.8203 15.1099C13.9403 15.0199 13.9603 14.8399 13.8703 14.7199C13.7803 14.5999 13.6103 14.5799 13.4903 14.6699H13.5003Z" fill="#5C4A3B" stroke="#5C4A3B" stroke-width="0.4"/>
<path d="M21.3597 15.1199C21.4897 15.0399 21.5197 14.8699 21.4397 14.7399C21.3597 14.6099 21.1897 14.5699 21.0597 14.6499C20.9897 14.6899 19.3897 15.6699 18.0797 14.6599C17.9597 14.5699 17.7897 14.5899 17.6897 14.7099C17.5997 14.8299 17.6197 14.9999 17.7397 15.0999C18.2997 15.5299 18.8797 15.6699 19.4197 15.6699C20.4597 15.6699 21.2997 15.1499 21.3497 15.1199H21.3597Z" fill="#5C4A3B" stroke="#5C4A3B" stroke-width="0.4"/>
<path d="M4.84004 14.1699C3.57004 14.0499 3.47004 11.9599 3.47004 11.9399C3.47004 11.7899 3.34004 11.6799 3.19004 11.6799C3.04004 11.6799 2.92004 11.7999 2.91004 11.9399C2.91004 11.9599 2.81004 14.0499 1.54004 14.1699C1.40004 14.1799 1.29004 14.2999 1.29004 14.4399C1.29004 14.5799 1.40004 14.6999 1.54004 14.7099C2.59004 14.8099 2.88004 16.8199 2.91004 17.5899C2.91004 17.7399 3.04004 17.8599 3.19004 17.8599C3.34004 17.8599 3.46004 17.7399 3.47004 17.5899C3.49004 16.8199 3.79004 14.8099 4.84004 14.7099C4.98004 14.6999 5.09004 14.5799 5.09004 14.4399C5.09004 14.2999 4.98004 14.1799 4.84004 14.1699ZM3.20004 15.9099C3.04004 15.3599 2.77004 14.7999 2.35004 14.4699C2.77004 14.1999 3.04004 13.7499 3.20004 13.3099C3.36004 13.7499 3.63004 14.1999 4.05004 14.4699C3.63004 14.7999 3.36004 15.3599 3.20004 15.9099Z" fill="#5C4A3B" stroke="#5C4A3B" stroke-width="0.4"/>
<path d="M30.2297 5.55006C28.9597 5.43006 28.8597 3.34006 28.8597 3.32006C28.8597 3.17006 28.7297 3.06006 28.5797 3.06006C28.4297 3.06006 28.3097 3.18006 28.2997 3.32006C28.2997 3.34006 28.1997 5.43006 26.9297 5.55006C26.7897 5.56006 26.6797 5.68006 26.6797 5.82006C26.6797 5.96006 26.7897 6.08006 26.9297 6.09006C27.9797 6.19006 28.2697 8.20006 28.2997 8.97006C28.2997 9.12006 28.4297 9.24006 28.5797 9.24006C28.7297 9.24006 28.8497 9.12006 28.8597 8.97006C28.8797 8.20006 29.1797 6.19006 30.2297 6.09006C30.3697 6.08006 30.4797 5.96006 30.4797 5.82006C30.4797 5.68006 30.3697 5.56006 30.2297 5.55006ZM28.5897 7.29006C28.4297 6.74006 28.1597 6.18006 27.7397 5.85006C28.1597 5.58006 28.4297 5.13006 28.5897 4.69006C28.7497 5.13006 29.0197 5.58006 29.4397 5.85006C29.0197 6.18006 28.7497 6.74006 28.5897 7.29006Z" fill="#5C4A3B" stroke="#5C4A3B" stroke-width="0.4"/>
<path d="M6.81957 19.8301C6.24957 19.7801 6.19957 18.8001 6.19957 18.7901C6.19957 18.6901 6.11957 18.6201 6.01957 18.6201C5.91957 18.6201 5.83957 18.7001 5.83957 18.7901C5.83957 18.8001 5.78957 19.7701 5.21957 19.8301C5.12957 19.8401 5.05957 19.9201 5.05957 20.0101C5.05957 20.1001 5.12957 20.1801 5.21957 20.1901C5.68957 20.2301 5.82957 21.2001 5.83957 21.5401C5.83957 21.6401 5.91957 21.7201 6.01957 21.7201C6.11957 21.7201 6.19957 21.6401 6.19957 21.5401C6.20957 21.2001 6.34957 20.2301 6.81957 20.1901C6.90957 20.1801 6.97957 20.1001 6.97957 20.0101C6.97957 19.9201 6.90957 19.8401 6.81957 19.8301ZM6.01957 20.5501C5.94957 20.3501 5.83957 20.1601 5.68957 20.0301C5.83957 19.9201 5.94957 19.7601 6.01957 19.5901C6.08957 19.7501 6.19957 19.9101 6.34957 20.0301C6.19957 20.1601 6.08957 20.3501 6.01957 20.5501Z" fill="#5C4A3B" stroke="#5C4A3B" stroke-width="0.4"/>

</svg>
